<mxfile host="app.diagrams.net" modified="2022-07-27T07:21:42.857Z" agent="5.0 (Windows NT 10.0; Win64; x64) AppleWebKit/537.36 (KHTML, like Gecko) Chrome/103.0.0.0 Safari/537.36" etag="jO6QbV3ApNup0O91ScZR" version="20.2.1" type="github">
  <diagram id="f5BqPzd8teQJvRZpAyXV" name="Page-1">
    <mxGraphModel dx="1695" dy="474" grid="1" gridSize="10" guides="1" tooltips="1" connect="1" arrows="1" fold="1" page="1" pageScale="1" pageWidth="827" pageHeight="1169" math="0" shadow="0">
      <root>
        <mxCell id="0" />
        <mxCell id="1" parent="0" />
        <mxCell id="hOGsSKHKUl2PJO7qdBfS-1" value="Conv 7x7 / Stride 2" style="rounded=0;html=1;direction=west;whiteSpace=wrap;fillColor=#fff2cc;strokeColor=#d6b656;labelPosition=center;verticalLabelPosition=middle;align=center;verticalAlign=middle;flipH=0;flipV=0;rotation=90;" vertex="1" parent="1">
          <mxGeometry x="50" y="190" width="140" height="30" as="geometry" />
        </mxCell>
        <mxCell id="hOGsSKHKUl2PJO7qdBfS-2" value="Max Pool 3x3 / Stride 2" style="rounded=0;html=1;direction=west;whiteSpace=wrap;fillColor=#e1d5e7;strokeColor=#9673a6;labelPosition=center;verticalLabelPosition=middle;align=center;verticalAlign=middle;flipH=0;flipV=0;rotation=90;" vertex="1" parent="1">
          <mxGeometry x="110" y="190" width="140" height="30" as="geometry" />
        </mxCell>
        <mxCell id="hOGsSKHKUl2PJO7qdBfS-3" value="Dense Block 1&amp;nbsp;&lt;br&gt;x6" style="rounded=0;html=1;direction=west;whiteSpace=wrap;fillColor=#d5e8d4;strokeColor=#82b366;labelPosition=center;verticalLabelPosition=middle;align=center;verticalAlign=middle;flipH=0;flipV=0;rotation=90;" vertex="1" parent="1">
          <mxGeometry x="170" y="190" width="140" height="30" as="geometry" />
        </mxCell>
        <mxCell id="hOGsSKHKUl2PJO7qdBfS-4" value="Transition Layer" style="rounded=0;html=1;direction=west;whiteSpace=wrap;fillColor=#f8cecc;strokeColor=#b85450;labelPosition=center;verticalLabelPosition=middle;align=center;verticalAlign=middle;flipH=0;flipV=0;rotation=90;" vertex="1" parent="1">
          <mxGeometry x="230" y="190" width="140" height="30" as="geometry" />
        </mxCell>
        <mxCell id="hOGsSKHKUl2PJO7qdBfS-5" value="Dense Block 2&lt;br&gt;x12" style="rounded=0;html=1;direction=west;whiteSpace=wrap;fillColor=#d5e8d4;strokeColor=#82b366;labelPosition=center;verticalLabelPosition=middle;align=center;verticalAlign=middle;flipH=0;flipV=0;rotation=90;" vertex="1" parent="1">
          <mxGeometry x="290" y="190" width="140" height="30" as="geometry" />
        </mxCell>
        <mxCell id="hOGsSKHKUl2PJO7qdBfS-6" value="Transition Layer" style="rounded=0;html=1;direction=west;whiteSpace=wrap;fillColor=#f8cecc;strokeColor=#b85450;labelPosition=center;verticalLabelPosition=middle;align=center;verticalAlign=middle;flipH=0;flipV=0;rotation=90;" vertex="1" parent="1">
          <mxGeometry x="344" y="190" width="140" height="30" as="geometry" />
        </mxCell>
        <mxCell id="hOGsSKHKUl2PJO7qdBfS-8" value="Dense Block 3&lt;br&gt;x32" style="rounded=0;html=1;direction=west;whiteSpace=wrap;fillColor=#d5e8d4;strokeColor=#82b366;labelPosition=center;verticalLabelPosition=middle;align=center;verticalAlign=middle;flipH=0;flipV=0;rotation=90;" vertex="1" parent="1">
          <mxGeometry x="400" y="190" width="140" height="30" as="geometry" />
        </mxCell>
        <mxCell id="hOGsSKHKUl2PJO7qdBfS-9" value="Transition Layer" style="rounded=0;html=1;direction=west;whiteSpace=wrap;fillColor=#f8cecc;strokeColor=#b85450;labelPosition=center;verticalLabelPosition=middle;align=center;verticalAlign=middle;flipH=0;flipV=0;rotation=90;" vertex="1" parent="1">
          <mxGeometry x="450" y="190" width="140" height="30" as="geometry" />
        </mxCell>
        <mxCell id="hOGsSKHKUl2PJO7qdBfS-10" value="Dense Block 4&lt;br&gt;x32" style="rounded=0;html=1;direction=west;whiteSpace=wrap;fillColor=#d5e8d4;strokeColor=#82b366;labelPosition=center;verticalLabelPosition=middle;align=center;verticalAlign=middle;flipH=0;flipV=0;rotation=90;" vertex="1" parent="1">
          <mxGeometry x="510" y="190" width="140" height="30" as="geometry" />
        </mxCell>
        <mxCell id="hOGsSKHKUl2PJO7qdBfS-12" value="Global average pooling" style="rounded=0;html=1;direction=west;whiteSpace=wrap;fillColor=#e1d5e7;strokeColor=#9673a6;labelPosition=center;verticalLabelPosition=middle;align=center;verticalAlign=middle;flipH=0;flipV=0;rotation=90;" vertex="1" parent="1">
          <mxGeometry x="570" y="190" width="140" height="30" as="geometry" />
        </mxCell>
        <mxCell id="hOGsSKHKUl2PJO7qdBfS-13" value="Fully Connected Layer, 512" style="rounded=0;html=1;direction=west;whiteSpace=wrap;fillColor=#fff2cc;strokeColor=#d6b656;labelPosition=center;verticalLabelPosition=middle;align=center;verticalAlign=middle;flipH=0;flipV=0;rotation=90;" vertex="1" parent="1">
          <mxGeometry x="620" y="190" width="140" height="30" as="geometry" />
        </mxCell>
        <mxCell id="hOGsSKHKUl2PJO7qdBfS-14" value="Softmax" style="rounded=0;html=1;direction=west;whiteSpace=wrap;fillColor=#b0e3e6;strokeColor=#0e8088;labelPosition=center;verticalLabelPosition=middle;align=center;verticalAlign=middle;flipH=0;flipV=0;rotation=90;" vertex="1" parent="1">
          <mxGeometry x="687" y="190" width="140" height="30" as="geometry" />
        </mxCell>
        <mxCell id="hOGsSKHKUl2PJO7qdBfS-15" value="" style="shape=flexArrow;endArrow=classic;html=1;rounded=0;fillColor=#cdeb8b;strokeColor=#36393d;" edge="1" parent="1">
          <mxGeometry width="50" height="50" relative="1" as="geometry">
            <mxPoint x="270" y="357.94" as="sourcePoint" />
            <mxPoint x="300" y="360" as="targetPoint" />
          </mxGeometry>
        </mxCell>
        <mxCell id="hOGsSKHKUl2PJO7qdBfS-18" value="Transition Layer&lt;br&gt;1x1 conv&lt;br&gt;Avg Pool 2x2 / Stride 2" style="rounded=0;html=1;direction=west;whiteSpace=wrap;fillColor=#f8cecc;strokeColor=#b85450;labelPosition=center;verticalLabelPosition=middle;align=center;verticalAlign=middle;flipH=0;flipV=0;rotation=90;" vertex="1" parent="1">
          <mxGeometry x="279.48" y="331.57" width="96.85" height="56.88" as="geometry" />
        </mxCell>
        <mxCell id="hOGsSKHKUl2PJO7qdBfS-20" value="&lt;span style=&quot;background-color: rgb(213, 232, 212);&quot;&gt;Dense Block 1&lt;/span&gt;&lt;br&gt;&lt;span style=&quot;background-color: rgb(213, 232, 212);&quot;&gt;1x1 conv&lt;/span&gt;&lt;br&gt;&lt;span style=&quot;background-color: rgb(213, 232, 212);&quot;&gt;3x3 conv&lt;br&gt;&lt;/span&gt;" style="rounded=0;html=1;direction=west;whiteSpace=wrap;fillColor=#d5e8d4;strokeColor=#82b366;labelPosition=center;verticalLabelPosition=middle;align=center;verticalAlign=middle;flipH=0;flipV=0;rotation=90;" vertex="1" parent="1">
          <mxGeometry x="190.79" y="330" width="99.21" height="56.88" as="geometry" />
        </mxCell>
        <mxCell id="hOGsSKHKUl2PJO7qdBfS-24" value="" style="shape=flexArrow;endArrow=classic;html=1;rounded=0;fillColor=#cdeb8b;strokeColor=#36393d;entryX=0.5;entryY=0;entryDx=0;entryDy=0;" edge="1" parent="1">
          <mxGeometry width="50" height="50" relative="1" as="geometry">
            <mxPoint x="357" y="357.94000000000005" as="sourcePoint" />
            <mxPoint x="388.66499999999996" y="358.44000000000005" as="targetPoint" />
          </mxGeometry>
        </mxCell>
        <mxCell id="hOGsSKHKUl2PJO7qdBfS-29" value="&lt;span style=&quot;background-color: rgb(213, 232, 212);&quot;&gt;Dense Block 2&lt;/span&gt;&lt;br&gt;&lt;span style=&quot;background-color: rgb(213, 232, 212);&quot;&gt;1x1 conv&lt;/span&gt;&lt;br&gt;&lt;span style=&quot;background-color: rgb(213, 232, 212);&quot;&gt;3x3 conv&lt;br&gt;&lt;/span&gt;" style="rounded=0;html=1;direction=west;whiteSpace=wrap;fillColor=#d5e8d4;strokeColor=#82b366;labelPosition=center;verticalLabelPosition=middle;align=center;verticalAlign=middle;flipH=0;flipV=0;rotation=90;" vertex="1" parent="1">
          <mxGeometry x="367.33" y="331.57" width="99.21" height="56.88" as="geometry" />
        </mxCell>
        <mxCell id="hOGsSKHKUl2PJO7qdBfS-30" value="Transition Layer&lt;br&gt;1x1 conv&lt;br&gt;Avg Pool 2x2 / Stride 2" style="rounded=0;html=1;direction=west;whiteSpace=wrap;fillColor=#f8cecc;strokeColor=#b85450;labelPosition=center;verticalLabelPosition=middle;align=center;verticalAlign=middle;flipH=0;flipV=0;rotation=90;" vertex="1" parent="1">
          <mxGeometry x="457" y="331.57" width="96.85" height="56.88" as="geometry" />
        </mxCell>
        <mxCell id="hOGsSKHKUl2PJO7qdBfS-32" value="" style="shape=flexArrow;endArrow=classic;html=1;rounded=0;fillColor=#cdeb8b;strokeColor=#36393d;" edge="1" parent="1">
          <mxGeometry width="50" height="50" relative="1" as="geometry">
            <mxPoint x="480" y="489.47" as="sourcePoint" />
            <mxPoint x="450" y="487.4100000000001" as="targetPoint" />
          </mxGeometry>
        </mxCell>
        <mxCell id="hOGsSKHKUl2PJO7qdBfS-31" value="" style="shape=flexArrow;endArrow=classic;html=1;rounded=0;fillColor=#cdeb8b;strokeColor=#36393d;entryX=0.5;entryY=0;entryDx=0;entryDy=0;" edge="1" parent="1">
          <mxGeometry width="50" height="50" relative="1" as="geometry">
            <mxPoint x="446" y="359.51000000000005" as="sourcePoint" />
            <mxPoint x="477.66499999999996" y="360.01000000000005" as="targetPoint" />
          </mxGeometry>
        </mxCell>
        <mxCell id="hOGsSKHKUl2PJO7qdBfS-33" value="Transition Layer&lt;br&gt;1x1 conv&lt;br&gt;Avg Pool 2x2 / Stride 2" style="rounded=0;html=1;direction=west;whiteSpace=wrap;fillColor=#f8cecc;strokeColor=#b85450;labelPosition=center;verticalLabelPosition=middle;align=center;verticalAlign=middle;flipH=0;flipV=0;rotation=90;" vertex="1" parent="1">
          <mxGeometry x="373.00000000000006" y="460" width="96.85" height="56.88" as="geometry" />
        </mxCell>
        <mxCell id="hOGsSKHKUl2PJO7qdBfS-34" value="&lt;span style=&quot;background-color: rgb(213, 232, 212);&quot;&gt;Dense Block 3&lt;/span&gt;&lt;br&gt;&lt;span style=&quot;background-color: rgb(213, 232, 212);&quot;&gt;1x1 conv&lt;/span&gt;&lt;br&gt;&lt;span style=&quot;background-color: rgb(213, 232, 212);&quot;&gt;3x3 conv&lt;br&gt;&lt;/span&gt;" style="rounded=0;html=1;direction=west;whiteSpace=wrap;fillColor=#d5e8d4;strokeColor=#82b366;labelPosition=center;verticalLabelPosition=middle;align=center;verticalAlign=middle;flipH=0;flipV=0;rotation=90;" vertex="1" parent="1">
          <mxGeometry x="457" y="460" width="99.21" height="56.88" as="geometry" />
        </mxCell>
        <mxCell id="hOGsSKHKUl2PJO7qdBfS-35" value="" style="shape=flexArrow;endArrow=classic;html=1;rounded=0;fillColor=#cdeb8b;strokeColor=#36393d;entryX=0.5;entryY=0;entryDx=0;entryDy=0;" edge="1" parent="1">
          <mxGeometry width="50" height="50" relative="1" as="geometry">
            <mxPoint x="216.66499999999996" y="488.44000000000005" as="sourcePoint" />
            <mxPoint x="185" y="487.94000000000005" as="targetPoint" />
          </mxGeometry>
        </mxCell>
        <mxCell id="hOGsSKHKUl2PJO7qdBfS-36" value="&lt;span style=&quot;background-color: rgb(213, 232, 212);&quot;&gt;Dense Block 4&lt;/span&gt;&lt;br&gt;&lt;span style=&quot;background-color: rgb(213, 232, 212);&quot;&gt;1x1 conv&lt;/span&gt;&lt;br&gt;&lt;span style=&quot;background-color: rgb(213, 232, 212);&quot;&gt;3x3 conv&lt;br&gt;&lt;/span&gt;" style="rounded=0;html=1;direction=west;whiteSpace=wrap;fillColor=#d5e8d4;strokeColor=#82b366;labelPosition=center;verticalLabelPosition=middle;align=center;verticalAlign=middle;flipH=0;flipV=0;rotation=90;" vertex="1" parent="1">
          <mxGeometry x="283.47999999999996" y="460" width="99.21" height="56.88" as="geometry" />
        </mxCell>
        <mxCell id="hOGsSKHKUl2PJO7qdBfS-37" value="" style="shape=flexArrow;endArrow=classic;html=1;rounded=0;fillColor=#cdeb8b;strokeColor=#36393d;" edge="1" parent="1">
          <mxGeometry width="50" height="50" relative="1" as="geometry">
            <mxPoint x="510" y="410" as="sourcePoint" />
            <mxPoint x="510" y="440" as="targetPoint" />
          </mxGeometry>
        </mxCell>
        <mxCell id="hOGsSKHKUl2PJO7qdBfS-38" value="&lt;span style=&quot;background-color: rgb(225, 213, 231);&quot;&gt;Max Pool 3x3 / Stride 2&lt;/span&gt;&lt;span style=&quot;background-color: rgb(213, 232, 212);&quot;&gt;&lt;br&gt;&lt;/span&gt;" style="rounded=0;html=1;direction=west;whiteSpace=wrap;fillColor=#e1d5e7;strokeColor=#9673a6;labelPosition=center;verticalLabelPosition=middle;align=center;verticalAlign=middle;flipH=0;flipV=0;rotation=90;" vertex="1" parent="1">
          <mxGeometry x="102.99999999999999" y="330" width="99.21" height="56.88" as="geometry" />
        </mxCell>
        <mxCell id="hOGsSKHKUl2PJO7qdBfS-39" value="" style="shape=flexArrow;endArrow=classic;html=1;rounded=0;fillColor=#cdeb8b;strokeColor=#36393d;" edge="1" parent="1">
          <mxGeometry width="50" height="50" relative="1" as="geometry">
            <mxPoint x="182" y="357.4100000000001" as="sourcePoint" />
            <mxPoint x="212" y="359.47" as="targetPoint" />
          </mxGeometry>
        </mxCell>
        <mxCell id="hOGsSKHKUl2PJO7qdBfS-40" value="&lt;span style=&quot;background-color: rgb(255, 242, 204);&quot;&gt;Conv 7x7 / Stride 2&lt;/span&gt;&lt;span style=&quot;background-color: rgb(213, 232, 212);&quot;&gt;&lt;br&gt;&lt;/span&gt;" style="rounded=0;html=1;direction=west;whiteSpace=wrap;fillColor=#fff2cc;strokeColor=#d6b656;labelPosition=center;verticalLabelPosition=middle;align=center;verticalAlign=middle;flipH=0;flipV=0;rotation=90;" vertex="1" parent="1">
          <mxGeometry x="17.999999999999986" y="330" width="99.21" height="56.88" as="geometry" />
        </mxCell>
        <mxCell id="hOGsSKHKUl2PJO7qdBfS-41" value="" style="shape=flexArrow;endArrow=classic;html=1;rounded=0;fillColor=#cdeb8b;strokeColor=#36393d;" edge="1" parent="1">
          <mxGeometry width="50" height="50" relative="1" as="geometry">
            <mxPoint x="95" y="358.9800000000001" as="sourcePoint" />
            <mxPoint x="125" y="361.04" as="targetPoint" />
          </mxGeometry>
        </mxCell>
        <mxCell id="hOGsSKHKUl2PJO7qdBfS-42" value="&lt;span style=&quot;background-color: rgb(255, 242, 204);&quot;&gt;Fully Connected Layer, 512&lt;/span&gt;&lt;span style=&quot;background-color: rgb(213, 232, 212);&quot;&gt;&lt;br&gt;&lt;/span&gt;" style="rounded=0;html=1;direction=west;whiteSpace=wrap;fillColor=#fff2cc;strokeColor=#d6b656;labelPosition=center;verticalLabelPosition=middle;align=center;verticalAlign=middle;flipH=0;flipV=0;rotation=90;" vertex="1" parent="1">
          <mxGeometry x="195.79" y="460" width="99.21" height="56.88" as="geometry" />
        </mxCell>
        <mxCell id="hOGsSKHKUl2PJO7qdBfS-43" value="" style="shape=flexArrow;endArrow=classic;html=1;rounded=0;fillColor=#cdeb8b;strokeColor=#36393d;" edge="1" parent="1">
          <mxGeometry width="50" height="50" relative="1" as="geometry">
            <mxPoint x="771.3100000000001" y="410" as="sourcePoint" />
            <mxPoint x="772.97" y="440" as="targetPoint" />
          </mxGeometry>
        </mxCell>
        <mxCell id="hOGsSKHKUl2PJO7qdBfS-44" value="&lt;span style=&quot;background-color: rgb(176, 227, 230);&quot;&gt;Softmax&lt;/span&gt;&lt;span style=&quot;background-color: rgb(213, 232, 212);&quot;&gt;&lt;br&gt;&lt;/span&gt;" style="rounded=0;html=1;direction=west;whiteSpace=wrap;fillColor=#b0e3e6;strokeColor=#0e8088;labelPosition=center;verticalLabelPosition=middle;align=center;verticalAlign=middle;flipH=0;flipV=0;rotation=90;" vertex="1" parent="1">
          <mxGeometry x="107.00000000000001" y="460" width="99.21" height="56.88" as="geometry" />
        </mxCell>
        <mxCell id="hOGsSKHKUl2PJO7qdBfS-45" value="" style="shape=flexArrow;endArrow=classic;html=1;rounded=0;fillColor=#cdeb8b;strokeColor=#36393d;entryX=0.5;entryY=0;entryDx=0;entryDy=0;" edge="1" parent="1">
          <mxGeometry width="50" height="50" relative="1" as="geometry">
            <mxPoint x="392.66499999999996" y="488.44" as="sourcePoint" />
            <mxPoint x="361" y="487.94" as="targetPoint" />
          </mxGeometry>
        </mxCell>
        <mxCell id="hOGsSKHKUl2PJO7qdBfS-46" value="" style="shape=flexArrow;endArrow=classic;html=1;rounded=0;fillColor=#cdeb8b;strokeColor=#36393d;entryX=0.5;entryY=0;entryDx=0;entryDy=0;" edge="1" parent="1">
          <mxGeometry width="50" height="50" relative="1" as="geometry">
            <mxPoint x="304.6649999999999" y="488.44" as="sourcePoint" />
            <mxPoint x="272.99999999999994" y="487.94" as="targetPoint" />
          </mxGeometry>
        </mxCell>
        <mxCell id="hOGsSKHKUl2PJO7qdBfS-49" value="" style="shape=image;verticalLabelPosition=bottom;labelBackgroundColor=default;verticalAlign=top;aspect=fixed;imageAspect=0;image=data:image/jpeg,/9j/4AAQSkZJRgABAQEA3ADcAAD/2wBDAAIBAQIBAQICAgICAgICAwUDAwMDAwYEBAMFBwYHBwcGBwcICQsJCAgKCAcHCg0KCgsMDAwMBwkODw0MDgsMDAz/2wBDAQICAgMDAwYDAwYMCAcIDAwMDAwMDAwMDAwMDAwMDAwMDAwMDAwMDAwMDAwMDAwMDAwMDAwMDAwMDAwMDAwMDAz/wAARCAFjAhIDASIAAhEBAxEB/8QAHwAAAQUBAQEBAQEAAAAAAAAAAAECAwQFBgcICQoL/8QAtRAAAgEDAwIEAwUFBAQAAAF9AQIDAAQRBRIhMUEGE1FhByJxFDKBkaEII0KxwRVS0fAkM2JyggkKFhcYGRolJicoKSo0NTY3ODk6Q0RFRkdISUpTVFVWV1hZWmNkZWZnaGlqc3R1dnd4eXqDhIWGh4iJipKTlJWWl5iZmqKjpKWmp6ipqrKztLW2t7i5usLDxMXGx8jJytLT1NXW19jZ2uHi4+Tl5ufo6erx8vP09fb3+Pn6/8QAHwEAAwEBAQEBAQEBAQAAAAAAAAECAwQFBgcICQoL/8QAtREAAgECBAQDBAcFBAQAAQJ3AAECAxEEBSExBhJBUQdhcRMiMoEIFEKRobHBCSMzUvAVYnLRChYkNOEl8RcYGRomJygpKjU2Nzg5OkNERUZHSElKU1RVVldYWVpjZGVmZ2hpanN0dXZ3eHl6goOEhYaHiImKkpOUlZaXmJmaoqOkpaanqKmqsrO0tba3uLm6wsPExcbHyMnK0tPU1dbX2Nna4uPk5ebn6Onq8vP09fb3+Pn6/9oADAMBAAIRAxEAPwD5j8T/APBPfwv8RtL8C61pOj+Drbwv4g0AXVrc6do1up0eWPet1bXwZQ81zFICMuzM/YDGKyfEX7LXwrSxbwno/hzw9DqmlrOmr3mo2Vp5zs0ayR+SyrlG4f5WxjOBk19f/th/suePP2P/AA1JD4J1a3vfCPj77Nc395OCt1a6ukXlvOEBwFmVY5HClf3obnBr80vF2l+IvAvjRm1rXrDT5FuDcRNe6ust04PPzJCZGLepPHoa/JKP1qu3Tp1uXl1Su39/V/0z9TxcsPSoqoqacnvoktPyv+B03w0+G3w/t9B1ia68MeF9SitNMOpWfnaVbLM6ggqHBQlXbAwrZBBGeCa9xk8AfCHxzYXEcnw+8A6Xrml2UN9FaP4asrOTVrKXPl3EaxxBCy8q69eM84rzbwPr/gP4r213dCTUbXxHJaPBqjH5LLWYiCN0CsMrKE3DDH5ioOM5B5HxR8QY7vStN09dY1ewuvh/Otqpnj81biLduVX24LBwTtI/KvIxmCxOKlUpc84Seu70uvxV10XW/Sx42HlCNKpTcVaWq269L+R6D8XPhF4B+G/wD0ltL8D+DVv7CdJF1C40G0uW1YM7GYZKEnY8gj2k/KEHQVZ8IeDPhH4u+HOqX194D8H2t74fhTUZNmg2qxzTbcMMomWgWRtjLnblRkYrN+L3xtt/Enwy/sW+Om2uoWtzZ6hoU1iC39oRPGCUlwNqnA+cjJLAZ5Br0z9lGPQpvh/cW+veEzdaRfedaajqiri20fzMl7eY7gQsiEgyheHxgHII5amHxNHLVXnKfOpX+J3fVrfrrp0bHh5RjNQhBPlSdrX0tr+f6nJfBf8AZn+Fo8D6pZr4D0/XNU8WW4vNOgvtMtWv7BeJkCN5YALsNq7QBsOCME1i/ArXfh/YfFjxdpPjn4UfCvUvCV87WQNx4bs7O40K33bUlimtkEhmjzlm3fOeDmvYdcsfh38LPHt9ceG9b8SSeOtCZYLWHUEX+yry3W0UWwhYDcrBQVznBJx15ritH0Lw1dfA7QX1a0mt/HWqazJC9vj5dQsIX8+EyYGVBcqrt1CR89jV4DM5VOeUqkmpctnd3V1fTurWu1oe1RjhZU1CEVeO6to+33t/gZfxW/4J+eCf2ZfhdL8SvFsWg+JNJ/tt9N8OwaJ4dt/7N1e2cAwz3MmNy7gG4ABDxsueee5/Z1/Yd+EeueF7nxN4h0/wneeINR186LHYwaJZJZFgsk0ASJoyke5FCsAoLHoa9C+CX7R+ieI/gFqkKxeH/sv2pdK1o203mQ+F5ZG2R38KsPntGbgIf9XKgGcMK8o1v4MX37MHiXXvDOpeIV8QHUDbazp+oCzmt1vpY3V1nieQbJCcEfuydvK8VeYYzGV8LOk5yhNW1vur6W+er7m8sDQjtBSVnb1S3fe+3lqcF4n8XfBODwBJb6P8IfBdxqWi+KItJT7VpFskl9E0Ly3MjkLuKq3mKpBwgEfHAr3DSPhP+zH478MXWj6T4X+Gltri6cjvZavo8VnfIwUM6oyopZ3HKsuSrDHI4rzTW/gd4L8X/Ga71rQ2t/CuteHzPfaloNwCtjqcu4Ml1azMduXVF8yAncCzFMgkDzjUP2WfiEvxp+HPifxQYxp2uu2pQ7pF/wBEVpZHKcHJXzGZgRng4raNalWwft4VpU2ouXvN3bte29mtL3Ttrp2OSeOcKTrSoRkttElZd/LdfcH7R/wc8BeGvhvqmoaP4P8ADUtzeataaJZxW+kQpIHHLgYQFWYEAkdfWuL1T4Dr8LNfguL/AMG+G7HUtLeO+uND1PQYZJJRlH8to5EJKyIQwH3QD3zX0l8S73wvd+NPCOj6ba3HjDT118T+a8ot5ijEANgcSiMiQDBB2qCelVf2+/A1r8OviPb6nJdeItSvdXia7uJbG5EbRW4kARPnBYII9iAqeMY7YruynOJJUsvd7yhzXb3tZNb3Xc5qmDpTXPBLRR22T6nF/tF/swaD4N8KLqnh/wAC+DG8J65crfx3H9iQG/YzRNN5KMQfJihXCbeATzivCvDmo+GtBv2t9X8CeE5re1ZRPKdFty0ETEAkkLhmGepz9a+v/DN1qn7Tnw90fS7WSz0/w74ZW9OqzXUn2ezsI/LWW2+0ybvmjIDRlxyeehNec+J/C2keKdX17SfD9z4d0nw3eW8Ntq3imWwYR38inLJYRM5bygFGCTlyedo4ruweMnySp4i911u9NfzsVjMBTnNTo+lreXQ0fG/7Nul/DH4Z6lqWtfCfwXIum2PlNBb6RaQXV1bTYlguW82IvHLtbhk+8MZyK4j4cfsv6B+0N4M8S2ej6T4M0e4kWyuYbm90qximtY442aZC0aAISVAymNx9ya0vGvxh8S+LbCx8PaeNT8QeG9W0qTTI5tSIW7tRbuRD5rk/LhAvHRVr2S58eeHvgf8ACDwj4Rk0yC3v4bIRqYb0Xst7cP8AvWhSTH+paUBl9N2B7/P4rMMZhcLH2bcqspe6rt6J3d18tf8AI5KkqM6cUo6LTVLV+ttjk/gN+yn4UvPiZpXg+4+EXhXx/b2djbS6rOtrBp93ayyMxDmRUxzGpPlsrDAyQete7eC/2FfgL4R8MHHhDwrp8On306LB4n0ix1C7dWIOXkjRpCqkbVDqABnpmuu/Zm8Ma1c69Ja3WmaZBqniW5ivrgpcLDKyC3CpEX3KWkALDkjCjNaL+CrH4Q3WpSQNpfiHxLqErPeRW9z5dpAv9x5l5kZcDhD+NVgcVi5yUOd6avW95Pf8/krHqRweHoUlT5U5a3dvml/XocpZ/sNfCPU7vzNO8C/CHULRV/10GlWZUZOcurR5Xn8ccVe079gv4bXF7FI3wv8Aha0MgVWUaFpy7XBJJ5UfLjHT1rotRFlrVtDdR+HdK0ua3hWKaSzuZY9+TgMzFskknGDmsu/+0y6d5KzTR/Ycyxi4kMsaArtZi33iRjI5xjgivooVKzV3Nr1/4DOScKSdlFf18h0n7Dvwjs57Vp/hd8L3k8pmmiTw9p+JCOgGI+uPzqNP2Qfg/bxSW83wf+HaXrlUiU+FLJgSwyuCIvmJ9BVj4aaz4kvdC1CW4sdP1y3sYiVudFuVuGXsq3Fv/rIwc5EgBTg5Ir1e0RfAHglru4kX/hKLgoi25myLKNsfuVydolfnLfwggDnNaRrVZK8Z3+Zj7OknyuNvkeRWn7DXwW8N2MzSfDb4calefaGNwh8O2RjicHmJP3fRQcH1IOOlV7/9i/4NxD7Qfhf8OT5zoIAfDNlGidSGOI8EHBHzccV6dHerqUVu2mhb6aW5NqLdQqSWbkZdWxyxGTj1rY1Hw/q2k+HrrUrezurrSbZ44WuJrfaowRuMgPGR0GRjk96mU6tvjf3sfJSvpFfcjxDTP2Mvg7q1tNbx/DD4cwz8hJpPDVl5aE52n/VgsD7cYqZf2GfhfeSx26/Cv4cGUuNyp4XsdwjA/wBYP3fPzcEenvXoNvdRvKki28k1vfTizM1rESzk8/KoPy7dpCngHmtaHSNstmZDeXSW4ljsJdpAlLbchyuDgY6isfbVV9p/edKo0/5V9yPLLf8AY7+E+h3HmL8JfhjeWtnM0N9HN4VsQwdGwAGaHgHrkdeKpat+yD8Jp/Fkdu3wc+HUemXcyxTy2vh2yzApU/KMxgrzn5l5445r1vxFY6ppNv5V5a/Z2hucxA3JEF0rZycjkkADGQKTwR4fTxHqk+pNcXqWdwqCVJnKRzNwR8jfMhOFH51SxNVRu5P72TLD029Ir7keM/tP/Ab4J/Cf4Y3d03we+F9nHZ2vmG5i8M2m6PjapY+Xn7xHORkkV+fX7X/gXwH4HvdP0nTvD3hfT9SsdNtrq8S1sIfkeQB1Bbbl8qcnOR8w9BX25+2H+0/p/wAL/wBqHTdJ1S3vpLF7GRtTspESS1vYXXbJbOjcOu0np1OCCCK+VP2sV8M/FT4V6bq/h+Oxs9WjFzZajYzXAF5CsJ/0WUZ5MZgCqRnIZeetdWWVq8cRGVbm5Zdb6eX6nDmFKlOjNUrcy6W1/rY+en8AeHLpreG3stPZJgGNy9pGpfPbAGBiqFx4A0X+0RbrptjvR8O4t0CBOxIx1NQ2V5eaZDbySwxzWflc7D1Hrj1rSnjkbxcLZYJYFuvLDRltjAHnHPQ49a+8vyrc+L+LodJp3wP8O3XgXVNS+x6S1vDIFG62VJhJ/dVsfdPP5VjR/DLw7ew6fYQ+HbW3uI1T7TcMyyfaPmO51OMKNpUbfUE16CIrfVfhrqHlqr/ZJojbzx5i8zHDKwB2n1DdciobHw5HeXzXEEjKsyKghlQKzZOFHvn1HIrzaNZu7k3uelWorSMUtjk7T4c+HTZ3FxJoOjXiwsVKRRRoyxqQGbGOWHsfwp4+GHh+K98pdI0m4hvm/wBGZ7KOMqeCVJA9Dwe9djB4fm8GaFcW7R297GrJcGVTuUueqcjAYjt34rL1y7h0uGOGJJmsmk84M6cDd/DjtwMcdxV+0d9GZ+zSXvIsaX8LvC9p4rt0u/Dehtb7AIyLGIpOxGQOmOMdT1qG98AeDxPHDeeH/D9nBJdK6XQsETy16EMAvKkjHHQ8+tOuJw1isNr8qoyzwCNsuMglOPx7fStDU9abUJLVZbGWBZLc2727nPzZwT04OeR6VL5nu/xNlKKWi/A5XTfhr4ft/EH2a88N6aYJZWKyxWkcgUdl4GOfXsKuav8AC3wZpwjT+ydPtZLcLLJJPZJtUlsfNhSCMY4reuJDol7bxwwyzNESqykfKXYYAYjjPp61qPqr+M/DMVra2lu2pTXKecXA2njBzjqBjpx+lKVSe+tvUUacdVbX0OP1zwFoXhfxHGsfhnw7qOlqPMlK6fCxAYckHbnbkcHtmuguvgX4Uik029s9O8K3huo0vEt4beGYKpb/AFLjby4Xlh9Kd4g0XUoNatNkv+phe1eIH95bKhIII75yCKd4XkuXmiaG2js9sixSu8ZUSDBXPtjjJHrWftHy8/MN01GXK0Z+l/BzwZqN6sTaHYwwyOwuGXT4pDADkAfdBBDY5XgCtSL4I+HbK2toYfD3hm+uIFIeFtPgD3ce776MVzuA7nrWx4B0X+373ULG/vZLGGOVo3PEbbx8w2nsfXPBxUnh/QtJtfEknhvXmvIdW0mbdayk4kmtydwUNnaCFy3P3uK8nEZrFKUbu8ei107lR5V0Xr+hyPjv4WeGImjuLXw/4fW1+zmSFotLjRpSCcs428ehB6GvM/Bvw30fxJpupTXGj2cbWj7onECKsozjZ93Ge/4V6b8Sl1gjXNF0uNry1a4za+YVSYJnJPJ4BBB/P0rnvA15eJZf2Tb2s811fQ+Y0SDczSJk7gO2ADn1r0cBUlKjzc3br0/Q56zjOre2hR1v4f8Ahq3VZF0vQ1a3RS0S2Ktubo25gMe/TvXceCvhH4Mn0H7c2g6HJtdXYT2ULRoB94Z25I6HHeuT0HWfto8jzFhuNzLNDLxkMQGX25HSvQtJeH7Bc6XEI9oLsqyvhlzwMdjzngjsOldNaTS3ZpQim72Q7w/8HPAtz4zvLm/0Hw/DDb2q3sFnFp8En2gHHMagbXX1U8gZ4zXPr8P/AARquszpHonheyjvLt0gtZNOUSxg8kKSvIU8YzkZHpVq18FeIPDiBb6HVNFSyaNmSezeG5hV33LLtIBKnH3hxyKbNoi/EOeddWhuHmtZGK7gI5Czc7wSfmBPJx0rnp3u25to6qklyrlhZ+n6lC8+HegDULnT18MeGRJlJoB/ZkKSsTwI8lcHG05A65z1q3rXwi0Pw3b6eL7wx4WuFvImkhkisrdCcfwkhcEjgHI5JqDVNE1jwNqGoR6oTcw2Uix75MHYu3qpzk49a7LUfHNt45ht/tWnvDYLbrYtcrEGFu/LbtmB8zcHcvfn1qqkqkWuXVdSacYST5tH0M3wH8I/h5dX9j9v0XR5NNvC0TXI0qFZFndcoApB4R+CD94dMV6T4Z8AfDHwP4MZvEHgXwffasxBRhoFv5JjVuGBCHkg4b8K5PQPg9c+Jbqx0uz1GGT+0p1+yyyOEEz7dyoT+HHcGo/hybzwr8QJ/D2tO0MdxKF33YYwRIX24YHkIRk5HYVy1Kl20pt21tc7KdNpJuCs9L+Z61pei/Azx8+h29j8LfC/2+ZktZ410O1h+0SbvlMbbNuXBxg9am+Lv7PPgvRPDKR6b8L/AAjZ30N5HHcyf8I5bSFoz1wrRnBGcHb+vBrhfDfwxPjn4n28OjW9rBZbXkntraRxbRhOPMAbldzAFT6mvrp/hZeeCdN0fUbrUBqUCSG3urV7gR3FvG6B4ZBjnbjg91Oc1yVKjhJNSf3s6adPni1KK+48p+Iv7OHgC1v9H1CD4S+B7axuFgktr2LQLNbSeRwBJDMpi2r8wIBI4NbGtfsofCW90+x1DT/BvgC1nigANjdeHLFBdeYAvUKc7Wzg8HIJNeg+J/HFx4m8JWPhu8068W100xGBCzM4VpOXXqGYZPqflOAM1l6NpbLrUdvb3FjGxlW0ltJoUm/0fJDtHIB98FiSMA8Y7VHtqjWrf3mro076JfcYXhD9kn4S/wBt3cJ+HPgG/wDIic/ZrjQrKN96Nh1DeXyvow5I9Kj1z9kj4Uzwp5nw++H4uGVZPKi8O2lv5aMcHfiNcYwO+efc102nana6d4g1aS3t5Liz0rEEN7BHK8jnO2ORkOMKMZP/ANcVq+OtTbxvplxZ6vHNcRQwLPb3EL+W00SHAkkVgGwvCcH+Luaz9pU5vif3l+zp8tuVfceV61+yJ8Nbm9ht4fhr4FtbiK3EchudItoUkcAsJflT5dykcc5IpIf2d/hZ4IkhF98LfAk9naRQxCeTQbWVbtm9W8s7S2G+ZhweK9GvdKs/GBsPtLX999uQnVbWbhoJgNrMdueg6Y4xtNN8dzDUPD+paLa6Smm+cVt5Jo5EknO5B/pAH3chVZdpyF28kbhVe2m9Lv7xexindJfccvpv7FHwb8V/Ey602P4d+FNO0/yluJUTSoJHgaSMFVJMf3Sw+Uo3qNtch8Qv2Dfhh4P8Y6Lar4U0G3u4YUjmmm0q2ktLqQZATYsZBZvlwWGTyM5r1Xxf4btX8K6PeC6vdHksrdo7l9RkME12saB227c72YMNvOc47iofiLqknjC5tZPLS1sLoxpFGhbzhhSRHJIDgkqVO8AEfMCRiphiKu6kyp4ens4o+edR/ZO0r+0J/J+HfgdofMbYR4fthlc8fwDt7UV75N8fPGWnTNbx+D1aO3JjUpcsVIHAxmEnH1JNFafW639Mx+q0P6X/AACb9pj9pTSfih8HtY8B6faa9F/wk0USXuo3dg8c+jQ7hJ8zzZAZsAffBwc+mfiXWv2c7P4jNqsk3jfw3Yx+HdPijRYirG0tUBEZZVyWGcbnUthnyx+YGuq/aE0qb4n/AAIH9jW+oapdaDqQu459PnluBdWbJtK8/KVBwUdlDEAjgnB8V+HpkXX7fVNJnuLe90mPzJoLkFbiVGG0gJjleSGB+Ug15eUx/cOtSny2bTVluvXuVjMX9Zq8kYpxel7td0/uZ6BoXwl0fxv8P5bHSPFEs02kwRPIkULIsN0u8pIrY5V8MPZiM9qNF1+CT4Vyyaxpouda0tkhluGBMMsTAqC64zuXeQGz8pY+ua9E8DfAub4t2mn6p8K44bPxdGyW+reHGuPJg1SGSRR5sRckLsPOOQteN3Ftr8v7QumxeG7SC4udQlk0ya1AIeaUMRLG4znaCDzj5e/SpjF16jtLb3leyatunbo+hNWnUocvMldaaK6aezV+3U3fG1n4P8KfBaw8M299aSeLPtyX1vOLyVo7GHkG1SM9C/yszvz8qqoxlj2P7MF7480vxFrFnpH9rWKyRpq1nZCQRm6uSCiqNw2uroXGG4I4HOK89/aG8AaX4T+LulaPZKrR+G4RDO6Hd9puScu7P1b94doPcL6V1njn4meHfh9Lpui602qXetaTb295cT6NceVM8yEiK3Vychoc/My/xcc7c0VqTnTjCCcua71V7a9io0vZ4j28nyqOnk+ln97PRPCGuap+0lp+sf2d4UXSte8M2y3trDcyLawDawX5i2AkYZxgMQu4dVya8F+KPx68VXt7B4Q1MaloOt6HZ3dvcPeIYroNNJvlBGP3SsoXAOQQo7EGvp74J/EPRdW8Bz6/pGi3+jvJZOZrC6u/tUkkO5YUZm4BEhSUnjGPpXOJ+yzqnjq58UX2raZean8PfDzSWVv4yFszTeHYpD8lpO3Wa2GdoxkxjlcD5T4OT1MLSxtenUp8vK011s7JtLy1vbrcdSnKM26L0bV302T+Rznwr8V+E/2Pv2fNWj1ux1rXPFHiSD+yry11Cx+zQ2UV35coDwNyykCN1cnBJUrxg1V0b9qrZ4sXwL4suPE2reGfDaN5WlNIrXVpHKF3fZJPvxNtO7GSBj3NdZ+0R4PtPiX8N4NNuNQhuNc1u2RprkTNJLZR20UUNm3PO3hwFA+ZCemBXhvxl+Een2mqwa99m1Oa8t7aztGs7VgrXEixLE8rOQW2sy7iOoDY969jA4nCYyPtat+ad/k9LeS6q4qmY+xVNU7aJaffe/n1Pe/CGmfDjxd8R/DPjrVNS8Rx6PIVsbe2nWF7iaOKOQJKV3ANMdseSCMjOCuc10X7RfxIj0Lw/odnpmnubG3t5b211e6jT7fYzFEhaExofLj++JZArFTtHpk+EfCLxTffFeK90vWNNtU02xEaaLYhVhtEkhzvhjByzBslnZupJ55r0TQvEC2PwAvNS1hI7jT9P1NrXTSuIsgKkc7SKOZY082IsV+meMV87jsH7OcaE1zezko2/uT2s/K9iYyVWg4LTX70+uvfZehX8JNafGj4CyXkPhtofEfgfWLK3sr/AEOCT/idh8v5ssCjahBUjfHhfmJYdSfYPjlbR/Fz4fTa/wD2HZ+LfsUaWzadHHC2oXWJ9vlKxOcAso2AFwUz3rxXTJPG2p/ATxZrl9HqGqySa3a3tuLSb7LaXVvBC4O9gVEdqcjB53lRwap/Df4J+MpvCGkfEDwTqWteIvDmoaqYdQt7W7SS78N3YyxidVA8xWO1klwB6qDzXc8vU8V9cc1Hlk4pdNVFtJ6dU/nc6su5lOSad5aNLouj+X5HUfBj4mW+tarrXgawuri1tfFHhu6RtKltEgttJMQV9qNyHbyxNuLEnKjpXlvjrxtoPjvV0+3619n8OrEuni8jgElwlvGwPlQoSArnGScqDkc16ppPwF1rw78ZtPs9Os7bSd0Bg1Oa+kDBY/JL5G3JSWRXEZGcHywehzXHRfD7wj4CtdBl1K6XwzdWw8mTU7SWKaLxCY5G37EmQtDPFyjtjb8o5PFelRrUIS51d3StbV7PX8Oz01NsVOpS9xqyvq+y+9er2Pc/Getw+Lr2613Tfh3Zw+ALq9i/4RFULrFeeXEIWDkneszLukwxPIOMivIfjl8MPEXibxtap4REdtr2mynRVmjTfKsTMomEORhpVU4yCDjIGDmvRrXxNb2PwJ0+GaSz0fSpEtriSa61SSeQXSTsYpdvIaadNwZoyE2qOBXbeA/FNrb6xB4O0S2tdWt4bR9btdUvMpHpO6QMEiAO5mAHzMTnpivmsvrcuLlWpxuru3ps/LW2q8+x1YXD066cbuzV0+zerS8tEz1LxX4C0LTbmwshI2uWehwRJFd38OyS+ufleS5kT+BztIx6HHepNQDeEvCc2p3NnYi3vGV7KIzRxSXTqSWMankx7cncQFyOteN/Ff4meKvib4P1C4kXTLNWnWDzLRn36jtz5hXcfl2heSvBOBXj2o393dXMM1xNcTeVAI0aRjIyxjjac9FHPHQV6dSt9XXJTj6m2Fp05xbUtP1+Z9GN+0Vptz4Ehk1COx86adrhbe3k82aNUZikcuRjcGCkEYH1rz/xR8RNS+J1yVvZY7PT2JZIhwgbuxPUt0HPAxXk+k6st7rUiQx4k28KsZI6dOOAPc9M17N8M/2Y/FXxH0KfW72ZvDnhuzZQ004O+ckbsQIcbiEy5boBjJ5APm42pisUlRp+6n2OerTha71Nj4C6TrGmfGLTZvDcNrNqOnwvPFLdK3kpkFNx2EEtk/Lk4zzXt8Pi2x0TxFqF94q+H+p67N9okYa1BqojaIk5RmikVgfpk4Ocd62fAfw+0f4R+EY9N0W1tTLeCS3E8zsLm/YpkMp5BI2kkH04xWdqCnT7i3F0L2RpI3VoxE7QyyrygyONxPevUy/LfqtJU27vf7zOjJQp8qWnmO8Bz+Gfhd4gXXdH0a4tdVuS0c0r3+8R4OdxAGHkCk/P6V23jL9oq38RWD6HDPrRu/ESuLpPOEiCNAN+VVQvKng5yOtcPors+htZJbx2stwCZL22YGeJmcIRgk/dGcjBwpPWrVtqln4eR/LvFiXT7h3eIAql8igkqd3IHQcEYyAeK7tb8z1fmVzaWjovI5vwj4a1LTXvH0nVNQWxh3slu1gJvs8YyWViGVu+Qcd8Zq3feOPHPhDwX9qtbHwnrdtcMLyDSRLJaXUnBxGvmghZMDhQf5Vt/DPUtL8UXjXDzzaVNsxHHJJvhyoODtUD5sfUFse1R+HUeyv7SPWI7K+0+ZpJbczL++8wrlWw3KuA2M4+vFbc/Vq5j7PonYwX+KzeJdN0y68RWmqeEZLq1dhBrcB8vd0cC4TKkgfL1BOAa7S2sdHj8EPeReILWRkiikZQ3miRNhBCtyCvTHcE9am8bx2vhf4O3LX4u7zTftMcMqtHmWNWfCDy1yJELZyyA/rXiP7beg2/wGs5PEmit9h0nUrJIruxij/0WckADy1/5Zy7j2xnoRnFc9S7Vo9TWMrayex89/tpaVpP7QPx++H40bUGuNet3hjvLeM+ZFaJO37ks/8AEfmVdo6FTXlf7S3wOtfBlpp+k+MtFTwnqmjm5sJraKY3OreKr9ZWUXIT/ljBt2qGYAH+ENWl4Lu5Phb+1R8L/EFzI02n3HjPTZbqKQ/PFF5qIqSD+8u5sgjknPevqv8A4K8/Afwzdf8ABQLxPe6fbx3WveIktda043E3kRROkUMZCFOXUNhiCRjmvdwqnTdKjCTd07d76t+iPFryp1HUrVFypNX7dLer/p6H5keC/Bl9pPiX/iZWd8LPS/8AS7mxYZYIv3Y24yuWx15wDxXafECyh8baqt7pum2813dq0t1CiFriPYu4yoeNwbLHaeeOOK7jx3pdnrPh2a11qGxtdatb/wA3VFtJMJOjc+ahz8x9VJJFeS+IfGGp2rXSaeALORkjW8VwWIjB2HcTleB09hXtRdarU5mrSWm+h5UpUaUOSDvGWt7avt6FrwW8+reGGGkX0b3tvKbl9OmTgRoMl8twT/s88V0en+Mrj4gX9j/Zuj280zzxxfYUGG3iTG1Oc44JAHTJrn4Z5hqmmaraL/xMFhd7hXC5BHAYD+IMM544IrX0/S4ZPEloPtMcd5dyLLD5IJ8hj/fAG4hucV1OK3e5hGUlpF6Gjq3iOFbK+tYYbi1ttaumfyJm3GGZBtbJPQZ6DrwKwFeTXlt7AnzYYZGAkkfYwLLkDn0P+eatXd//AGZ4ogtpGmjsofMYZi86MyYwAcnJHGDnpmqerk6mq7pJbO4hlWWMRrwVUfKPQkdOx4ojAJTuWtY8OtqOqCeGeGzuFlijCGXLoygYwvUofX1GKt63Nf33jG8W8d5bm8YSzTRj5cHC7kX3IGRxzUF/FNa6kt1czQXV2s0ckKIvAQpyT6dASvbOavaTZSz6n50nmTw2LloJY/m8yMk7omXp34aoci4328zG1HVzba2YXa8jtEl5lIwWK/LnHbHHFLFpqWs6yRPG0s2TNDBKRjByrKf756+nWrkuqrrE8VjGbV31C5ZUeXKhQ+MqxPYYHJ6Yr0rxP+z1Po3wkh1a1nt7m6sJQ1zEhEkc4UZLAgZCgf1qvaJWT0CNOTvy62ORN9fL9slmVpGuHSJ3K73dSow6n+E4Azk9RT/Com8RTTaaq30n2eQswjOT5Kngt6lQSOOoK+lXZ9c+12d5aslx9kktG+xFBu5cZI/PI9c9K534U67eeC5zNHHatdoDMZLgfLdxtztUnkOF7ccrXl42pKNOThbmHUrcmiPZNG0lrbwdNcwtJqseoR/Mu0bhcqQUXH3vu7vqcg9K5DTfhPp/ibwWbq11K8tPEX2i4/tCzvXKN5IP7tlYjIwDghuDxjpWr4Y8WXUemax9j+2WtrJbM17dM/lrFOD0JK4VsMhGO4bNdh8MNZ8Oan4Y1y88Y65fRx2ti/kyafHFJeahK6KIrfJGNquQxccAZ7mvjadSvRUlHdv8Oz6W/wCAaRalpZa/gfP/AMQTqOj6cg1fzLq4t4o7OK42YjWNBkRuy/xLuI5H4mneD9HtNcms9QSOaK6Z/s6yQhtu4gDAfgZ74znnitrxx441Sw08W+q6TBZXF8obzIXEiTyEYLHBI+ZeSOx7VzmjCzi1JtLt7m8F1eNC32OMn7O027Ks3QZXI4/WvqsLUqLD/DZva2q/DZHFTk+b+vkVtd+HN5Z+I0u2EkspmPmlzuJKt827vwMEg81Qv/F914a8X2OsFoY5JLyO8j/dbokccruToVBHI6Guz8WS3T+IofMur5xaxn7RNFFjbIPlJKHBwARnrzg07Vp5ta1DQ7Wx021jitoxbyCbc32ub/nucj5crxgcDB713YWtUkrV0tjo9m9WtHc7D9sX9vvxZ+17ZeHLu+t/DyzaTZy2FydMhZGutzKQHHOANpIUcLk1zOj3qx6JHaLo99JfzMkpmkkBjhjxnA45zwTk8YrlYvBuo6Zrsn7uGONpzIBH845B5XsRnGT7GtTTPFjalDIsNxJb32np5m1HBWbkKQMdRz09K6HTgoKNJaGkalRzc6r1NbUtSttWttLsZ4V8m+RmWR3XAAf5DnrlTkEHtgjNOutAhi8P7Y5LhrW1BaNoH3K+Tgs4Pvxn0Nc/pGvSanLfWuoyNZtaxeX58ce4biCRkY9gPqK2vBGtXVnYxyMip5YNvJFIQyuDjgK3Iz2PQVLpuK9DWNRTd+5taLrtmPCN7pupLd2erWTpNZpHB5iBVUF2Dgg9+nbAwa2LGy0628XaVDqsya9pKOpM2nNwXkj3eQXbDAq2FPUZBxmuNg1ZdL1LVrKTQxdXGqL5dlcNIUaxYfMzR7ThvlUjb6Gul8CaTDq2tNql1E1zpemILi68jbHLGxAIwpIJ2tg+uCSK55QWr/r5HRGTdle/6a9eh9N+HPAlrqunWKR6GdHluIoPtcVvOsb4X5ssc8+YuT6ZHPNdhr3iiLWbh4bDTrprjdDCs8I/1u6IoW3cgydORxjiqHw68c3HjO3i1S0t1t57WzlgsrgzBDKqoCEKk/NtAIBPJPGecVWtNbbTPF1uLMzW0PiC3Z7m2VWIs/L8vMinAI6ZyMYIrydZSsz1fdUbrqXbHxDaxaTql1HPcSLDHHcLGk3zlgAplGeVL8jB4Pbmk0PxDJpctjfTTQv9qwJbkxus2n5TaxJTBBVuckHkY5rqG8Py31te2UOpbm1YN9phliij86OJA6q8hwV53KGHHPHNU9H1658K3VlayW9xps17YyQXUccYmeeKVseVKHB5Py7WAB4DUc6ZXK0ZuktLq1jdabb/AGz7f9hYXIjY+XNGDv8Anj2/NvKjOeehFbPh46b481UXke/QrjyJIbuG7bes8RwDFGcdBJzzwD1wcVVe/utH8ZahqqjUtJubOX7DdWrx7ZLQ7CQ7Ow+YbXwQM5wOarLqP9imGeGKRh9sRjK6D7Z9nlKF5P8AbX5RyDjn1p77E7blnw1fW9m1vfWun/ZreORI5p4nO6UFjHsIJyc8cHpuz0qlLpmsalqGrT7dLW6u1c21teu0TRxo4eGSGbbtBYdR9RntUeq+FrfxFqmr2NtIbFVvJI7JYHk3SRj5Vk8w87gOeeVz3610WoazJe2kH2ixtVV2aOQsS0cC4/1jJx0O4sAcMeexpdSvXYnv/DkuneEbK8ddPbUG8qWCSWTzWkkUc5Q8r91QfY5zmtfTrFvE9/JpNzEZNRkH24SyWxSK4DQYTHA2hW+UY6nr61gweIb618N3GmWOn+XqmmyfZrO8Yk/amJwyOrAhdo3AN0Jce1ZviXxJa61Je340nW7XWbWzZYrQTZW3Lf6w7GxlCvIA4we+DWTgaKRzV7J4vgvZkae+hZHZTGLSHEeD05GeOnPNFdY/iC8lcs2mwyMxyXEG0OfXGOM+lFPlkZ8yPhzX/FcPw68NeG9Nj1W/8N6o1t51jqlrMI2tp49gCsvRkJP8Qxxj0qbx7P4u+G/hvSvF3jKw0HVbDxfbo93rugxKqQRuWTyLxUVVUv1YqAqsf7wNcL+0+dJuvEmj22o3n2eW208M6JbNKyo74yCDgZIxyDziuo/ZN+IXi/QNVvfDlpbr4p8FanEc6LeQswO5QG2Fh8mQOQeGPY8GvNpU5xyyOIhZ3u5J6XTbvyy6PZq+mh8/h8RP6r7P169+6/Xc9X/ZS0af4EfDXxn8Rtan8nSvDu6x8KzMf3t3vQbpQe4G5VB/vFvSvPtE15NH0fxZ8UPD9mln42ttNnhbSo42eJbqUAy31sTndtRvMkjyWRuRlScexr4bv9asdFt7Hwjd3Hw90+/MM3ha4dU+1EqIpIo8PlkRkL/KQQQSORXmf7UU1vpzXWueBYIfDOn+GnktbnTNIUhdNmdlLXSzzZkZHJKs7H+EDhflHDl+PpVKvtJfHUaj5abKVr2cn8rs7sI5rDrE13e+i7q21vQ8k+Bug3PxS8G/25qVxcXGneFbQf8ACQSxjfd6fBuKremP7zw5YFmGQD1xkGui8afCnXPhH4y03S7Gw0XxAuvwRXena0sK/Z5oJPlV4GzgKpzuLHKnOcGue8N6nczeJx8QvAK6pofjLw9GZ9f0aJR5F3bsCs11CvKSWzqSJ7c5CBiwBQnb6ToHjaOP4ZaJHqjWOl6TYvLeaXpyRMUs0lwWWNSxIVgAQCQoAFfRY6tKjPnirp6cvb+u+zXQ2jWpqjafxK1muv36fqn6no/gTwzb+FNJ+IDXlxBpuj6emmaRY3FsPtO6K3fakuwkAmRwzEbsYfnvWZ4xu9W1SZr27vnv1v7hp5RuZY3LNksI1OxSevTjpXJ3nxm8P33wv8QQLZaksLX9lHIGmCmcYkYMvBGMJx1HIqbwX8TtHuPC8ssk19aabZ3SJvu4hIY9w4UMpJbnqAOAQa+JlRxCnWrTjq5Jf+SxSPLq4r2jlBvlWr+e1vuOg8Y2V1da2tw1urTQxJEsoJ8xQqgfT1/OuV1WwvY7xm+ZmbAMjfeIHvXpmk+INAmtNOaXxdDvvHKWZm025xOQ2MKSm3uF9ATzWf481fwfbXF5Y2vibTbe/t7h43hmtpx5LZ+Yb9u04OenFaYf3LUuV6Ls9lp+Zxypyvb/ACOL8EeHZ7+9mliby7vTwZgMhW9MjHQdOevNdUbzwXq0vhSG8gjutAuLqa3v7dndbiBLmUG5dlGMKNgOC3J9hVHRtG/tXU4/7J1bRrySSJrci1vkDuDxyrYOQRWLr/hObQY1s763ns7iH5dsybWx6/lWkqd6qlzfL+uz2OjD4mWHs3G9++zRsftFeKI/2k/htceHtMgh8I2vh6G/vbGCcNIbmCxSNY4QqDb86FiCchdvXFeL/s2ftE+Kvgtc3kdjdJNpd4wgmttpQagyMCGUDgbSOGx1OK7Hwp4p1bwM32zTpf3kbMirJh0eM8MjA/wsMgj0Nel6n+yV4R8a+GV+LHhnXLrw/cpCW1DQL+RZYY5UBZ0gYndtDbSAc5Vh3Br2MLVpUqFTDYmKcG2111evr2szso5hVnX+sRdpp9Oz/wAtjC074t2Pib9oTUvGVw1vpIkt7bT0soiWtLiaI4k8wMzFpjGVZCCBnd9Kv/tQeDl8Fa94wks5JPEGn22rzajp9xDBBfS2CyFTc2MkcgHlsodHwSOFyD1rx25s2vPjh9n0+z1L/hE7fXLYahcy2263sn2pN95RtC4DgZ5+fBr2bwT8T3+O3xhu9ZszptjHfapNFqEF5HuS6t5YHVWaMAiRkQNkjBZOOSAaMRQ9hy1IfDGKv5JWsu+1/kz2qlaOKpzjVte/49TsfDfx38PfD/4dR6Xp8OnnxDqGm/arFdQ0kXcsUBldYdybhBEEwWH3vmGAO9c94Z8dal4E8IW8OrXB1KaeORBePp32NruMOChypJxkA8cDcwFb3g34EX3iu6jWDTobmCCy8p9UaHy5eMBAm7pHkyEjgkMOhBFa2mfC7w7oelxRa54ksdYluiIrS1t23SKw6RBmICk4xzxnpXPg8JTp0rbX1d7Xv5HVh4ypwXkmnv1Xruec6t8WD4vubWxlgdFW0LO1uTg4IxjPCgc8dx7muk+HPwU8QfFjT4JLG2aSFo2P2l51hjVQcOCOrYz6HrxXNa9Ja+IPFf8AYlvY/wDCO2sbiOW3I3zYz1ZuDzzx0/Cvp34O+EofDfhyGKJJLbSILUQteSXeSFYkLDGmOZZNwOVJ6getXXp078qv5lUudK0dEY/w9/Zu0bRkbS7W3g1fVb+4TS4gT8rXbttKFep+p6d69hvnt/Ddta+C1a5bRPDts+n2+Q0hysoE0pyfvNKcbeyBQOBVnwp4aj+G/hKHxTLfLB4ma7n0jSUYiSOzZVxPOzDg3AjIj5OEZ2ySwOK9vpkb2SrIXs7nz5MxqS5uHAG7a2OjdlPTrxit4RVtDHrdlPWfFH2LXLJrXSZrzzJEtmeOXyTZBflDgE/OQzc46DA7VvQ6PLaaVJBcXk11ZQyAztaqVQEkkHrkdW3AVHLpLaXrtq0+oLHDbysAPLQSByBuBZuQAepPUg4NTeIY9Us7a3vrMNHZzqbK5ZRk3WRu8w442qoUdM5bOea00tbqPl7FHVLWzsrC8bTZI2vGkEhAXYvluoQgMeWOVIJyMEjiub8XeG7zxEUlhnja7t1eMx5JHzyE+WyYzxgAnnqK74+Go7fwZ9rvLe3hluJUdvt8+UWNcGRFdCCG4yoIA55rndL0sWtrPdPqVxNcSSs9jGc+dncd0TcjChcAFsk4OM8VGq1ZcbbHP+H9EubKKPUZI1T7OqQSWkrARvION8fG4fKQTnIwueK7Dz7rXr1WvfJWzaGOIzmYvGGxtLIn3hLgjPPI5A4qe40m6lW6u3xILONSyrGDncANg7sMFQM/Ng8dK6n4d+Hxqss0NzawtFMlvPtCOBvjJYKCGG0hgcls56YqOZt2ZL8jjby6ur/UdJ0mCS7voNOvoxCi3ht38peGbB5ZAy8jPQnucV5z+3Rrdr4wis7GWZ10/wAPldTuUcbVWOJfNTch7FgvqeRmvTNeE17+0Lrt1NE9tFogWTSXmsm+xiJkVZnMg/jMhPGcHjOK+IP+Chfxm1BPEOqNp1nJqgW7jsEkSfzI4JGcSNEEGC+5Qq9OAx60405VK0aMN9yfaxp0pVZL5HJ+LPiDqHw71vTbW/tbbVIfGGsWttcXUtqJ41t5GU5UN9yVCcq4wQQDVb4rfGTX/wBq/wARWv2GyuJdf8P+Lktba+S8cbrV+B87k7WURZIPAzVX9p3wz4xt/gPp1zq2hLo1npKfbXhuZgl1dbyFyqA7htHdhg9ua5L4QWltafAzxKst1rWn6VqVjBqTySCNUlkiuUjaNHX5lYrJgsxAz1xXtxjD2axEfiTt3/rQ8uVSpKTozTUXG/a6W349Tyf40eKDN8S/FVraJA1vcatKVKEkBVcgMp9OPbP0qg8rXM8bs0sStmd3j27Qo4yAcDpxVHVPD80tzLeRIbuzkl2psJa4hxkrG49CoPPPStzSrP8A4SJorTbYzRhSSFfaQcZ2g/XH48d6+sp8ijePzPk3zOVmWtJnmm0yxja5jhmsw0gfHzyqSCFUj64IPStTRr+28R67uF1Mk1rD59rLkh4HQ8oxHG49QeAP0rF0sSaVq2+4lkhYW4WBSuFbpgOp7EdfpWhaLIniq6kmS1gnjiMUiK263uAc5OPXaD06cVnKKd0b05Wtc0fEt3JcXkd0jG4tZlKwzhQkkbHAIcdD945IHOBUes6PFpUkclutxerYw+QuG2r8wyW9Dj+lRX2rfubm3jt5FtZEEgUOMwOwDBvdc+nNMmuFvpLa5ihlW8jfEw3hVnTb94DHDZAz1zUxTRcpJu/Uu6N5K3szCa5/tKOIfZ5FUbRIVG7cvRgVyPypnlXVvoay+cJt8WFVG++oAICkHOVI5444qT7JG1/NdXbWbWawsd6KJNrOvHI+6AeMH3q9cXcZ0O0trcxRXyv5bHlgxZPmJ/u5AyPxHpWbdnoUldamJqGtTTaRZzSL5k4UyzCVBhoweEB/U4rufA2pL4cvrGa3h8yOSJkSBpC4LMvLbe4G4fhXLf8ACFTan4YuL23a3j03R3RpBJMsclwzHylEaE5OTydvQdau+GvBbS6hPaw3X2W6t7horJN2FkZgDsJzhOhAb2oq8nJuVS9opqy9DV0vxWsXjqZY4Y2hurcxCKRvL8u5GSv0XoOPbNbmqeFo9RSK1vEkhmfypseYjyKhwxQY6FeeT61LqfgWNLGLXFhkk+0ILeZY3Rl89lI3ZXOCdh6cECovhNYXKWr/AGxV+2xzRQpNdDJiy3IBAyVx/k15NWNKVqtPod3sZqfLVRm+JoNWtZ7rSxdXEtlJIt3PJJMWS7dMkMe3CmormOK4sbW8WGGWw2PaCziGTKFJPIHcFsjue3Sup1DUY7bxI1payKtrFJsARRuuy52tjIHHHAP9a5vxrdypfXFvaRzOI2Zoowm1ZDH8zMV6j5R068cURkmuTlS6+pMqCg2zm59Ej1iWNYpreSxtT5bOk4AUg5LZbkZzwQO9Zfw3un0S7uNSkkVrqOaSVGwJJUKZIwp4bPA6cVRmDJ4lZ7Dc07fvZ4JWHlsMj5oxx8pBzjnGK07GS2u/Jv4EtZS0xSRImMRjznJZugz698V6FOk4rV6M4oyXMmuhqeINVfV9SbVv30LRwJDdB+DcMfvbT2JUgZ9q2G0+90W+sUucm+tB5UcW4+cWfLjc3RhtweuR+lUvDfh9rWy1prhbO5htSZbRZjk/N8y8/wAQPPy8nIqppUMmprJZyNJZXEMyzxrIxLzIuWYIx7Dn9KOTWy6HRGT3e7NhdS/sDS7cMGa53s11G2VVAuckc9dpGR+PrWNpmtWM/hi3ja1T7Za3H2qO6UDcwwB5R6cd67DUdUi1/Sbi2uAlvLqESpAZoBkx9WYHqCcbfWuY/sK+8PpbW6wweSyv5MzgPFI3IHP4DA65qIcttdzSXNf3diO30681ibVLtbeG3SMoWcvtjkYyY6ngls9DyNp7VZ1e9k1K7863vlgnsHCfIu4sMHk44xuGOvfmqWmavcazp8Ph26uJNPsreRrxf3mYnnIA6n1x1PoQKv6Zbw3Gr/2bL/xL7aXcfP8AKZ15/iwDkZ4IPIyPer1TvL+kQrNWj/TNfQ5Y/FPgGa+huoYJbGUyybvlZd4wcDB9uh45rR8G/BfVPFTW8z266kNXkNtC0UhU/KuHA7FRuGfpVS9ttISxls7N7qG8t2Dh5CEjmJH8I64bj8a9Z+B+jT2ut+GZJ7mRtLhuzf21zG7htPMnyskg25UMxBwAQAc1yVKllzI7KdPmfLL89Dp/hvcXPh6z1DQ5tMuLxLKIRwbxho5EHzKzdD8nXueOtek6aJT4Y0e8ayW1vLqG4uVkaT93wBGsfXLK6kBkB4C9qy/gRp+paQ9xdarYyavpd/PM9yQ+6Rl3Ebg4XAZQmFyRziu41XWBbeKtPa1aZoYXka1kZEWFISrbWKNna+eo6n36V5E5XloexTh7ibJvGF89xpdssemQ6esn2eS6iWYSQ5wRIkZPzZwpYL/Dnmsfxz4svHm02x0Cxa+ule386S9d4mliBO2TegyreWVXB6bfYVPrEUk1vby3CTahprXReZrhldreb+CVSmCOMjIOGDEdRVmy1fULuK9t4TFqNzb3ztNGybPtUG3KDkZZQhXlum4880lGw3Lob+s+K7Nbi+hvbfNvdSJDHPJILhrgYch5ZOnpyRnae+Mil480M26Q7mydNsBava/ZzKoAUOs8GDllLEEkZx16VS1GPUvDukyXWnta3ljEFtlngRP3dvIAUVuvl5U7ckHjaPWmXfjRb/UrFrDVJ7HxF4fuEton8o7YI3jaN98XG1XjVBg9+QccUkraoTaej3KOkTrDoN239qYu2RikMY8ufzhgsrIwxGvzk5b2HoK6zxLoun3iww293/YMk+lwedJJcr+/ueQwVcfebPAwCS2K53xlcWGs+O5pIYxpuoxwrLfM87TSO6hSUVdoyrMASRlhs5JxRBZ/8JZ4qtrG4e8VrK3dZWZzIIT9oUb06FgqyI/ljkYJ9au19SXK2iOoe0urLw3eLb7luY7li8Up3SXEbRjdFwfvfLlTz9wc1xurDTvEPjXVrPVtNm1nU/DWmAQGBzHKxnlChGTgSxop6ckDBxzkdDdaZceHvt2oX14txBb2kcJv5WYJcRA7V2KwBViuVz1+bmuZ8Q6vJENPvbSD7XHosDWMl3aRPFcLOyh9jkbleMRsOeeQMYxwR23CTfyKEHiDwnHAizeLjZzKoElv9nuP3Dd04bHB449KKxdb+LmjRazdr9p8FzbZnHmORuf5jyenJ69KKZGnb+vvPmbSviHo+j/HPWPCvijwdp2p2/i7w3BbaLqt28ltLpdwFaSO4RlwJIfMOx1PGVHIwc7fhLxje/svfB3UtU1TRbfTfHWtRCHSMqWWLzGkBmdjkEKI2ZPUsOcCjxP8OpvFnh63uPEkNrqfhHQriDVLaa3m/wBIZmUBrBHwCqs8QMiZO0qTxmqOi+JP+E+0ub+2bdrmYRNGkX/H5bN5e8wwoZRtICnYwB6d8mvl5Vl7KnG14JRU15r/ADXxK3Rdz5+OETcYvbTXtfp95cHxY1yD9lfWri71S61eO3SO9tZ7iIB7a4jlG+SMdV3Mzg4PIcnvVrw1puqT6JaeLPsNw0evW3nvEgaZbwlCkwnjOQkecfMRyWwvetCw+J/hDxF4F03wraeCYfDP9oRvJ59uk02hXdyhH2d9zY2AspVlj3RkkkEYrkLb4k/EDVNP1LQv7Lmj1aS+GmSW0INrb6VGNoWGFwc7W+9vZzkMcUqOCadWk4pXlfXRcrta1rrRq77P5Ht4KjTpqVGq+ZW0Vn+vrY5z/hXd/rVxp3iHSdWtdF0Pw/IwtNHsreWG4tpdp2sGUHzi5LBmYnA744rTvP2Ym+MF/b6hN4kktZrYgW0MSrGwmK/IAHIyjfKM7eCe4qHRvFPiS08G68yWepW+p6TvivrxEeT7KxDpgyBiVwRjJGOPz838D3/iTWvih4fNjILY3VzDO07uZBZhOTuPYYUkdsEV7fLi5xnKnNRcE0m9el/n6mGIo04pRs5Nr8dv0sewN+zl4c8MfALS5NT8cXWn32oajK8qrZ/aLe3tgo8soVG6VstLkDCgbcHIObur/CPwr4e+EkH9peJNWjs9JuZWjWG2hQ6o5OA5eRgquTwE5KjGelaOofHKGw8Uap4Vs/Dum6tcXjeZaPcbYYdKhI843AlYgK+Mg4wCCc5BIO7+zZ8OvBfxE0nxLYyeJbKzuL4JPqHh/wASCUadO7kyeZBcxqxhnU7/AJlXDLzjAJHgUcRianLUxV9+ZWS1T221Vlpd9fvJw+HpYid1BPR73Xp11t5GXFren6z8QPhX4Un0zxfa22l3BuIZdbgjit4kUedKEMahWYCJi3JHfmvM/FWkyPq11J+4kuLub7XlJFkG2ZRMucHGcOMjtmvavjX8QvFXhTT7WVtU8LWfhuGxvnnvtHD6xpyF4JEjkgu4FlUbdwJVtrHPTGayfjJ+ydrGmeG9F0u8bR9P1fwlBcaXqOq/2lC1jZiCb95JfIrEw7VZRCHAZ9wCq5wK78LQjTqKcvdTVlu9byb7eWiuVicDCpOXI9Ul2X6ngHiDSbG/uLcSXosbi5uQuXX91szhuAcj6joa+jf2Tf2c/G/xCN/qXiPxz4c8E/B3w26rrfi3xPOLnTrPjP2e1Gd9xcsOkMTZGRuxwDzPw6+E3ws8OaRcX1xpesfHbVdLXdZ2sl7/AGRpUhV8ZaODfdzKpxlS0ZPHArnPj1+0h468R6ulnqe2wsdLtlttI0rTbRLfRbK0bnyIbX7if7YYM7EEszEg16/7urairO3dfl1OCeCnRXNP8Nfv6D9H8QeCviX8X/EWieEdR1CTS4ruaPRtRFqU/tGFXYLJJA53xbl2nYCxBJ9hW1osmp+E9Evrq1s9N1qxe38n7VD+/t7cOGTzNv8AA/XggfpXnfgz4KL4N+J/wp8Z+Hprp5LrWLe4v2sbF7e10e6hkErZJZhs2DO8bRkEbcYNeifs3adql98ate8d63PdaZ4X1i5udShs9LQS3l6ZJGcJsbCRxuW+V2BKjohryMw+rU250p+4ktHvdNq3e+nbocKkua79136bB+zfq2m+H/H1xp17+/s/FlgYNQ8xHmt+E8sStxtUqwHOeu32rvf2fLvRvCmtr5zW5k09Z1e88lYYtyxupBA6kso78buBzXQ61otnf31z/wAIPp+n/wDCV6tBlredRCLYkAjzEXH7wjIJAzk54PTN+NPx08T/AAZ8J+E7rxL8MfDuueGm00rqQMLQTWF8z7X2zAAASIE+RlOWB75rxY4qpipVKeHi+aorNXSd0rXs+60WttD1MNWahJ7xvq/zMe7/AGmNV+KviNfC9ql3oum3yyfZLlMMLhjGzA+YcbM8dePXFcZpP7N/i/Xtf8P6PrGuW8P9sb5bWK2uPMNwmTuf1REUZLsflOa47xf+0ffeI7+9bwt4dbTfDWoJiNYLjzbqHIJdCSpOwnjaMda+hP2RfF/ijxl8NZpNHvLFtQnVNJ0yC4tlB0O4ll3XMspxkxLFFkyZARXYkDbX0EvrVOPtHFRvpum0/wBD0KValiZ8qbt+KXXQS/8Ag1qHw78V6f4Y8Paf/aElrOPtur3i+dJIGxzCCSWwOhcdDnGDmvXZNQ8Q+GfC93cQR6b/AG3DaN5VxbKDb2T7Np8hcgmXHJk5wSdvHNcT4b8S6V4Y8L27TWs1x/aKvFqevsf9FvcffW3kz/quAAwJaQdcDAPp3gPxn4T8Y2sUkeu2fmwgQS2Ewa3WV9ucHzAMsF5O0ms6Sg/emtup6kacIr909X33/E7DS/HWj/Gvw/o+m+GL61srzRLKGyuPDd0n2a4gBG53iL4S63vvdmRi5LkkZwKu6fp2r6Nq1rol9qH2ZhAzzJdQ+U0c53n5CwyqAYAHXjrVC++DqeKp1sotJmk8uIFl+yboQr5P3xkDbtPDYxgcium0HSv+EHkh0zxN4usdS0eMLHFpktu2p31tIMORHMHBgABPBlwOuwiunmj0IlGSep5v8Vv2iPDXwtNxos1w02oSWsCvZQ2z3TOodSxBHIyBwT6nPevYvB/ge81jwxZ6lZ28dvockA8y61Im3ht1fG7y3fG5x3VQ3GMciuR1Gx8M/wDCdjxLoPg7QYvEFvHFZRXN8p1i+eDO75PMAhRl9RGTx1xXQWOq3PxJsJNQm1WfVNZ+RoLzUrhxDbKhywCqcBc5B2gDjjinKKewtVsHxD+Mfgf9mDwVFdajDL43mvJltPKvYHg0s+aMh1hP72UBV4LFFwO9Zi/GST486OuraHb6dYWF02yZP7Lihz5bED5Y05ZOBg88g9zWb8W/ht4f+LPgq+s/EFrf2unwvHGl4LgmVCrKA4d8gjc+ACANrgHnmrXwW+GOg+DdDOj6DcyRrZztLKLmbdJcoV+eUKf4to3YHHAIHNdEvYuhbXnv8rf5nmx+urG3dvY8vnzc3+XyOstdNj0fXjcLql00lvA90jLbnYF27ApLDGMncCOhAGOgrR8Ly+XeWMk0N3LcXQDhIkZo4ZezyMQMN149STx0J4N0q61Oxhhh0+G88u5kc7ldhPGM7MY45DBsHOAM44puoaPdWUjaU016zRr5d2ZkC+buUhi+1uc8cjONo6ZxXHNWVz1b3fKR/ETxJav8N9Xa4miX7RG4SSeDEsZHL5I4OeMEcDFflH+0DqnjnwB4vvNSnmsrXURcrei7t7bzH053UmNc/wAL7AgxjI3npivsL9o/9oDS/AWqWH9oSSXGn6JGbxdPXcW1GeLC28DnAGySbZuxwQDXx/rni7w14guvF2q+J9avdS1DUrg3v2Wyg5Ill3TMFY/O6tlcDhVwRkZxtlv8T2s1daLbfU4cwqKMeS9n3v5Hj+m/HW88QRaxJqltea1b69PELyS4dmZZ4smFCVwerEDjBH0rV/t2DQ/DfifQZpbi2h1bSGtrMkM0SzmWGbgHG1TsZSfXnmuc8IoPCfxAv7XTfOaHVEdyXttrQx/fUkcsrDg8eg6itL4g/D3xD4diN/NZ6fNoeoWguYJGJMbq5AznoXWTKkKeCCCAK+slTpe0stE7Nfh/kfPQqVXT5m77r/P/ADOMGv3/AIVgtxbiEyAqlxLyFmIJIDt34z0xUthpTW+owW6H7Y0w3bYWKooIHIOMEr1/Cr1nZabqnhbxCsv+g3dubWazsoQTgguHbntjqD/eHam+EdWWOx/0hbqcxiNiU4TarchlPBwCRkV6MLLm5Ft+PU89xvZN6dPyNDxi9xY6hpvnWrSJawG2EgGVmQYHTHU8n8am0DVpNYiWwhjMMjRSTxxkqvA5w3fJAbkeopNSs4by+FkjXMi25ZtwYuEUuRuj9VHyjH1NRWmlrYs1u0bSNpM5e2u9xVkYnBQsOoPGFPYmpckopM0jG8m1saGj6nYzSKLzzIWwYifLO3aMhfZvmYDjnrTLa2urC/vIbqMP9o3urDDeScqC6YPDLjoOgJ+tN0DXRbeZpnl7bmSYtHDNGWCgnI2+hXr04Iq3qNg1po9vdTSOjRyfZ3lHziN3yxZx1GO/sam9mVG1vMfNqf8AZd8oVvtdhPI+Gx8wfG7G3oR19aj1rRZpLw3lpNcTShYnuZISMJCT/rM44GMAk8Dd2qfR9T0/+2FghuLe4jtfMMm5RJEy7MNkcHgnKsDnkenPSaZ8OtS8W65ZWuirJMs0BlkJuERYo1IK5J4OVGCP4ifWsK1ZU9Xp6m9Ok6istSHxeuk6h4FVY2hs7jTXSyuYlGRKjkFJBgEZAyDnGcCqumW99pOgXUNvHDNJdXwjjneT53h24Zdn97OQWzx0HUmrGq+BrzxlqLaToNvcXd9cTtFfqpZFfyiREQXA2AAk8+lemfAfxJ4a+CWpSrLJb+L/AB9by+XBLcQefpfhsueXcEAXExOAAOBtOMmvNrVHTpuTd+tjp0U7vSytf+uv6mR4r+H0n7OfhDTpNWg8vxNrUo1afTDEf+JPp2xhAZUHBmfcWI/hXA6k46DxV8TNL8d6fpfh/R9J0/Rv7NlF+J1JFxqDGPcxLNwVPBCqcjHA4NY3jz402c3iC81DxZaz6/r2pQSpFevdvG0q5wshGMCPcuAMcdAMCuLzeazpUN95H9nyaanmSGSNmWQA5Axjjg8EVx4WMq375pp99LfJXNIYqL92G3br950HidLG60x447lxcSMI4ZBgtt4LHb6r85z6AVz/AMUbGXwF4Ytbq9kU6kL2MacscoZ0tNmFaTnuAeDz81DeJdJ8ZaDJpOoWOsR6tv8AtFrJarC9tK+NwU8BlG0Hgcdc15/r41LXbKCea12SWe2GRUhZVSMgBJCx4IP3ePSuzDRqzqJNcqT1v19PJnPUxF4uy+Z1/gj4YW/i/T77UpLiEW/CSMZhBKmfuhEBy3BzxxWZfeFdY8GXfkWkTXH9oBZ0eIiWOWAKVIkU8cA5yaQ6x/YPhxdQt2FiyLFlYzv3oGXIweFPTkev4V0cHxNvdMOqXtrqE2n3WsWSadGRAJ4nt3x+6dTng46rgjB7cV6T9pzXjqjFKm1rozA8NLdSeDZtLa6Nyy3BnnglxEgjjBBKt97PTAHvU17bRTajBdRyXFxb+eCqb90yxZ2ySZznf0wOnertjqU0du0u+GS4Wza2kgIDqEI5dW64Jzz646Vq6LZ2t14a0e81RY5P3Yhtpv8AVtJGDhkOOpBznPOOacqjjqyoU+ZcqZR8Vvb3/jGZbOS8laxbZCZ4TG8qbRu3D1HXGfWoItfWzjtdszNClyYkgbIwSAGUA5xuySPetDX0jsNIa1Xa91bu15dO7fvIFkYAKu7ngAH86w/Ed019PHaRzR2tzpQWazleDzReuX3cgcfxfePGBiohqlpoayVnvqa2kaekVzd3H2IbY4vmjYK4BOSCp6nGARjoc5qe2t7qHXbqYx29xDGy24dlEf2obcbQBxncc/Wuj+G8a+M7oahcabCNX0+cz3ICeTaXYjUB1CAbVbJx6HdjAzmrXhz4cN4it7G0tNQsY77Ubl5IkEa+XazH5QGcZwASAQR0YEHrjnlUSbudCotxTWzH23wwvfEWhtfQQtCtxfL5S+S2zYApfDKNu0H8OtfQfwA8Da54YhaHUm0u80mFttp512TJHH8rBW5PyqEIHoTVL4QeGNa+Gcb6ffWv9k3Dv5DWUzq0KzKwEwBDYEZIXBxyZGORXoeu6hcX/gyNprGzsZNOlMdoixAzus8gdwG6uAqnqMLjrivOrVZS93oehRpxjr1G+FFh0jQL7SdLkh+x35mmij+0MjW8gOWiYkhXjbsOcEe9ba+KLXxLaxWO6xg1JpPIjEmn77eTPDMSmTkKCWOOq9Dmsi/mhFpeXWkrDeWF84DRXUjRToiKV/eDAA+ZByvI25Oc1V029s9Ms7OW3gng1S3uGuI7aUGMwZ2MysRwzKTu4++retc7j1OmMnsd18ItMk1rUbyyt9Pjm/sZ7q9u9UEiR2dzboPLZgzEcK2zA28kkAZNcz8SGk8B+G7Gaz3arumCXFqJQDcRuxcrnH7vB4CsMncvPBrP1rw1J4av5JFs5mfYCY0kEkTMJh5nynrkbeMCr3ii80/xRDZyR3GpQXkyCykG/EZj58uPGSS8e3duIBIbA6AU1FXTewOT5XFGt4F8N3Hjm503SIbzTxoutYuLC7vpvs6iZTtxOpzlRkDvnrmrHxD0ST4a/Eu60/UrqzXWtNmM1/FGDcRyKRiJlZeCpyCD0xj3rJgv9WuJLeOK8SW60+NYYtISA/OhYjcrAAhgQOMcgdqr6lr1vpviLVrdv9Biktkkmtrwkq8YXEhDYIYb2AXHrg7cUfkJSaWpqanc3HidxqVzqNq3iTYLfTTbjCvbqRvYMzDa46dDnd2rLkhHiDRoYrfbZ6xeT+ZKrAN9kwBIkce0fMHj4Lk5ySD61Jott/bGnWtxdabZahLqUbXFheJNtWDEaqw8wELtCMfl3BuMEZxi1b6ZDrOjRWOoWuyS3SQ295FtP2VldvKDA4K7sZ3HjjGanYd7o6XxpPoXw30TRPEN1NatayWMo1DTY0LSWwj3KTjO2TzcpjbwNucDmsC+1SxHw3hv7S4i/snULjz7W7kn3bWblrVgMYkxnktg5UZB4pvhm5s9a8Ymz1LU4rJXsjCZ+Y0zICy5XBPmLIGXGCuG56Cus0Nbi+uvE2g61f2LaLocUTQywqFLJIHwwjyAzIzp/Dyx5zgVM+xcdrnH2fw18OvaRNLd+F7WRkBeG4tImmhOOVc7uWHQ+4NFQNH4dDH7V4b026uv+W07SSK0z/xMQOBk5OBxzRU8zJvHyPB/h5+0Npd54D0Pwr4r0HS7Tw9Drj6Vp1xJ/q7+eSGBmllRgVYhiRuH3RnPNb9hpPwf+K01xaWetX3hnVtDYWVzYrcyWptHV2wphbdHtBHBVQOOteV/ETwb4q+MOgeH7TwjcWGteH9A0smC2trdE1aN2+aXzEYFiNw5ePO5QMgVVsvDdvYXdp461W4mtpNW0w6Nq7SWzxxXFwu0x3wYL8udiEucco39418v9WoVqX7uo4ytZpO9n/eT76/MjD39gqNrpJXe2nWz62f4HGftJ/COTwvI+qeGb661y10+ZrbUIdLuGmWySV+JfKRiyI+T8wGFbgjBBOZp2u6l8RPh3rsF9rNvNqunyiztZoZhLdSrsBj3Rg7mYbWG7HTA68H0Twh+yrq2reD/ABd4o0ua/wBJ16aIrp2qy7HutWMRJmgeKPACyKG8qR8F9m0gg5HjUuk2ejeI9Fur1pG8TeKvIl+zWdoLG7hsmmCmRRkmOSbawVxyiZYD5hX0eCVKpS9hz88qdtba97Ndv6aPN9q6Urz216/L7+pU0L4x6xoHjfTNUvINQ1OO1KzXUdvAR5gQBXd1YEA7QM7xhsc9iL3xl8VeHdP8eWeseGbe6m07XI0kPlStmwl5V02HKsrA/dPTsa+lPiP+0p4R+LvhPxF4F+HPhPxFoWhaGx/tTULfSPtWpKmNrM8SlhJBjGZP9Y2Sc46eFfCr4e6N4d+HGqeJtBm0/wAUWrXTWNncyZY6HcoAzK8R+6zDmNjwVJ7hhV4fEKV6s6Tg46cvdPa7tZeXkdMpckPZ+0ur3vvZrt1a7jbn4fX3xa1/Tl8MTNceKdPggv59HeHbeXsEAeMi2BOJXVVGYR85xwGxXWfszarqFt4B8RwaxJNpN5qSXNnb2ssfl6hBG0TIZI1YeZEykttZlHRgMAnPBeJ9GuL/AOEH/Cx9S1BdLt/7SOnOrMUvt0+6aOVIVIO3GSGLDHHAzXo37O/x217xWsk3xAh03xl/ZMCTeHtQuLZI9avoAdkka3J2TybVK7Fkc7vmVdxIU44qlN4F+z1cXZd009k9n09EZ4X3JcsPis7dtdm+2n3s8f8Agn4P8VfCX40W+n+G9S1XTrm+EdpYzWFwYZLlGljjKMAcFsOxIYEfUV+l3/BTvxR4U8BfFL4h+FdZ8LL4is7qz/4TPxRJY3h0+8nvZpC9pAkgBVjDZxx53Rv88spOMivnf9mb4R6D49/aI8J+IvhrrV1rGkWPimyuNd0HU51t9R0ZWuQHZI3jCzxAg/6siRCuCmMk0/jd8F/Hv7T/AO3LdeLte0u+8MzeLPEdzZXt1dTtJYaRZI7Kd6gbWQRIcgkAnAqMViI4tr2r5XFJu+jutbNdNt/u6F0cK1Tk6Kbv+Hf1PPfhz8Nfhn4S0OT4h/CnxN48fVL6dYZtN1mGO0m0fzCjBfNh+WZg4z5q7QVI+VWHPnfi74xeGf2hvFur2eqWWqfaI7qa50+6WYidsn98HA4ywG5R/sAdSa9u8Z6n8H/2a9a1/TvCOk+KPFPg+2uPsqy3GsR2811OSFecRRRPi2O4KqZBQ4JYk4rlPhn4T8G/EHVPFE3hnwND4R1nwfc7JrWa4e8kkR1YCQMxXawZSMEcjHAzilGtadXHVVJ9Iy0TS0ST+em2z1OCpy0adm0tXdau/p26nW/sV/Fu68H+G9e8E6Z9ovNJuLSRXmu0TBt5QQzNz1CFwHwTzwOBXRT+JLPwrd3d4s+nw3IUfZ2E/k2saJnJOeDgfdz6V5foTzaR4qjvGMTXEtuLSKMuyLNGBjb8uNqj+mK4j9smTVJ/FWn2t3NFb6VMI73RzGUIe0KlELgc/eRx8wBAwemDXztPK6eNzFxg+VTV3rfXrZeenY8iUlUgnfboz6R8LL4d8S+P/DdxpuqXmlX2p2z3Qu5WJ+3XETFm8kkKCrKUKqc855O4Cus/bw/bRj0fwPp/hO2ktNc8WeIGAv7NoI5IHtgBmSdWBVckHbkkjaW9M/JHwz+NviiP4Dx263moNqHg/wARTQaN5zlEje6hLFVbqrExjC8AnHQml0T4N+LvibcSa/p+la1q9/DCbfVNQeUQ+YXX92C7YDSbWUMBk/KBgV6+D4boUKrnWfwtrV7vprpZbHoYeEXD93fm6/13PoTwh+zTZ+Ivh5IdD8Aa7a+PNPgS4itV8SQx2moQ4yVijkQgvjlV3AMDkHsfSPAmjX3wiXxBoMPw51eWTXtFjTUbi84tJpVYs1qspTlQSQ2V2sy45AryzwX8criPWrSz064m07XPCGkxWk8l43/H/AjnG0AlTswyHP3sCvafGXxCm/bYstL0K4i1Sx8VW9vJLb6np2rNbwX9oELt5oyPMyo+VhnOMHvXJWrP2qp4lOzej1/HXb1PpqdOlGXPRSvok+/fpo/wOg8Ka7r3xQi0yHXPhn4N1HSrKFrHTW1rxFcyyLlTmNLRPJQA+qrnA6Eiu4N/eavbQyQ+G/DOlzWMQMT2uhQPJDjdnY84kdWx05y2O1eM/DD4Y2PhCZrS8hup49LvUu4dXkRrqSJVIQK2SSoVvnyoydxzwBXsEKw6wZ4mxrFpeTJPHPGoaANGSVdt+1l2kZzjqDjIr0tFO2h1Qv7O8tzqPAnjnxH4n8EXVjrrW93qWigmzniaWU3Nr5mSki4VTIiFjkAcHbn5RWXYBdR1JfKvLW5s2KljGyyLE2CAynPzDjGTwA2O1bmh/ah4eSHTJtt0pe2UPKdrFmYkLzkZKKDgcg85pF063ErJYwxyQSIM2tun2dYwVLu64wCgBY7jwdpyKpR00M+bWzJbry4TcNcJCb603Lbywx7ZXhfb5zOM4ZlwpA/u9KZceGpILBbOGO3uEktgYn/1cc8bPl5FjPHy7RlM5x35xUWk2IedTM1pNayXElx57S+ZO6sg2lSDjOOpxk5wKuXGm6gYbm2t5obCSGVbgNHd5kCqBlcEEfMzEnGPuDgVUZNg7Iq6HfT6ZeTHULKS1srgmOQQTEi6bkLMoByAVVSpJ4wMjg50vD2jfaZVmEkME91MbqB3kEcs7DJMYwPuhTgEnkE8nFZ+rS39t4Mt9Pk024+1TLI6RlR56K0Z+aIhsFx8hO3PQZFSeDNSh0DxNb6RdCaPUXQx2JvYlSMP5YEiZPDFThuynp7VL3swv1O98Oa/qFnprNY2qzaXH/pOz7SjS2T7PL2qcf8ALM5IbHbHrXPeLPFE1n4fmWRriHyf3b3LThmGULbyOAWdsZxwAWHArqPEN7b2twtzFDJDdwWiJHKm4SXiAksmPuL825gSDxkCvnP/AIKC/GqHw18PtW8so6zW8lwFMoUoAGPznGSoJAUADPGe9Y4nmsqcdW9PvCNtZyWx8+/tg3esaR4J8PzPbnUtW+Ikst7ph06zM81hp8KKI5AGP8ckpBKjHPHIzXx+3hnxR8H/ABrNpN8tvdQ3VtIyGK9gkki6hcsGIUjlSjHOCfavTPjp8d/Gnj+XRfEWp6k11b2uiW3h2aywV+zW62671dRgNvLCXjkFs9Oa8k8Da1rXh4apDZy+Vp95ZzWPlLFHcJIGAeUIHHYKCWXBHrX0WW0J06HLpb+vy/E+bzGvGdS+t/u0/W5b1HRrrwtpNnqi3s9rfTRo7TxKsRERypjC/wAWAASDng9SDW94e8QfETx/4AWSPSJ9Q8F6W6aXPqFtabbCNmXC+ZwUSbBGX4JI5JrjbJtQsPBn2C0nfyVEb200wWSORGGcODkqeTgcfjmofCfjbXPBmm6/oOl+JbvStL1ywV721eYw2d4yMv7pkPy7s9D/ALNe1Gk+VuVm137fI4PbRTS1Sa6d/wCtzL8Naar6m032zddSOFZdpd1XcNrMO6nviti7nPiCeRklt11BjvmcKPs7sp5GMZXA6g4HQ03wXe+ZDIs3k6ZeTfu53gXieI8Anr/FzxVyKzvdE8QW8Gl3Ec39q2xLRzhf3g28tk+vp1PvXRL4nfcwpxulYdpuqLoHjO2hjvl0+W3kW2E0+DAAeuDg5U5449q1tbuZfDVjf2U0awxrJsmljj/doxfKttxyvv8ATtXt3w6/Zn8MeJNG0q/1WW6tbibSkgSwklLW1vKAMzxyE5LEYdc8KTge29+0H8FvD8f7P8OuaTZi31HRLhLCXzZyDfw4/dsQ5zI6EljjPBHNef8AXqUqiiru+j7HdHB1VTcnpbU+b9UsrddN+3W0lvqTNGkiu+UZJXHz9uu4c9uau/D+LVLa6laG1M1vMgik343F+nlhWyM9Duznaa54xtb6dK+niNJfsZaYFiVfAO9VGP4gMA56jium+GF/rXh+Oxt7krcaXboTCsw8y3HmYbnB+UnuDyCMV2VI2pvX7znpy/eJ6/I0tA+E8Ouz6pMsMP26Td5yviMxMudyg/dKnjkYPSqOn+ItS+Hepm50Ga8a+Hlm/wBNbK+dCpV/LU4zgFd28cr17V1HhyO20TXZNPvlPnNITcG3+YyxMo2tt43FQRnbnpmsHXvAsfiT4ipZ3et3tvZ25b7LKJTueIKTKoJ9MYGc5yBXjwre0lONXbzO6MHT5XT0dz16D9nnQ/FXii/8aeKvFVxpum2qf20ul2sJvNevxuDmDYmRwSQ07fKRyRyRXzD4o1aDWfFFxrHh261SGzuNSmkimv0EU2eoMoX5MKCRjp1q5qHiq+8HeLLi/tZry4uJIvKj1PTYit2pAwFYDG7IIVxxkH6V9J/GXUNJh+A3hnwrpXgjy763tI9Q8S3NlFBJeaZdSwlzFIsh3KrdSzZGGVeCKxjKeFnFVXz82i2SS9P82bYmVPFJwoxUer6tv1/yVj5o8JNceOGjmv5IVaaQabDBt+SQOrHeGJAGH+YZ4JY88Yr1/wAR+Frrwt4f0KyW9tLi8mEd0YROkm1QD+7PJVTwSQ3pmuL8Gfsv+JPilpE8On6TOs8e6ARiWOISyn58t7Kq/MF4AwepxXU/Efw94T+Bnhq48Lx/2x4l8WR4s7/V7jdZWGls21tsEHEsowSBLKVQgthT1rujUhN8kH8l0Rw0aNSim6qsvPT8Di/FN/b+JvFUmrafa3ELeUzxRLut1VQArYK8Enn2rW0+ew8QRW+lx3zXEcMBCzyt5ZTnJVueVGTjB75qjqD2cOnR2cN9qF1b2swt0V1CZSQfeVcng49T0HpTdOms7C2l1KVkjuFYKVO0m4j4G4L04Gc/Q11cvuhe8rk2m6R/wkXi2bw9DaztbtIUnYEEQjYAxU9MnqBnqapW9mbDVVB/497bENncLOYXZQwUq/HOMnp0Oaff2EnhjxVHqWk3jQ2s8z5lLM0IYY4cLkY9/f6VsafpkHie91Pa0drEu9oo8lhHI6bjxySB2I/u0Rlb0DlvtuZvji1gtNNsbex33x3i2aeZdsmw53Rt/Q+hBq58N9Gsdc8EappuqalfaStjdRwRmSMzJBG3zbiAcjJwAQD92qfgbSJjLfaRqU0F0mjsjQXCgLIpI/iPUptGMe9Z9zpmox+IrW60O4EMsWEOXKC4TOSjBuO3GeD2qZXa5E9d7lU9/aNadv67HdzaRb6P4ujs9Uu4WgnYPHqgj8+OSJ4yFmVeN3GAVGCDnPSszw/8MNZPixvDqrp091qtmJ4SzeWI7cvhHUkkKGOCRwee1Y3ir4k6hq+mRi9hENrDLGC23eFBY9R3A745PJ71u2PjG+8BeN7zUtDjjjmtbEQyRMgmWbOWO5W52cgjBzxWfLVjG63t8rm8ZUZT95O1+m9v1Nbw3fXnw4vvEug6t4ZvIfECESxu0xaSGNQDhUONxdvnDjORivbvgfoWl3/hwXepmx0u48V3fmJqb/KLYKUKq6soVTk4zjByea5D4BpfftN+LNL8Wa5cTNrUMy2d7Mt1HEttBGjGJ8EE7UUNngj7vevoXStP03S9IWTTzZaloN1JIJ550Eiw/OfNk2qflbDLhkHHB2k1w4molpLfrY9GheSSj8Kvy3008/M1NSijsbm4tZJLea48wXM5WHzLizcbsugIx5eTnI65xWn4i1GKKzsfu3S2EDi3lCkR30ZUOrFcY+UjG0cnJ6c1Fd6XpN145vL2e5vryzm0g2cd2FVPMlQ4wqM3UIFKlvvYJxU3hnxjZeF9QuDrFxDq2j/Z3jeG4thNI37sFJI2RgInXkDpuIxg1wSv01O6Mlaz0Kfg62sdQht/J2ySxvvFreRusgZgGlTac/w7sK3H1xUnxiWXw/8AFLR7OQRyWOo2Eeo2MRx8rSFkCOwzu2tjGeeFB6CrHwu8WrpxjbULO2uo9XileK8jZzcWkbTFQytwJDtUqwx8owO4qjqtxHe339kfvNa8m1lujPcyZutPgjL7Y0KgcJlWHPJwKfNrdmejVkSWL6fJ8Qoo42uPs4lhhnha6bdtYAyMm45Pzlshsn5efSrmlakmieJtWs7Kzg1O3s0ma4uWh8xY9p8yN48AAg5bAOGAGDg8Vh61rP8AbFhPp9vJb6ldabJGbW8UeXJIjMBKxwOM5YH5iw4Iziuk+G1/ceDdBlj0mO9v7jUZZhLLE+6a3BQcAthlQK7ZYqQRWko2VzOMtbfiOtNS0c6Bo93/AGx9v1CG8BjtIWC3D4AyQzDbsB3FxkE7hzxWj4L8P22r6trWveIY55dG0izaS4gAO0FmKyh8N821dmQCQQRwOa5T+zlltLOO3YXzW90kE82nyxsm5FyS2eCxIXJ9Fz1OK3Nf1SEaBcBrWzaPXLWXS2tTLskLA/vd+fuNlflPQ8Ek9s7djSMurOT8K+B401nxNcaBMun2+pOt2mlQRS3DwxwF5VQxKSil4wpIwM54Ndlp3hGO10yG8020a6W+iTULUCRRJH5oBlhVmwMRnlVboAckmsLwbqmn2UGh2en6g02uNabdQa6AhkiiWUqxZ1yGzzGCDnB4rUsNHbSLDS1WL7Db3iSLKfOKo4QkZZD1ZWYggdVYYok22EbJGJoGu3F74jsxBf6p/Z9/5k8/7kMJJk3N5W485AU5Kk5BOCcDOt8IvB2qeOYVjezij0q3uXZdYiIw2w7hEzFsxAggKzN0HQ1xem6jceFfELaDqWlyw2onBK7WRY8P5jBD94IQ5AAwTkgE9K6bWPHMdn8SZ3t7JtFs7izigla1KxW19KQFWaRsmOQKSpTcAwBIJJNOW9kEZaXZr3fx8vo7qRWk0xSrkEI6yKOezAgMPcDnrRXU3zz3d7NLDa/DOOGR2eNJYy8iKTkBmzyQOp7miseX+rlc7Pzz+BOveMv7XsIrfS7fUYdHtmS0uba8VGvAuFh8zGJ3xtyFRdzEglcdLifEO7+PmlX3hn4k6Xea1dWqCFLi2gSwnmeNvMigPnyoDmTCgFASCRnk1zfjbxP4L0+2hsbOx8QaTqV5O1zfTaBqMd1NZykDrDcMN0aj5U2SAcHAHSuz0DxzH4u0dtJ1y+8C/ETT5/L2p4o0g6JqaKOFRbhw0W/kncJ15HTNcc8HGUvrDppPdNXUlrvo7dXpdJnLTqQf7tzul80/J6J/gyr8EPjJ4s+FPxGa8vNS0T+yNLtZbDX7fXL63hkvEBMkEYCMVWYsSqksFQhjwCQaOueAG+In7SP/AAmaHS7qG6Emsadc213FdRo0VsUS0MkZKhY8KAo4+QnjNev+Lf2UNM8f+BpJrQ6snh+4sisNjfQw+LNFsJQFMZEkRNza7WB3BSy4JwQQK4H4VfAPWfg74M1LWpvDuh6x4dbTy01/4T1Ga7tWiaXypAkbEyJIEcPtKhwI29KxmqNp4ig+WpJcr0tdeeu/6aE1sLNWpzTcXre9/np5beZ4X8I/jvdfs8fDO11SHUdU0jxpqHiGRbG6tpjHc29pDHiZtq8PG0x2bWOH2uBjbmui8HfG++1j462smpaVpstrfBrvVHt4PJttZj2GVFmjA7tt2sOQCQDyRU7ap4Z8YfFyO+1TwvZrYz2f9mX08oa5029hcEh45VAayuNxz5oLIxzu2Eknnrr4bXHwJk1C4vNakvIbSUx6TI53CKz4bbJ0zmRto/3HPSvUxNLDVlJqNqkouz9dLK3bTT57nPNVJUuWMrxje1vLvfufUvhPwzZ/Fax8bat4ttbO4+G8mm/2tDpKWEUlzYOoOy0KMuT5UjL+8OD5ZB3Lzj5YstYuPBk8z6bp0drNeQPbxRtYiS4NsXGyFhlo5FCgfc+bpgDoPXvgt4+8Q+G7OPWtb1LS/Del3U/mafqGp3GyYSR7G8yKL/WSrNvdTtUqF/iGKPjp4m8Om7bWNDabwj/wmTDUodbM6TW+pTSM7T28icOj+Zn549zMCuR8xr5zLXXw1aeErrmU3dPpolo7fatq2t7PTQ39nzU/e0erV9z0j4MeEtX+D/xC8C6p4g1G8ur7QZdPvvs1thriJb2cPvlf5sIpkiyoy4BXJXOK6L4peEodI8QfHvxVfafBZw+C9OvBLEo3RRyXOppCGLKMkFXZjkEkE9hg+DfDjx9rfhu21K18czaxrbTQTW1nqElq9zp8MkYE8TeaDlvKeHmPargH5QcYr648E+E7L4leB/2kvD/jTxNB4dsfFHjWy0l70fPK9jn7fL5at98hZkC5+UFgDjBrqxCdJ+0rtW0u1tur2+89OOKhCh2duvR2Plj9gjSbez8ZXWoatcab/wAInrUEOjTyxoLo2oa5Se4kiQL8h2qkYZQGVWOMc1zNr4P/AOFdfFXxvosE0OqSNqsifa7Rm2XUSM5Tkjcy4fq3OBzUmj+OdF+Blrr2k6Z9qvLfwTapFbvcEf8AH1PKZB5oAwZCCm4jgBCO9ebeIrX+xdQWTUPFGqWvia6uIJ722EB22ayyFzvYMNzeWNzLxjeo65xz0KeJxWJr1JStTkoqKtul7yenSzTfm0fDzqTrL2eje/yXY+j/ANlDWNG8V65rnh3UtF03xEjTx3bvJJJHPaiOCaNokljZSikyh8KeWjXOduKg8cXPgmPxPd+B9c8O33irR7eKGSDUUU/a9PiLshVduWVEJGGLYYAccmtnwnJ4Z8I+BvFPxG0G4jf7d4YlvLqyNmtvHHMGWESKyqFxN5ivhR8rA5PNLo1rpmgX3h/X7prlNH8Uafb3NxqLtui+ywupngUKNxd5FwAOgDNg8Z+ZjN1MVVqrm5IJKNtGppXdra36W6nsZfSThadtOvl2t1u2YXh79hLw14T+Impat4j1DXtJ+HNvOuqaPa6rJFHd6osYxDd3KBlWHeoyqnnpkAZruvjf+2P4T+G3w9uNF8CadbnUdXge5RbeIrJBF90TvMyjO9u0QxgYzXhH7ex1PxL8ary+1Ke81SHUxDEbyS++2WtqGgR7W3jZVCnbCImDKSWVjyc1F8K/DJ8R/GD/AISLxVdSweH9FtIdCtoMuw1Qv8kFokZB2qMb3IwFDDJBOa+8p0ZVoQxOJl0vy9npp5u+5tU9ybo0Ypd3+b+Ryvh3SNauG0totaaG+1C4bULS9y8JRud0fHT5wCD259a9Lhb4m/CTVdLjk8XfY9YtrfdHYSxjzktZwrK2ShV45AwI5OMkjFaXxD0m6+z3l9LYwq2m/vLeG3T5bSNOQFA7Y61jeFfG+s/GHxTLe3kcl3Npdnb29uLhwFS1iyQqnoVDMDj8KmtipzpuSSsvJHLRpx9py03LVKzTa23PafgXo/iv45/aFl8TQ6NHpMnmSERFm8xlOXTYVLZAIOc4r1z4Z6BfaBrTfbfF2uXrTAWr6f5CLHgj5WwVOccng5JHauU/ZL8XwR2N5pt95dutvcefbKQEmwxUMAzfI3zN0PTGe/HrWo6NJLp940L281+xmEIkkIjiVMeVIQcZJVhlOgwcEiuWio1Ic1j2sPRUPeu+b1f+ZrRz3M9tYXX2VLaSJzvEqZActhV3A52cHcpHUg9DWppsDao0l/pjSw29uTG8CqkkkMjSbZA3ALtvzwecHHOOK2nC7vLW186OG31T97HdzRwktcybETBOcrtbDL05z1q3p9sunahLLNM+lyMQ8XkA7JphgA7uhByxBxnG45JFdR1fMufZLfVdcFnHc2iyabdAym0i2rCU5kQJjGBu7cgg5GKzvE2r2NlNaXE8xt5rXVY7eOC2iZhfExlvfy2GCAxOCVYHmtO18PS3Wj3CQxrPeXFwLy68rCGQjJnd2DAjjAJA5JxjGadrni7Z4csIdHsbK6hvxtuRBMfOiBwFVIiB5g+fLE9DznpRGIpSLVp4dh8RysupWeoWf2eczsGYjzS7ks6kAKFHyjnBGenNb+h+HLG9HlTNeSXBhWCytroJIrEkHtkElCwycj5s1zHie31GPRFi0+1La808MRV5lSB/mRXRkbI8vaCX53A4PNbHw/N54KsFZmYxwX0k8rTXRYQs+MRqD8yxjb8o6LnPfipR0uTzEPi/4i2Xw/8AFl5/aVhZ2mnw28b6c8N8Zm34zImApxh+MEnjJGOK+C/2ydPvvihEs2m6XJqja0q2Vtb2biWa6YSFS20EFQzgLnZztIAzk1J+2d+2rc6L8YNZ0kac1vbiR5AFkZ47iTJwvbAbBPocYzXznZeML6y8U6tq2ja5eafqCQvBbzWU7NJbRuu5ol2/ejKttIXkHketaYLL8RUqLE6JbrzMMVjKXJKitXscnqeoal4f0RlvG1RY4xJBdO0rIlrephAjqv8AdChAD1xWYdat/HV5ptzeQww30EiyPaJEbe3u0jA3jrkMQOcYzu45o+J9rrUOgx232eDy9feN5ZiGkE8oAw2SOvfpyfeuv+LnwlsfC39i6bea1HqWsXVpBezR28KLFDuGMGUE/MAAcYOe+OK+m9pTjKMZv3pXtbslr6HzsnNtx6K3kcXqMX9lXUkYkbT4JpDMqRblYowIQru5JHzJgevvWD8S59OuLb/im2uLyztykTT3SqtxcP8AeLuvOGJJUgZHy1e8XlbnR7GRbyzubXTZJBbKzbb1Yy27dIo+7knjGRxWD4VUDVGuodPW4ba8S+bAX+zMcYkBz97OOe2TXp4eL5VN7/gcFaVpcnc1LCJtD123vlt47+NmVZrVsjYvHykdSQcHIPaum8TXto/iW2u1t5YQrRyAhjGqnBGNyn5eNvt+tVbSSbU9Psb2ZYVtZEkkv3B2yu4yCU7bu46dD6VJ8P7ix8YTXC6hfSW8U8TJtJ8wEKufMx0HOOewJqZe97zLjpaK67HsX7L/AMUrjw5r9r4d1i+m1bSbppJba1w7+VOzoEUHp5bjc+Rxkn3r6eufDFrrsdro9xplxr2m6tHPDDDclfJjkjIPmAt8wKsQQMknauSBmvgPQtEvL7xhpt9Z6n9nj09BcvNHG4ks5Yi2CDgDHyAgrkc465r0OT9p7xz/AGjfWlx4jm+3bBbLcjyvlVgd0uSmQPL/ALpyDzXi4vAynU5qT9fI9bC4yMKdqnf8DnviZ4Bfw74p1CxhvxcWqyGOCRTlpkiYkToM4PBIK9OeKtfCjxEbnVpDcXFui3g+0SPn5lZeSjL69McHqa5HTfEEMt5cTHUH+1WLsHZR5iONwy6+hPXHQivSPhgJdYFx4P1rT9PumuIL6XSLiMYuGuGg8yFFkU8rI0bKAejSCvRqXjS5Z6u39M4aVpVOaGmppX+rWkOkt50cka3rJ9mUxkRRMSV+WQAHdx69wMcVyvifxHIkirNYzXF1vkhClTujcHBCnvlhnIzya96+EnwI1v4W/B2L4mDXLzW/Ca2Ss2gxsXD3TyItvM6PlCqFtzEjK7SfevN/i9o118SLyfVvEf8AZ+jrPGtxZapYo1vqF7IhXKw24IWYZ6uBHGpIJdjwfGp4mMqnIlePfz7WPUqUn7Lmb97t5d7kn7EP7STfCTxrqOoNHp8MmqI9uBe2DTyXUrHlggG5jwAFHfiuc+MOgw/CzxnqmueLtUm0/XNeiZv7EciW9vkZy6+bb5zGuNvM20DaMKxrb+DvxfuPibpvjDwl4B0uPwn46FhLcaRrMrrPrV+QoaeBZiALcugO1bdU5ONxJJr5y1bw+qX1neX2pPNcfZwZTIjyzMzMcnB+Zn3ZB3ngk808Pg4VMZUnO8XpddWrXT9P8jiqVvZ04unaT7+mm3c+g/2I/wBuvS/gHqGvWfjXR9U1jS9YAktbqzVZJbMH/li0RwDGcHBXBBzwRWz+1j8RfB/xz8S6V438I6pZ3T6tCljfaTNaSwzWrBAF5kUITyQCGPTjNeDXuqW1/LpNncaWuh2djaPhrdPNkv7g4AknJIwG6YXhAAAOST3EkGlX2n29i0cdmvmL591LiNIlkUnCHOMhlGM8gt04r1JYWnCoq8U0/lsYRqSmnCTT8+ph694b8jwgRGu6RHjESGTbJuy2VK+gwMgd60LK1bSvCxguCZby3lYRWcjZEZAyeD0GG5xweM80un+FLrTZtWWadtQWyHmRSoNzmFiTvzyMAjk54OPWofCWn/2uLkpdhYZon+aXbukYqOPZsrkD0xWznpv5jUNbpDtDGl6BctpurWF1a2NyI5nk0+5/0ho2AKtz8h+cA4HXDDitOHUmsba11ID+0mtY2luHlkA82MvlWUkgkqM8ZOcdxkVC2nzeOdI0/SLSa1m1CWOSESzOsSF4s/u+eny5xjua5zxT4c2O00JJ09VjQKreYm/B+X1wCG+YfzrO0Zu19TV80UpW0/r8jd+JWgzaOV1l41t5NYhW7MbR7FaFs4IXsxUjjjsRWlceBNY8U+EtU1fRLVNUh0O1ie9dJA00CuV2NIP7hPy5xyeOuKq2+tprXmRbZo9yysh8gFY5UVThsn7p68ew6mrGn6FeXlrGLGGFr3UwbmVP+ekOVKrgnHBG4Y6Z57UpcySt079iqdpNt66dO/8Aw5k2E/8AbWkR2slt5dxdXAWSFkyrMBzghc544Gere9dlf/BnxJbaZbyfYbi1VtRXR5fNZo5Y7tUEpt9hOceWytk4wCBXDte3ul+JJdPmt/Ps5CZJV2BiMjHynsc+ncV9L/BP4aajo/jOxvNUn8u31C0t2j+0v5qSzMAWGxiR8yxqgZv14zliKnJqrWLw9Ln913uW/wBnv4Z6p8D/ABF4gh8Saf8AYVvrZWikeMzSTxNv6lDjYOMjrgV6d4V0j/hHPCkdtJcixbTllRGt4Fk22/UABDlmBO0k7WUsPvYrQXVJpNau5dWkeBtAdRFFbf8ALeCQDyzxgBdqLn1ZmGB3qeFNRsNUa81SGz+06PtEOUYMls27DA9NobcoG7Abr2xXk1JuT5mevCmorlRo6h4eupbfUZdL0+O9aNo3YmUKuVzE6rLnIYo+eeeCCOBhPCF3btrsOn2cyQvIojSWbEvmkBsp28zDjIwc8ge9M8IaFLrOryW2myII/tkwWC8JWWGLrJgnH3dwIbdngjIxUmvW40WPUF+1WQmkv82EjWhVhhiruq/xEDGXByRyAeanpYqzvc1bnWm+C8+l6zcR2OvaVNfxKs8eWlsFCN5tu8fOwHJIc5/DiqGgQxap4x1Mqs0kN5fMYrq2Uk26hwWYnldibepxzzgZqDwxqVxo1rda6t5NHqcIDGOWFZBNCnyyrJG3DgAA7hnG7pzWnpljqdjax6stv9rtb62nFxdWbxyqQQHVQpH7okk/KRyAuOKl2RUb312M7Sby3tNWuJrnffXCzzLZSwMVlgVECpLgj96MqAynoG7kV0cVx/wiur6FdNZ6ZIup/ub6F3dZlkiCn96VXcgbcxBxtHQ+gzdeg/4R+60yxS6nuFinic6lFC7/AGckI6xSJH87Kq5G5SCrKVPGKdfaqujeJb3UFkmuLaxLTrcESD7QhfLZ/iGcqW6Z5zjNafEjNe6/M0E8HQ+MNJ1zXNL+xyTKyjVLXzhHCjtIqoQoICoyqAjYLEHnBNRm4h0aOJLjT45pLVUsza3i+W8UYPM67sblDBiAM9M5YE1X0Nba68H6LffaLODV5xb31vJO6NFqEajYQoxllWRQCo5BPT5jVPxxdahN4i1iZm+02Nw6wTWlyxH2aHH7y3cYGFRm3LsJBGMDtU8vRlczWpvaf4Yj0vTdUW7WXyppDeXEi3IkjtS04aSNDnOwMrNj+HeMEg5B4w1m+g1Kw1i3Wa8hWYzRwuTm6RQfMhXaGGd3yqvBwuR3pvw60I6vc6hHcTeXd3ludOtHuBlXmGDlkXG1S4VNw5wf9kiq/hS8u7nw7pl1DHp181uzSXFrhv8ATbhrj58bPl3RhSw24yAOxGIldas0jFPYr+JV03xfrYvo45oL1Q00FqiFknRIyzrKeWQty2MAjYT3FaHxH120j8A2vl2ejrZ+JrPzJGikecW7KYlyYVBwDkNnOcKSRmrT6HcyWsktlGkMN9dvBLKyiKO7O0lcoMuGXDkEZ3ZHBA4sXdra6Hrl5J/ZdlbSMj3V9YAfZ2+VlBB2hgqlZPvcAquDyc1PN3HZoz7aDFvH/wAUvpd18o/fCx3ed/tZXg568cc8UV0CfFe68PIunx6KIo7EfZ0TBfYE+UDdu5xjr3op3f8AX/DkWfc/Iywl1qL4n2ureE45NQvntz9r+12/mxtg7n+UZG0AY44A/XsZtOsPFz2d5eWGp6bNc2n2+7mj+XYoYq5QZH3X4wMZKn1rVuvjZ4m8XeMJb6S60+x8RRoLaRp7ZbG61CJx8jecoCTFlIb5sOR131a0rUPBHgDxP5XjzVpdcW2eQ2WlaYZQ0E0pG9JXPlqUJUHCscFT1yc+hVqu6bjql01b/Q8unQiotJ+6310S9P67GDf3Vx8I/iTDpOiy6lNPcf6TBd2bvDfTrjK4Mf3mHIIYHoOlfQHgD9on4nfDvxAkfiDWb/SdFYG4g1S4vYs3A27vLnsm3PIF5B2EPyCD2rz7W/2stK1CR7fQ/DcOnyWIe8nXzThIwM7JEhEe52LKuxi33vmpfg98dvFnifUdfk1OfR7bTbnQXv4obGCKCS1ljVCmwoPmU+aIyrkqTxwRXlYynVqw53TSt3er9POx2YWVKlV5VUbv2Wi9ev6nrfxM+Cmn/tC+IdJ8S+G7PUPBWralaGX7Mt0dO0vXbyTLedDEyeczFQzMmwbuMDrnz/4o+J9L8J6jZeCZvDa/2wtojaXqF7ZIraVIAViiljIcKpJkcNIGMbSZwF4Wx8FrvR/ip4wvpPDcN9FrVtCLa50rVbsDSdWd2PkSLLI5e2lDqVClmAZlKsuMVY+LUcHxn8btqk1rrmj/ABm8LvFI+k6tcMpuhHHgOx+UXG0DHm/LIu394rAeZXmYeX750pt2h8rN6q/lqrvazPQlKlyOVBK7etuvf/hjzXxS9x8UfFujrr2oWWhXKaJbpJquqwySzafdNI8VxFK5y6hZI2BK4OCOg6WvFuh6fq/wjtPCeia/p+pWNrq013omsxO8scE5T95byO2GZcAFWIDAKp/vV6V8P/hj4o/aZm1zxFqvhK1tfFXhGwjvJrCwLPe6jOwJiZxIfmlMiF+hyYypzxnrPiRDo93+zP4V8F/C3wnca1puoaittFDIgm1qC9lJKyNKFUviRJBlgAC5QjHFZ4zMI0p0qMk1JySVrNRdm782223e7PPrUYtOTfxLR63eqXyPIfAfjfxhpXie61zxN4i8uTTNLCQ2qW4jsJ0gxgtGRslRvMYHcDyQT2r2z4ieJdSvvhXJ8RG1xobXx9rlt52l6dAJbWV/s5a4kZnOY97xAAR4UFTkZ4HzlqvwXvvC/wCzz408WTXVxqWqahqNnZtpxLstjZIwjm3ox4ZpAVO3GBGP72Kwvhf8XZNA/ZRkj16/1C4XSdYMNniPzFRGWQRoPUgswGP4j3xV5jgYV6SnTtJcyjZK267eTMatRwj7Curt63fra/3Hon/CureXVb7Wrqzm/s+zuZ/EN3Nv+0QXF8W2pGyqMlI8biGGAo545ryvw18KLjX/ABRcaprd1HItxfLcpOtw7S3e4kyLIx2jD5zgDIx6V6Z+0h8SNW+A/hLRbzwrYzLdNJDPrJUedHDelELQXK7QHDIpAXngupORzY+E3g6x/aD+EGteJtU8EXHhOQX0Wp6Vf2m610+WaIM7RNBuPOwuI5QiK2CpLGnluIlQwcsVU+GWiaeqs7bb67+nTQ8r6veX7pqLtfb9TsPCmlaEZfiN4Bt4Sujw6dJBZ2Fvc7ZnWMCUorSHH+sxuycAZzivon9hP4J6f4y+HNnoN1pOm2cCaRc6QLzU/EgtfIa5DGMwFiMShSoaPJU70OBXyxc6BDo3jfVri9ju7u61K+lvlmhQtHDbFfMuIQB8xcptDAcEuByBk5P7M3xu1jxzd+NrWHyY9QsTFcWJu0RlEZbMwmDN+7U7EUDI7LnkV5dHAyac4PTST85NJX/X1PdyzDqNWEZ3u03899fS34neaT4QutY+PXir4a+KrPWV0vXLu2h8PQpYET2c1hNsiEUbYLK8PnW8ZA+chDyuMcL8c/EniE+G9ak09rTR7jRNaS1trC7d7NbGF4mkRGyy7mzuYFgQ+SSAQAPZNC8W29j8P7rWrqJVvFjtJtClhZpLt4o49ssik5aJI5C6qMf6yQoOQTWx49kX9oNJPFkuteDdY0P4pWskttoviHUJbEDWopYGuLeO6X5bZQgldCG2r5w3J96vaw9ZyrXnHSNlrs+/ztuehiMJyUm4Svz323S6X+e3XU+ffg3+0rfa9ruj6P8A2Xa3+r31yLaew374ZFJ+do5BkMhAOBklTkHjBr6S+Glj4Z8K6d4s8R6hNb6hceJL+VoIfJES6fbdEt41AwApC+nQdK8sl/Yz0jxJ8U5te0LXo7GDwuqMFmuoJLDR52ASKEXdszRsAxDDCqZMcbsnH0H4b/Yzttf063uNV1ybxBHYR4uI7Kb7PCM8BV8rLHcQpy2CQe1LFU6U2oYdqKfxXv8AccdLCypU5K130f6lH4d/DeH4m6bpuuaXDq2mSW5LIQke+SXOFKkDG0k8k9sg45r1e10yS1n8y6jEl9a2SRXYnTbDOqy5WTacq0mcqdnTYO1T6J4Nk8NiO18OWMJsrBEje0szLLNAu3EyO6qR5mQwwpfq2eeK0ryOXw1rbRSrIv2iRjEBIr+W45+VTn51yAFbG7HJHNRTjCHwrX8DphTsin4p05iFHlzCeOFIt7OAUMilw4zwAqjI7ZA6c4j1HTr/AE3Q4bye8vrT7IoZrYw7iTuIG/BwY2zuZhgjp7VT0+5msbuEX2npHLdXYiiiflZZQ4/dRFsgvs3Eg5wMgfdGNCwdNWvvLjW4aCRiJY1dpAWBLFRu4Rtyt8pwOTjFbe9uNNbHW6B4rbRv7UkaS6ku7V42naScNBJN/rco+PmUhgMDOSDyMmn+BJfO8YxWsyXkjXU01vLKEDS2MrjJEW3JViV2lcnAVR2FVfCmqQ6fpdrIY5prEBy8SxkBIyfkDD6uwz349quPcX1to66jous3tmTdrNb3NnPHHIsynBZmK9wQAFGBjJHFW/dsT8VyfVtBh8L69f2jW8V2daRp7lLiB8BX2KJCpwRLxtZ1zuJGQK4b43ftAwaR4avbXSL2zN9fb5rgsokEspUAld3JVAQB0B54FdpoV1408dI1xrHxC1a48myyUuyFiKngqHCg9cEgjDbT0wK+BPj74x1b4Z634n0e++y3l1cRyQaV5KbXMgC7lJGNygncCpxs7A0vZ1asrLqDnSpK71PHPjd9qvvi7JqXmW2sWAhjZ2wNsUqbmcAc4wDuyOAP0wtJtoV8V32sSWU22S3imhmhuFHlEDAZkweM7fu47fSsRfiCtgIhHatcWsa/6ZAtwVd3ZcOqkA4GSfrWlZ+NNN8LS2drC0bW8cohSdBmSTOMFehVg4GQeDX1VKjOFJQXRHz8qsJTc79TP8XazfW3izQ9LfTZryzuYhJF9mi8wXD+YS0m1RuBxkHHoDim+OINDt7xdJnuJrsozSWc6N89pPsDOGZf4ehKnoQ3TBr0PwV4j1LwT4y0bXNFuLyz1Tw7qBl0TULa5FtJZ3A3Als8ANllGflIGK80m006iNeiv45orq+uDcSmdl+0Luy29Wxk78kkg57HPeqdnZ9uxFW+vnt8lscXr9/JqN3NDItvcSTRrmR8xvIoXc2McYIGfr0rO02W+0KCTyPtEJmdCA6Z3qhJb5s98446e1T67qJnvYbjS1mK2eIx5kgH7s5CoenPLDjAOas2vk27QrPEi3NmCSiT7onJwVfA9OckZz9RXqRuo7HjS+K5r6re3FxpcdwkcdvosisE077QfLjkZmIAQ5KnBbOBwDnvVwR2dt4b06G1tVeS3kZPND+YxVnB5xxjDAccMMdOaz9F1D+3tFmfzme5+a4LSLuRcELuHc7gTkEZxio7bSo/7StY7W8t1WRd0oVfmic8kbWx0BxgH6Vi0tkbRk9zU8M+Irvw9fwacLgQwrI4kjddssCk8qxx8wGNwB7d61tPu20jT5ZGjt7q8bMiyvGdrRvu++GXGdgDAjI+YelUtWgjZ5Eu5IZI4LhFknjTDTgkqnz9F4OQD7jNUE1a703XnTUJJVfyfLDF/vqDgEq3seg4OKXLz7FRbhuezfsxfs06D8dby6utO8SeD9BXRpE/tG21vVlt5b4lWXykwPuM5GT90A+vFUfiv8HvGnw78ZQrp+l6XN4w0O8h1OEabqdtPCBAcJLuV9u1TEdx4xgg9a8o0vTtJ1jXxc6r9sfTI0829t40wGVRtWTBIB5OOfXrzX0BoNpYeEtG0/WIdQnvtJ1C0CS6VNZSWb6fIqBCJVGY/mDABw7k5OcdK+ezTEVMLU9pfm7JrfyTv+Z3RxFFUbSVn5Na/hp8j134GfHzwj4K8J6/puo61pNrDeR3D4uE32lsJQ08MMaPxcvGxKZICkIvDda+S/GB8Q/Gn9qiRtNurjV9Z8USR2dpc3k52mVtwTd8uFDRqSqDAUemK7rxB8NIfG+v2OlaDHcJPaSS30NvpKLfTadDiNXErZIkj3tuHzKV3SDjAJ53xZ8IPFn7LV3b+OJPFGhw+KNODtaaLFcJPeW7/MizSJu2W5VW3DJdyWPAHNc+XyhaU6cv3klomup2fWVU5PbRfJF6tfjv1PLfhJ431T4d/Hp/ElvaSa1PpUqyROsLGNXDYDOR0A5HPBr3r9p2+8H+KotF1Sz8N/2Z4yu5PteoDy38vVIJUTy5M79ocOrEoFHJ5zmvIPDvhjxppiWes2Otw2FvfTecltZ3UTQyrJ87L5O47lY5yGAA9q0df1LU9dgvvE99ut7ydgFt0QLAEXpsXJ2gMpwB0yDXuVMM54iNbZpW0e/k9Njjp14RoShZtt9Vt1utd9CHVYre+smsLi323kcIfKqVlErMGLD/AGT6dsfhUNrqTWdhdNNHDcKt2YW3riMxEBfpxg444NVfC1/9q1yXU5laZbgSSy24OZIc85GeeCRx14pz3E3haO3vrVma1uLhXQu+7cwH3s/3dxPHUHFdnLZ8hx811zm94a16ZddWNZjp/wDaFs6IFkCxGTHMbMTgKwCn5sjJ4FZM5/4R+7urqCVl+0RJHcxK6hLiM9encP8Ap3rc8Na1BqUE8ymz82TZcyWNyGeO6PTbjHDk7jnOOR6ZrPso4Y9duZZLGCWPWrc29soyfsytlwwGTgqUcHIwSc8daz2bsvyNr3S1L3hPSdPn1fT7HWdUa30vf56XRAkaB2Q4SQqSQCwABI6ZJrovBHgXwbqnxNGheMfGa6J4fsxNdSajaWj3S6gFwfJhIX5GPOGYbe/tXP8Aws8Iyan4X1y6mn0uyaO1KQx3QLS3DFw2IiARkIwJLYAUHnkVU8SeFtW8NQ6XDf2OoWukXET3NhcXS5juImbkoSOQQW6kgH07l05OKZXK1BStoTvNY/6W0NxdahpdyjraSlRE6ushELt6bl4PXn1HXa1C1stLj0mFLoxRwllZo02vA0iAOnzsBgN97pjJI9Kk0jSobqe10y4uVj0ewt5RvhTJBUHGV7sTtXODjdnpyLXhG/m8IaNqFxdaBpOuWN/GrRG5BeaLcvMkY7OoGckH8c1z1JLpudFGNt9j074S/s96b4l1q7g1yaSa20nZAEtcXH22QdHjlXG5UcYIyG2tnkZx6pothH4t1dYba1+1anPcyCSSO6X7KIyxMe0cFWXkckjp6nHnvwJ1p7m2ms0e5Sy1SUeTLDEVjSVUJBYB8LGwGS5BweK7/wAFW0mjPfSTW9rfXFjDLBFFAxVRMcO0YZSQXKKSG5DdxxXl1JScrNnqU4xS06l/4h6hN4L0FrhZJF0+W7gtIbm9DSyHyQSu1kyOVLFnAIw3PatrwlJo+seF7mz1Ka503VIbtbK3WVdtreQzqxy7dW5CFQwBQZIPAFbniyR/iH4D8J219Y2Mej7JbrUJn/dz3sawqPJD7htZDg7E53N+Bxfh94b0vxfDZx316sZkZ72xW5hJukKMWFu2Dl8RxsWIB4YdMYrFSi46m3K+bQ0JbbUPh7aaxeSL5rXMosNMV3W4YycZZSwyYGyTuwDwfesPxj4o1TQfC/h+8ubO6kZtanUQCXz/ACNynM0LYyiAnPl8DJ4A6VqeE9I1jWvEutSNI9z4V01vslleCSGW2jLspCTnHyALIcFfvBcdQTTG0ZfH1jo2ktNLa+ILG8u44Fa5SJJ9sp2GRCQAoZGK/NyAuBgE0RlrfcqUXFduxXW+NlOL37NBqUapsTahjjiSTBDIV4HTJGCCQRmt7StR1C20WxSGdpv7SYxRXkDfZzbMQS9tyORuX5TxgHv1rgvtv2nWLfTdS+2spaYw3Fkxjmm+Y4Cnp1Vm2k/dI61NPqtz4stI7P7Y9vDmKfe/ytczRAfIGIxGzHaSvIPXnORUY66m+IqQcU4W13S3PRvH/gu10vU9E1/w9LIskxSC+QhvMeUEpJJ5ZUYB3nkHGMMetY+k+JYNRVNH1E3qNZ28ygRyJ5kxbOCD0K5ByBycY4zxV8ReDbjXfCXh3WJPEV5pFxq2YPP2qGtlyGZNgwPLBY7R1wrg54Jz9P8ADmo22mSR3yx2erX1y0elxhiYZ4xvmVuWBG4AqcfeLKO5NEbW9DkldO/c6TwfNpcnw43W1r5F5Y3amMSxBZBOXU744sYOQSwZewYnnGJLm7g8XeMLC3kaRYdT22s13AVZUYlwzqgA3yFlyec4DDgrXO+H7hvBurQ3Fwv2vR9ftUuIkuTtaAbxFvjlDZBAZf3e7kZ6bCa67T9Hutb1fSvDsOpectqt1LYyCNPtFtNGuVAxgsGGdueAec5olGwQkm7WKd14juZfB1pa+fDda1JetFf39jAVXMTGLBGPlkP3t54yeuTxHoOkX2h6jGkpm1KfUJyIBZXHmSRiRCPN6gMWzzkjkYPANaVjbXi3q61pd9DqcOoXMjXpECRtMJiFkaVgdjFXCAkYYH6VBqelnw/rhtbWzisrm4tpLOSaS5837VKxdk2Zxw2SpIxt3K3eiO1ipSbfMyro1zeafNJdXTLcSXVnC9lE0jOiKGfYSVI8tgmUBxuBOBkHNO8OveXXhmxtY4pru6gZ9PsphGLhrvz8h7bIzgHCqWJK/KpLDqGXJtf7D0fTbi3uIZDbJloXKyRI6qQm3pIyvg8DCHoPmFdF8N7q5XwlfapdrYXFxG6f2fPclmkGTIWjRFIUxsvBJAYbgTyKzlbccb7HOWv/AAj5tY/MGteZtG799nnHPKtj8uPSipI9Z8LxIq3EkcdwoxIgFyNrdxjZ2NFYcs+7/A29pHsvxPgnxT4W8M+KfBxn03Wr6Gxk8y1jh1FVl/si6VtkiOmC+0AjaQeVI6npi6n4D1TW7fwboeuWo1qSCWC1sNUtVK6laQ+cAsTMwUyQqWA2S8qBhXA4rnPiV4l0fxF8VftHhGyk0/R7qAvYR3G//SpIhkCQtn532tgAkA4AOBiuy1GTXvF3gq38a382ran4fkvAwMgMd54avYfL3IrIAkts7AYDDvj5HBLeqo1IQi7/AH769P63PHqVKc221tpptZdfy9Blj4Dm/Zw+J/ibUtc0Pw5rWht4of7VHql/5NpcQpK+bKdVPmxuwLgggHIBXcBmvpD4e/Bj4b/tM6Vrl/8ACnWJfDP9oWYsNQ0uGETSeHonuElLJbEKJE/dAB48Bl6jPNfLv7T3jnVrT9oTxV420SxaHw/44lGq5uLYS2OoiWNGlidTncqylgVIJB54ODTbDVJvhH4N/wCEg0lrzwL4sW7s2mewuJfK0zPmtHEBjcrMuCwOQowp7gceNwdfEUY1KdRxqO1mtVey0lHX7yqVaFKcoKPuq+++/Rnsn7RfwS8P/A3wb4z8Ow6rY6xea0bZZr5kNlHPExIVhb/ehUNuJ+Y5IJ4Arrfgz4k0T9oP4e+ANO8S2WtXPj7wHfx2A1tL4tfTQs5MPznlolUfdblQoKt1B4Hx5+0doP7XXwv03SfHVvpreILrMUevWTCEGZN2GljUHAzgnadrAtlVPJ9J/Yl8J3fw58JDUrjbb3SySxpdKyuWEfyIVbOSApGMdMZ4r5ynSrww03jLqrzXfZ+6o6d00tVpbQ7ctkp4l+zS5ZL/ACf3+Z9Za98Mbc+INavrG6urSS+snR1iU/u5fnTzS2AxZGfdtDADBwoyc/PPx58CXWleIPMhjTSZvDmjGG1vbO5QLPcy3JmmkmULykoadsqAWYr+P0X4b+JF18UPD19oOrAahd+Sq+dIdkk4OFIZlwc+/wBPwx/i98IBq3hy4j05Wjt76yj8tyfNMLgMASeWdVYL6kgnuM15cozUf89mtrM9zGUVVjZbny38JtFT4oTeM/A14NPih8WaK+pW1xZCUESxqkhk2sMBmAyRkBiAdo615B8EPiTF8AbnxdZ20Y1fQ7G2mvVi1Swjhe6bjytycqGWXBVlHG7I5FfUPw7+FVj4F+NfgTWftel6hrWjsbbU0jWVDqVnKHIcIVASQ/cO4kKq4yTgHm/jf+yT4q+OXxT1rWdL8MW9rpMeof8AE31XUVis7C0ttzM0wlUDeiKRtjVS4AVP4RXbQrUJp4WpLSSTt2adm7/lqeFiKMlTjF6TXXfT/gGb8J/ixYfE/wDZMvbzxd4fsbW3v/EEs8LxQRSW+oh1Xeu/IkzC4M4UhgQ21iOK6DVfGvg/XfB/jS1msYm1K+kS9iu7e4a3i2QM0cQjhVSiRner7Mc+WQW7jzj41XljqXi3R9G0aaOPwF4Zs/K06KNdsrwpIV2ytjiSSRXlkOSSWUdBWF8EGj+KOoeO9UFwumadp9liOZpAxjgB2mONeC0shZUXHeQV5NTBxnN1KV4wTvboruyXX1+R40cTJ1lh73Xn6a/I7z4MfFSTxjb6l/wiy/Zry4P2OG9lc29zcBiFuZ0lX5/NKEonlY2hjktjNdl8df2b9U+GvwK0mC30OfxxqGvj7Fe3eqottcMHLzMI7oHfHHGIYxiZnV2bGMnjyfwV4A1DWdbm0G3e80nSYdHuA40/cnkXoZJEDsuD5e0yhixC8EntXoH7QHw88T6JrvgL4e+HPElxeQQ+FrS4l+zS7VnQxvcySTMcfIihyQSQCnUkiu6jUSrKGHatJ3tq9LOzdvTbzuz1sHj6n1f2lNLVtJLfX8k13uczL41+F3inw+vh/TZfHttrWmzRajcX9reWt3BqYiDYjikZUbyVkO1VClevDZzXYfsW+Ota8Sah4z8J+EfCmoeHfD/ijT3uH1TUngvVj1aFXnC+SEjSSSaFbiIwoeA45G3J86+GngbU9P8AFlnNY3AXS7zdcIJbVJhaSvgGKPBBy5JIGSOOwHH07oMGqeE/Geg6gsNi2paa8C2lu0a/8S8SYMsiqMBXK8MwGc+wNepLEU3P2UFzJq7bei8vVvp032tfuo4ipUso6Pd26dtf8vmQ+Cbqbx1enVrL7L4S1DRh9l0TSrW0S3hggJztaMAROswGCozgYUY2qx9N8PDRftq3N9NaXWpXCJHey2tqsZvp8bPLC/eVFO1d2CTgnpXJfF3xknhvX7ySxWKzjju5Fs3t8SKVQghlBPORsI/KvGvE3iLTdamtdZfX7ea6vrwyyWyRzWrQ7ejknpknqSPlHtWbqNytHofQUcvbp3n116H0i9rLZteW66fFBMzPbtDHcOzqW4KsASOckEnByo9RV6A6bpEdnfWLJEuNsbggxoeVI/TBJHqO9eb/AAuTWvEHhBL9xNNbrceYNRRll3hQMr5it85yScc8Nwa7LQ9N1DxF4dmWHzPLhxCqS4WWJg/7xlyuFLgbvz6iuqm+Zabnk4ii6UuUfc2smjSn+1J99vChuYbQy4SWeQgR+WzD5XPztg9Qx6Vtx6RPrctvd2Z+3RyxJLnb9nYPjbIpXH71CCGByOMgZwBWhd6XBp8z2E+s2clxcshgbzAJFIQ7E67WOQOT1GQDg4q7p3jFbuzENwkgbLol5bJ5oQwsFyEGSMMMkcLjiuiMV1OSUn9kzwmuRa1Kun6bp2tTTXBtpiZBa2kNunziTzcHaflUABWJ54HUQeFPDt1Z6umnaxcafaxXF8zpb6RaeXGGTMhJlkJeTj5srt7Y6gVv/N/at9DMbb7FGkSXM8GHEkm1UXap5yRuGM49xjNJoPg+zvf3LNZQraiMP5jsUkZVxhiFBDnLZOCvz/jVKdmrL9SOVyi7v9DL8V/st+Fbm91TV4Fn1Dz4jGkdxcyPEsocdiwXJBbLknb0HORXwz/wUM+GWk+HNX0htNWG3ljvUtLaJ5GJaXytj9OMEDsefQV+jfiye30/TL6SBv8AQ9NQvcWEURMQYxIVgLHo3TnJBJODmvzO/wCCnPxMWfwtELybZdWOsI0AOPOt2RTlcgEEAEDr1BHQZowtSc8dBLuTiKcI4WUn2PmfxKtro0LQ2NrJ9ucSAxxxnbOm/BJBH3gevbpTPEHg2XVrRrWS6aF9LeKSa48oBAr7R1UAHHv2qHSJ7/x343t5tFnx9kjMmLreLeSMD51+YD5Tx9CK62KT+wr3UI7W3S7W0tPtdtcecHBTG2RSOjYGcZPIU+wr7CUnGyW587GCldvY2NVgkvPD+lWuqM2nzTRRC2vY5j5LgqwCzIf7wAKMMckZBzmrMa2es6feRKySahYsizwyKPPn3LJkhvUoM57YHXNcNqWpad8Q9DvtNGoRyKpSWxVz5bQSE8FCBhlG4DtgDtim6d4hj8OW8tvZNNa6gojt3ZoPMzOI8FgxG4fLnjOMH8a5PZO1lube0s9djg/Fen2E/id7PSUkaZ7hmGCOBnIUjGcj5ieTnjFU9L0pbuzvI7iSVXt4l2boz+7BY85/EdfaofEum3SeJri3vCBcwT5mKDczyDJOCODkc10Dm6sUVVvLa6bWI2hTahaSMbyAkh28ZwCOT3ORXtwvy2izwp/FeSOZ8PXjSagIYpmkjgbymMeUZ1/vk/h+VdDpNleXf2i+S5kt2sYGWRgAECc4Oc5yxXjHUA1yul3NxoBvFkhkin6ygRlX+90z0x0NTpeudLyIpPMaDyxKmCHU/wBfy6Vco6aERlbc76GVdQ09ob5ttxdtFcRylc4Tlg6t1zuJBXHAA96m8L3M/iidZrXfc31w/wBmELW5MyEEKQvByTlSODknitj9lf4W+MP2uPE0Pw/8M2vnaxeQx3SSPaj7PZxxnDzSSdY0UMCSpyxIXBJFfsj+xn+xToP/AATh0cXWiwQa34t1RFOp6/e2avNIQclYAwPkRgk4VfmOAWJPT0cryKvjG7e6u76+h5eccRYfAJX96XZdPU/Pr4Ff8ExfjB4w8CabrFv8N/GWi69Dfm8S81WKHTLaKFBtjRFmcGcucORtAAGO9dt8Wf2DvjZ4Q8CWs+h+BdX1q10u484RadGt1I8u5ZDvjjkbcvDA4OOuAM1+rut/HyH4leHm0+6RdP1LDGG4D7huIwcjr9cVt+CUXRtKjSzul/eQCGUx/eQ4x5i5/ketdmM8PcFXkquIlPmT2urfkfMf67YmdROmo8qS6P8Az3P5+br4lyeOviv4q1ldPfwlrVpoV79otreJrRU1BPmClHAIk3DJDAkjPTArxWSDVNa1u6+0m1k1HU5fMvbu4bzpbjkDDsxz35GeSec4r9pv+Cvf7Itx8Sv2Ste8aafFYweNPCaG/wBXvUtYzJqumof3oLgZeSKM7lY87VdT2x+M+iahDrOlLLNai21TfGrTvMMhGxGvGMBcYOefXjFfO4vJ5ZdXlSSXLpyvyX/B6H22W51/aNFVJaST1XS//BNrSvB0fhjTbd49OkvIYxOolYAtDIBjYzAf7OQDkcjvXdWvgpLTwMuqtMusSa5G8FvaFklm0uBVVpJ5wCNuGwigjJyT6Z5C78PNax2Nv9suI5rwvJII/mhZfMUsRt4YqwJOM5GMDJqf4qeGbzwRq0Nmsy2c0ZlC3CzJLbyIAvzb16Bj0xwMgZrhqR5mlza3Pbpz5btrp+Zj6joFnoXiW1iMcNuzIEEhnKxSNyCwYc4PUZA6Y4rvPgjr+hQWl1p3ijRRrGk3dq+n2U0spj/s245PmgDnfu5yTtI9a43Vr6PV4Jb6bz/7Nh8u6OIfN8qZ14jYEY2cnBHOCOvWrllqkkem6haWKx3D3A+0W0bN5jRsFGRu/vYAx6FsYzTrU3KNmTSklO6Oy0X9lLxJrfwA8UePrOGFfCfhe5NvJes4c3z8BVVAQyhMgM65AYgEYPHn2m2v2TT47WRPtF9MGiURtxCz8o4I4I+8Oa29P8W6lYeBZPA76lqCaJqU0moPaRykRRXjoAAwHGCVOe6kdPXH03wo2p2+pXlnbtHJo5MszpcZKoFG5Cgxxz97gZbHU4pU+ZJ879CpKOjh8zZ8Ltf6Tcw2um6hNH9rtJY4YfLFzIRuIaMjBO7jgEeuMV2kuu/8LJ0/Q4tW1oTJaIYbZml8v7JA4YIFUA7QGzuXGDkcYriNHljuvHn7hV06+MgmspbdzEoYjlU77xkYGc4z1PNdd4k0NvDd9NDNDC02mxyIkkT9EZlDgKPugMzHvznpWdVa+ZtR2stih4BuY7DXJk115/sdr5sNtcW1uAk5HCblwTtHXdgn7o966rS7vRfFPi3T7eVdajaSdoYZtOiU3UgCfKfJPEhbaRt42jmmeHvhfca74ct47SaaPUoJLiOe1yGEqAoY5MH72RyCOMgDFdd4A0NrLxrZxrPbqJGjtQZ4kikgcuCFWRRhZWHyg7sHftzXDVqRbv1O6jTklrsbf7PvgKz8F+GdU/tBptQlhsxdQfZW27RKn3JUbLKGj3blU4Bww+6RXT2V6r+HbKS8kk1jVtPvV1CT7LIwkntmEoQHopeNVwR/EDnjFas/hVtY+z3ml7vOtbd42tvniMt4RmW1fuWA34ZTjDdxmpfCdtod14paG2a40i9uJD/ZsFxB5zPJFGN8bjhdvMmGI2sMgjIArjlPmfMdcadlylvw3BdXPxS0+1klt4fDtvb3L6gtwWkt7q8gUHzYzwVmKMuNucYbrW1d+OJdI1IO8zWGmtdPZRCNFjmit3QvIJZcENu3Hkcj8a4LxQf+EWWz8RX9vazRWsEloUsQFBZhtEqFTtkHzP8AMMbR1JA5vS/E2yg0zT2k1nWJLO/0uN7q4jswvnKWCgTBRtBjwylgejJ97BqfZt+8ae0suU2b/UZLTw/b2slrcTW73Ut04Eiukk0WMRqFUbm8tSVI4JXuTV/VtT0fxd4x8y0jkuraOwiVG3EwuQw3llxtbarY2lv4vUkCSy1O78b+M4dJXUl1S+vbX+0LMJEFeykj/e+cGGAuEIByQG+uKsa/eW194UebQrCS0tL9XhuMy71ErsPNeE7QTtZXYZwTgBTxzEdGU7tXuVdc0lPCej31uTNqS28726GYKUsyyMkFxFtUl4zncTztJGeRmsHwmZI7qW327VsQlxLDdJ+7ldFCfZ1I5Y8AknuuMjANblx4Vkt/h69q7fb4bNJI/N8trc6nIyoE8slQdqbo1Yrk7lPXqJdVvYdSFqJrGfStSjmgZ7pNrRlXwxDA4wmFYhgS3B555uM7EOLbHwR+RLqOnyXlneG1P2mxgt5fMSNtg2KmTjyCH+YnnCgkjpW1p19Yz2smmyveSC3eGSC0VY90wiRi8YJUYCl9ykk79oBBJArJ1fTra8GsXDXdtazXVxAsU1xtjkuWhTcXfb8qozfIRkEnuR1v6zotxY3lvcBbi1ktWE3lMo/4l/yhoWaUblLbo9xAHIcEgDJqutg1tdFfxd4THhbWNNsF8WTyrdsGsoDa/wCjzXExwUUNhVjJKjkAAY5GcVPpGkyavb6XqGmNb2duqiK5kY5jhuFwDDC5wVUkMWXrxjJGKm0vWvC+r/DO8bWVvnvbi6gubmWJw3mO6FHliVRlc5TcsZON+eOtZ3gG80uzTS9Nspr240ewvpWnYpnayMNrDn5GO4EMTkgDODS5unYpQSV+/wB5t20um6Vd3cViJdPkW+EYW7gDLcLKhIlwModsqfN0wwXGOar+O7W1ub9tUVmbR1kWaa3jzKIY32Ga4V2A2yA+WBtO0hxgcmui8M+GD4n8EWuuSaVL4g1TVdQdLc2dx9laJDvEsyhcDhnXsMHbk96bcaRZ6D4QtRIkf9nwxt5cVyxmt7eKMFC7MG/ug4LD5WjGcHrm5K+41GXbQxL3TprbxJFrAuBZz3R8yB44S7QNKpkd1YH+FVSTGRkNnAABpPAPiOBtLvtNumkW60eX7QkkYDG5LyNuZiDsIYtg8cE7iOCBn6Nr114RvI7a41GbUpItOSxivoUMY1aEHyWkQKPmCwyLliM7VDdMmpbaOHRPDv2eO2vre4s90QtbdQ5jgYvuQnaM5wHzwAqHgk4pbqzH8L0PX/Dsel33h+xmm163jmmt43kWfSd0isVBIYh8Fs9SO9FeQXPjVZbiRodBtZIWYmNvti/MvY8DHT04orn9jMr2iPzs8aaPH41+M4TTYobe1EEMVrcxF0h0+xQHyzggB5NmAzAYaUuepNd14u1Rdc0jwv4P0XWNPsNH8mZZJ72bZG1xKzTCEDI3PtiR3J4zKAeSK9A+PXwG0X+0I7Lw9ND4K1yRLW7ksUt3ax1CWaMO0MMpYiHLOf3ZO0OrFSNxFec3/wAAYL7RjcfEeCdvE2hmdNJ02R22ar5cSTS29yiYkVgHVwqfO4yDgEGuyOMpVYxu7W6db97bP79DljgalOcpS1T26K2j1ff5HEeBPiDb+DNRs9P8VWMcWj6dfPHaxX8XmRTzr91whDFER8uJF+6flO5SQN3wn4Hj8X+HvEeoaq0lv4Ziu45/7QurhXfUioYkxbBmQlpSTt7kVHD8LPBfgvW9M8TfEO9uNU1LUplW10fJhWEFf3YlRNxSFQFwmQQCeGxg9V8XPj74k8HeGIZIfDK6bZbJEhFtcyQ2dtGPJUCFo1G8MzlcqRkxn04KtVzko4ZO73ey315b7vzMvZPkcqrSS26v528jzz4ReB11jxFb2t5o8Onw/bPMtLOYPBIi4JDlS3mFiMfe4619geDrg61o1jDFaC1htT5HkglfJVs5IGD1wOa+ef2X/EcfjX4geZeWei6KrDddn7IFmkfHDrccszHHRsFcnrX0/pOoWnh7VDAv2iVVfyi2OGU4HA9MgYPessyoznJOa1OnK6kYx913v1PSPgHNOvixbiZfJa1ygQr8xxgYY9x3ya9Q8XeJrWDUI7bzGht8AvKqkqoPODt5xgfgBmvOPhjJ/Ys19fTSj95xg9cDnkevA9+Ky/jbr/k2dpcYaaG+hntmYSMoikcDqoGG4wRnpXy+OhyxlLotfuPWli/Zx5mdD8QfHvh7wfcwXM1/9ojsYS4MMbxwfM5G/wA1cKxDDBHze4r5/wD20vHHiK9+HniOHR7rV/s1itvcT2cVw3ltF5hVmZFI3IrbchsjrwRkVa0H4g6Bf6BcaDNPbXk1xazLbS3Mf2d5I2zuQtuIMisBICRkbR6nGb4i8YWngr4qWtx4i8Paxri+JNHudJvrQgRWt/bzRlPMVxuBYO79M43A9QK8ypSdPE0q7j8N2/RWdvz+Z83muIlUcJLRdX22PFbDxVp3ijwr4b0vSZWuLeG3ae8JtVi8ySXG5NucKgYMFzg85xziuk8H+DtO8E6VaeFXuZry3a9e+vI7Z9rRS2wIxkLuYozEDoA3QEgY0viJ8Zrzwboeo6HN4d0DQda8Pi1sIZ7WxgEzPHCkKTyAc5VCpYqRuYAsOCa4/wCCnxV0vTfAWkw/YIn8QRykPeIg+0zoQQsTyE4WMOwk5BJbJ713VqFWVFummot3smm9U2m321PFqqELupJ8zv0tvbRf1+Z3nwo1jxFr6x3GqaVa2JsZvlgbzEitV5z5uG3ABRhmADFm4HFdhrmoWt/o9wy3GsaVHeZ0+91xreS5tdLs3dWAVkBl8vcgQgjGJMEjIFeV+I/iZJqHxFuIdQ0m4mvYWIvZbSd4SkDcqZASAVJDAkZG5SD156DUNGtfFUkuu6bceMPD+iTGGQ29qJ5bebb8rYj6KGZC5UYBCk84qaeE5Kqq1LQbWy89l5fdrdnoYetToe5Zrq0lrb1votN97t2O48L6zZ6HqUEbeL/Bc0ttN9nMb38VrKuDhpBHKqbdxOcZJ5A4IOO3+ItxeeKvC+of2Pq+mx6pJD5R1ETCY4H3WURBgApxweevUGuC+F/wF8K6t4om8RaXbtr2nXVpd2TzS7ZbldTlULADasocRl8gP8zAt0GRj17xD4c8L/sa6VpWl+LNQiuPi5/Zb3T2ciLc6T4PjbaIzeJu2yXkhI2QtvK5yV457qUoU+Wnh91q9Fp6+rPoKMlGMKMVv5vb/P5lr9lr9lnxHqfwXsPDviAXmq29v5s8uu3k32USR7v9XGuHdiOcHAHrjisvRfhX4f8ACun3VvpUsni7UbEtB577TYWTgkkSBSVZsYBBdscblHSp/EOlah8TLEa9q3i2a7s4x9r86/uXW1hgUI2Xi3LERuyBhSMHG0EjG5qmsWfh+7k0hpmZoQssksOIbeSMg/OiqOEKkkkAk9+cVvKnOcnNPWT1PYp4qnSpxhvbS3/B6lD4f295pB/tjWNQvLu+tz5a2yoI4rHAG0IqYjiXGB8oAOfWvYNHHib4l3rW+laFq11Z3FwzSlNOEaOoTdtL/KoAOVDYOScfX5B+IPxgk8Ippa6XLd2OsXBaR2Wc7Y4lYEY5wVZlXbnouR1Ffbn7BH7Wd58bLGFvE3iKSTVJV+SwWNUhUDoy8BumOPXPNfb8O8JvFUfbVJNJt6JLZbu7ffTZ3Py/izj+ODxTw9KMbxSu3feV7JJeSve6tsYPxA/Zq1z4a+A7bWtc0+1jt3uHg+xre7/su85j3lSQqZG0ANhdwHFSeEDayrcXVjZi7e1h89HchTCxRPMUKcnO0A57soP8RA+vPH/hyHxJ4RktbyFbizmYCePP30PXHv3HuBXzH8YPhivgTxRJpdzefZdMjQXd4rW4MN3bn5YpFCnIw7MCp4LAc8Yo4gyFYLlqULuGzv0f/BNeF+JpZhzUsTpUWqts1/wBugGx1y8upr5WWfTwsiSZKxQJtJAVQQPlwuCCBjd6cJ4d1/SPHWsSRyXDX81rG0iNZu1zHHE/AlkY8FgmcDPTryKpeHY0vIpbhIbeGGzjCuZtzrIByu0EglsnkY6N1rY+GOkx+D9IvNWdL0NcXU0zwWqxh4FKK/2ZFRRuby/mXuflGMHNfKylZH2cYu5Q+NWpx+BfC9wYxPqmnmyF7LK8X7tJhgFlcKNxYGNgGwBnABr8jPi94g1L9ov473l9DcwLoOj3ckqyG0EjSvHjcqJ8o3bSDngZOevFfZH/AAVg/aQm+GPgaXw/BJfWt9dtvnWV2Im3gZBAOMFQCQTwQM84x+cvgvxtfeEdGupLXVI0urRv7QKHKQ3IfOTtbBO3I4Azx6V6OTYSUnLErd6L9Tz8yxUVy0HstX+h2un6BqGteKr/AFK11HT47Ys0CSrMYvMjC4DFjgEFWG4HHORyaXQvh1carosN9NqMan7RHDFeR/6qZeQWZAeQgyCcdCPxw/FfjhvFcuj22h6Fpf2nVGRJzaTbMTOC0rE7guCATyNvryK0NU8ULDZz6Dp8n2pLWSMuiykQ2xGQVLYGCCOCeMjnOc173vJf1seX+7vrr/mxvivVBp1nZ3Ztbea+ZnWBgFWOXptK7eqqfm24zwR7VxviHxR5mgy3lw8Kz+eqRJDFsb5QV3YPUYyeccms+50K4i1i0vFTUTp7Tf6MqOJJZA5OWQcAk84AA6V6B8SPBar4WW8uLWQQxyMrlY8SSFh5iFhwMdBgEHHI71veEJJS6mLVSpCUo6WOA0fV332T3EgmaN8LFJB98KCV567jkc9xjmpdF1W8vdQmt7XbN9sDechh+Vtp+ZQPbnP/ANeofFOjS6drsLWUP2e2uoIhbHzA+0hRn6HjHPOB3rV07wrPcNoutWurWca3BInzEVdJlbhAvU7gc54GB9M7SqU+VN9djhjCpzW7FLxV4SksrmaJ72PZDHGqvCVdUyQcYHIUZIweQeCaxNQ1G2jRYZLvyPs8ZFuqL8kqsSGb24A45Iz1rstW0+bWb++vpGtbWa4dmQyOESclzkKe+euOB3rd/Zz/AGaZv2jPi/svGjm8K+GB/aGqTxqfnGBstlwOXlYbeB0VjXZg6U6840Y6tnFmFanhqUq89Io/TH/g27+Amm6D8LvHuuXMG3xRqM9khVs74LBgzoBnoGfLNjuAO1fo7448KtrYmWFUQM5ciQYz7+1fPv8AwSR+BN/8PvAGseKNQhfT28WRRmG3c/NDErM6E+n3unYEd6+hvitYSaxoq2t1e3mlqxLC4gXckp9JB1IHsRX6JQj7Hkox0SS/4J+WYmo8Qp156uTf3dPwPD/F3hv7Lfy+XblfLJXMLblJ9Qf603wx4wvNNn/1jddjc9D24rnfFHiHxZ8JtWXddLcaeSBHcQSCa3lJ7FSAVPXgj8a3PDnxl0XxNLHFr2nxxm4YJ9qtPkYZ9R0xX00YydNNrmX9dGfL+6p2vZnfWPj37dA1lfQR3Vvco0brIgeOVGGGVlPBBBIIPBya8P8Ai/8A8EqvgL8fYJLi38Mx+CNbZjLHfeH2+zxiTGMtbnMLDH8O1fYivam+Gc724uNJvo763ySgJ+ZQfX1qpbR3llC0M0PltnnDcivNxGDw+IjytJ+R6mHxmJw0uaDa80fmJ8dv+CUHxG/Zzur++h0OP4h+EfNd7bUfD8LfadKSQ/vGkss+YABgkIXXIzkV8o69p9nN4nuNJ06V7+5h3QDS5YWBnUZLbR13sSpx1PPpmv3/ANF8T3Wlyr5hlEeSBIpyyHtXAfFn9kH4a/G7xbB4rvvDtrpfjaBg8HiPSo1hvAy5IaUY2S49XGecbhXxWZcI2bqYWXye339D77KeNrpUsbG6/mW69V1PwZ8FtHpsTx+Sd0cn2ibTpH279nCBDnLbDn5ffgntoa8h0+8bWo9yQzNHf3MQuF3NvZsIoU5xwAcD5cDIFfTH/BQr/gnV40/Z6+J2qeOJLE6x4DuLuW8/trTlytgznMcVxAPmjXeSob5lJYDdyAPm74ma/a6prUdxHpNvcR31iWhlJIWJ22jO3Gc7t4HOMsOOK+QxGHrUanJVi07dT7fC4qhXo+0oyUl0t/WhZ07U5rzxHealIkbJqBHyBNySqo2kg8ENt5yOhXvVfRNehaLUtQeFYVEawTLChxdJnO5gSCWzkjnnH4VzmowW9vpVpDA80DeSzQyRyGTawYn7v93luK6BLK8sbq/+0Qfdi/cwzLvyqgZwMj1LZBzkGsZU0v67HTGpIqaUiQSW801utxau/wBrud8hAIB5KD7wKj5sddyjHWuwlbUrLxTZ3OkzTiSaRfs0sr72ynVwzdnyTtPI4ye9ZPhWNtHtIdSWxi1TTczQT2ZkBuLZjGCLhV5YKGwQ2NpPHrXVS/CvxD4L+GvhPxqpvdLs9YEt5p2oeYjRusZAlRRk46hsMuSU44rnqNXuzppxly2S8z0T4ex33h7wdfTazpsdjcas9z9gupwV+2GNzChtXzyVbcG5wW4wODVj9ni68ReJvHn9gWemnVNQvZYZBFJBmOJogM+ahxs+YZLeoP4+P/8ACZ6poSWNrqWrXmoWa3V1cROiq0MQuSGnaLI4ZwgyDgbmyBwWNzSvHFz4L+Ih1qw1xYLmaG2EF9C7JcQxvwdzcDO1uWzwRjnNccqDd33O2NdKyPpi0+JmmeBdfljW3mk1o3E32i4MwFhdyEMUAIAMLxsG56/Jx/FnM+GPxEk8Y+ONSbWNQtbOaaxnW1vnuIo0nDOYpAGb5QVJDKexBKkEjPz5cai0/jCa5+3LrDTXsc0lzCDmUl2AaZBzu64YZySeua6rQNT0eC/maa1xumZbiFVKrYkkEToerZVSCvcH7oxXO8Oo79TaOIbenQ6f4onUvAGkHRbdIbgTvHLHFMfNWVYwm+SKQ8Op6MSD97g4Nd94B+K2k+FYF1Jp7+zbSPKtXhdFe2t4pQQQ4YfNyVJjIwSR0BrM0jxI122m3ElvFqmmS2X2WHzDGu35/uBmXMbuCQu4YyMHhcnqPCXh/Rfixq11pukta33iS4T7TJYyBd11bRjYfkH7uV0VDkA8AEjOMVhKT5bNaHVGMXK/UuaFpCp4iuvE1rqMqyavHcQfYJZZBMUdufIRlyp3Bep+6cLkYIov53huxvrWNLxdPvpGmEjviGDfIdpjbpyx2/MBhs9qj1JNR0DxUsKqI5tJdoIJ57pobSFYTlG2/dDpliedoMgHbFadxr1/dW95d/YWm1rxBYbJo5GEZVkCORGVIJIZAcklWEnHzUtdx6a23Or8H6M+neKPDk2lxw+fZv8A2haWmoEXNiuGeEC48wghpFAYHB+YLjGaz7z4k614r0rxNDNo+n6fFp8LRamlsET7WXPyqAzllKbowY15xgg5zWTFpCx2NneadYTXtrbyR3Gp3IPmsV8w5ywICquATwNox6mpr+xiHiGSybT7fTLRkS5hNwS3msQ3mFywyVKlQVyQdhAqErvmLlK3uFS7ENnbR27Wt9cTB5ITDdhlHAbaBuLHadzkYXLKQM4Ga1fEPi6HQtAvI4YGu4WVbG1f+C7GERwmSAR5fyZzkFGA5FMh0RfB9/YtrFjJPp18RBb6zp99uW1bIeIToc/KC33kKgqASMZrV8U+GNQ0bS9J8PXrWY0drmWWFXdG3OyPJIZsAFY3ywAHTKk5GTV3TaM7OzNHxZ4eh0r4ZJHpc9vb32hvDfWIkxIfOmf513E7nVTt+ckFQmOhOM/wb4o0WXww95qmlxw/ZrS4fVIYplkInOWYpjaTGWJyM7hkYzkYpvYwNZxi3jvr6zuNOa5t2tH3CFk3bvm42sqAIpzzjoRUXgvV7KfRZrizXUrO6uJ9hhjgUNq0eJdwdcEiQDcDgYO5cY21XLfcXNy7GxF4hj8MjxFapczaWvii4XULOaS73xGPyUVYiFxhy+75gfmUgsDip/HmqSa9fWcmn3MOk6tY2Rj1ezyZvtMMYJkQNnhZCSBj7pwecCrvw68O6h8WYdas4dHOrxNZm2s7WJFa8tJN2QTGGHBDMpZuFynGeDyfjjRNU8ExalfXUfmXluipe2pX94/JUxhM/ezhicZwc+oGajHmt1NXOfLd7GtrM9mUsbVbqS2aYRXWjl5UBiVJI0NvHsGBvGRg8cMec5OpDq2rad4s0+wm0rS4dQ+zb5Lm0mUx38cxXdBcFW4kbEoyvyjaTwCccvHtWzl1eGebVma9UGKGXZEso2lOW5UlshlGNpj9Omw/2PV59SurJZ7HWIX3adA0S7bdAf3m4k/MoxIq8LwcEEMTScVFWQudyd5bnZXf7P3jm4u5ZNNjit9PkctaxfaN3lRE/Iuc84XAzRUVt8ZbOG3jRYEvFVQBPFrCxpPj+NV80bQeoGBjNFZfvOxXNSPz9/aR1rxZ45+IXiuebVdPPhnWZ5JrK1e8EjLblswLGoRWDQ5UfeA4wN2Rntf+Eq1SJPDth4q0W41+bQbiOziuY5A97p13chjI0DMCNoVfLIkACYReG+aubtZH/Zp+LV1o/jW+07xBNY61HFZXFvA8zackMYiiupCPk+aNYnMbZyVV8ZAzxY8Q6l4V8Bx6NdaedT1q1lstWur5rg7rRpbl/NeTafnLmXcDk5YjqMU5UVVioxtbo1pe+jd/wIVRU25Vb3s7re1tUv1Nj43/AAvS7v8AUvEkN9/aGmtdwawZlCmTTeTFDiIkttMZx8x270bnin22iaH4w+DdxNoGtQf2X4Rvnle1uLO6kMsU6xrM7Mhy1wsgVmdCF2zAdFrG/Z9u77xT4jvtO0mzuru+0u2l1CyZgVhuYJSZZ7MnG0AMWdFYHJVuDkivQPhvomm69oN1N8P5RJPpuqS6hLo8rfZILqS6h+zyqoK5MIVJD5S87l4AAAFTlLD+5N/Daz6fPt6kxlHEJOK0aemt7/1066HjviXUtC8HeM7O302TWrfymUPdvcFY4AQWAaNkzuIyQoJ4xk5rqtJ/bG1bwzJefZ5IZdxWKzeVQ/ksed/U7m5PB6enaq/xB1vx74cvd0iRzaWLn7OsEGni7m04kYiilSTMm5z0fIRuoOciuf8AGHxl1DRNQeyvo1huriUj+y7O43XA2k4YwwgrExOeGbcBnivSpydSCTXN8/8AgHkVOanNtOyT7f8ABPevhr+0vP4p0+30b7aWme0ub24uoxvU7VLdgNpwQR2wOte/fDTxlP8AHvwxa6DpujS694ijk2R2Nuw3yqikyP8ANypXaTk8feBxXxR8E/GEniXUtUSMSWt1p+g39zNBMUnbyooJHQlgMdRhhzwecV3/AOyvo/jXxJr+iXesTR+BtP1a0uLvTtcigMgv9gLRRosT8l5FAy4wASTkcHx8dh6ahN1LRS3u/wCuh6MK0pxSeu/9eXzG/H74WXPwY8aX0l4L2zk+0zRR/aiyC3kLYe2ZScrId2QFzkcj1rJ0/wCJOpfDy10u11Jv3eoSqbizlJmitmhG4uF6qw4AYDJwc8cV9Ga7ZT+PPhNa6gLOO+8WyaWusLpU90ZIbmMbirI8gLIQwYYP3ckAkGvkHSdN1Lxr8V7n+1LmGK4Xy7i0gudsW3b+8lEn8K46f7XXnNeZg+TF4eUalnyXT81bT/hzyMRaKTpv0/4Jpft4+KLfWvj5Z36w6hJDrmiw3zQmPyzDOw2uzBScsZE247qAMDtn/Cu3ubTR7W4k02182Z/MnjuIz5eFXaAyk/Lnk57YH0qT9pS9vtEvLfWi99qlnrdu7W812ojksHBLGJAvUHczBs4IB46Gsrw94217w34w0GxsfL13SriKC4uYmPKJLtJkQ9cqCSRgjPFehGjUWX04RS0XV226fLz7HBUr1IV3KDXM3v2PbvhHbaONYuGvIftPjDUJWltwL3ysRAZJWABfqWJ+g5zX0h4d0LWNQ+E83g/Q9sgvp4rrU9Uu52/c7HBU7s7gSxCAjgKSONxr59vr2Hw94l1XxFtvLzCxwPfSIpuI4jwiAsQAzBflRn6KecCs7wfrXhXxetza2Ou+I9T1XV7gwmSTTmaKBApkY+Yk4RQDtX5s5yQATXxOIw9TEyVaV+Vb6aJ9bvoku71NMGpTqylNtrVN3Sv312PZfD3i7wL4Tvzb+KdQ12eeGR4ZTbkTSRlTggKHLDBB5wO+Ca1/iRq3wT8YW2l6b4bj1Kwm1r95d6rqyOi3FwGdRaTGbKoxIUrIScHhsA7hydqmnx+E7bSLjQdDuGkG3zXs4Y7i7x82zYMIQPfJHTdWt4Af4Z+P/Gt9qE2g6j4d1q3aCH7PPCP7JnmRJX80xqxXBWJ929Qc4HJxU5fTjGbq04Sdu1mvLt+p35VCCxHPGPurRdV56/5HXap8H5vg74zbQLqzhvtNjle1ih837R9ocxFzdCPlCufkWT7pBKjOK5bxX4q0qymk1a4kiS4kfHyK6MiIhTleAP4cqvfHXmul+Ifin+zvEKwR2tjqF9PFJElzbaldT25YkzRsgAGxeWCrtABYjjbXG+H/ANlT4j/tFX9w15J4Z0DTZoggdzPNcSJnq0W5gre5IPvX3mU4HFYyzpUZP7v87GudcSYXL7+3fL2Tav8Ade585RfEm1+MPirxNN57RzaYBLEGj2M9svBG0ejHJI67q9G/Z38UeKPhB4qsdVt4ribT5sSpIh5TPP619g/A7/gkL8GdJEba7YeJvEmvXCyQy3dletpsQV12lBHH8m0dQWJOevpXVWH/AAT0u/gNYjR0um17RYiz6XPcIv2jygP9TLt+XzEHVhgMBkAcgfvPD+FnSp06dZcrS2P5t4orwxdapiMNeSk767o+mP2Z/jPa/Hz4QO0cobVNNRPtMZHzcjhiPQ4Na3xs+G6fEjwCrQ2sV1qmmoXijdN32iM/fiwSAf7y5OAwHrVP9kjwJZfDvw/dWdvbx27TrG021eWYqG5/76r0+7tE0+VpPuqo3Bx2x7CozfB0a3PQt7rPWyHGV8OqWIv7y/r/AIc+N/DuqSWt4zX1nHbaHG2THdYZLdQVbjk4ZQc5HA7Hiui1+2k8O3l8cNax3ys5eQL5lvIR8uCvy8Ab92MYYKccZ6T4t/C26+G3jd9W8OwXT2N8JbxIIWDCCVzmZUViBhid4x90E4HWvGf2tviVH8Gfg7Itv9l1bV3nKzebbssc6O2SSPmIKhccEEtgnjivwnNMJPC1JUZ7p/8ADfef0VlmYU8VRhiYbNfd3v6H50f8FZPHFvq3xs03SdXWS4jkKTRvEwCxK0hDu/8AeY4QIOgBY+gr5J8W+HdY8e661rCbiQyXLLbMyARrAo2IWKjCDIPJOOtezftFo37TnjO11nQ7iaO+t9RbRvsaNuZZ1CPHKcjO3Y75JyAY25r2j4ef8E9dR8VeI5Ne8ReLLixkaCO1trTSrVW82HAUI8knBPGchOTkk819VkGDrPDxjSWqTvfo7nyvEOcYXD1XPFTSTatbdo+Sfhd4nuPh142b+3NLkks7DaLhTKf9HAUruDDIwd3Xpgitae0sdJW81CykvNW8Oy7oZ7b/AJaRFlLLJE/JKgjDcDHTBxX1f4m/4I4aR8XNDvLf4deOLi88c24Zzo2sMEjvDFnciyDHzhRwTlT/ALI5r5O1D4S658Dta1K11yS30eXRi1rdW11HOlwrbmUxtCUyHz6jGNpzgg16GMwdShLmqKzf3M48pznD42FsLLmUfvX/AADl7yW1n8OWeoaPeXXm2T5McsieZAvzE4GeMNnsAAR6mtbVPiJMnhyOK6k1Z9QDp5BS8xbBeMGRMfOxwB2wBivXPBHgLw34tt7XwrpugxzeJ7HTGk1FtUgkFnZxyfv3nYq6eWEV13PI+wBApx1PJ6l4r8N/Ci4RNH1Kx13xKqGQa8mnN9hjP3WFlG+Cpxk+ewz8p8sIPmbx1jITvHld13/rY9yth5UtXNWa1t/l3Rn2fhG20ux3eMLe+Rvswuk02zkC3E5PzLuI/wCPaP73LfORkKvQjkbnWP7V1xZlhgsGWJYUtEYrFCo5XaTnPPc4JPNdQdch8O3E09xLqrLcFbh5Jo/l3P8AeUls/OMglsEE9657xc9rrdsomhSOFmJjn2bJOvOcADbx6DGarC1Zc3vrR/d9x5c8Tf3VojMew1LxlqNto9jbXV9qF5cLbW0EShnnmcgBR3OWNfsx+wz/AME2LP4Y+DfCPgW6hhk1xnGseKr8gs0BkChot395lAjUfwoCeCTnwv8A4Iq/sGv4V8S3XxX8VabI2oeH9MN5o1lNH80Ms2EhdwRjzCDv2/wjb3Jr9NPhzp91bx2ei6dIyalrE7T6lqmMs8jcybD3IHyjsABX6nw9l/1ek681ab2v0Xf1/wCAfmPEubfWqqw9N3gnrb7T2+7p9/kej6lrSJZz6DoVvGtvC/lzTR/Lb2MYAABbpkAdO1dLfafAmgeXLcrNEI9pc4w5A615TZ6uupafNp9xrVja2NlI8KWduhDgqSPnPUt6k5yeamsfFH9n2Mlsm29dW3ww7trSjHYHqw9O9enWwbls9f8APzPJpYxRvzL/AIHlY+e/jz4gh0zxdfaLNJst4blpI944EbYKkevUj8Oa5vSY9FuI1Z9UWP8A2iMc1614t+FmhfG7UWkuJ7kXTnDCBBHJn+6dwOPyqHVv2U/Bfw5023F1Z6lrk0jZeCa9dV29f4NucdOa+jwtenThGnK/MeDUo+0qSqLa5W+HHxk0fwWdp8SWzR45SSQAe3U16HH8Y/DXiSP95e2cjNzuEg4+lec+N/hB4F8ReHIdF8J+FNO07VdQbYQ0GHtx/FKznJ2j1zzwK9Z0v4TaDa+DdP0VdOs7q0soREHlhUtJgYJ6d6wxEsPpOSab9Dtop/BF6EFnbadrif6HqFu2/oBIDmtjQNBmvF8udGX7P224JXtWC/7NHhm6WZ4NPW3uJEwGidkIxnHQ4q98BdF1CHwPqGnR6jeJrGnzytA1y5mQg/cVlbqo6cEHk1y1Z03Bypyfz8zop0/fUZLc6bVtI0/VNGudN1Cxtr7TbyFra6trmESQ3MTgq8bqeGVlJBBr8of+Chn/AASF1L4G2954y+EtreeJPBtr5txdaKC9xqegREZ2RjJaa1TAIYAuv8eQNx/WDRdW1+a0ddY0aGRovlkewfzNp7/Ifmx9M0+TT49QtvtlnMr+S3DxEhoz6HuDXh4/LaOKjyVd+jWp7OXZnWwc+ejs90+p/Ndqmm/2prWl3mn/ALqGK3UvFEdyw/MduCeclt3B7iodNK614d8y6PnNOpjUkruuGyd4bJBBBHp156Gvq3/gpl8MtF8C/wDBRj4gNdwXlrpeq/ZL1V0VYkktHns4yshR8KQ0u8uBjrnOc18pTW82l6xfR7RbmO6HkzBmHl/w5PH3Tn8M4r8zxNN0qsqH8r3P1rC1PbUIYhL4ltfyLXh/x3NoUOpX1tdXVnM0B05ioGL634V4yVGCChwQ/wCB6V1viLxdLdaPo2h6dqU2oeHLXdc6dZTn5bJn5eEAnhvdeCDjHSuOiht2MkP+hyTXBiuDGC48kZbKEEAjGOccfMMHk4s+HrlrrxhqKwQ2MlnaG3kud0vlrEVOPlViScZPTPY84rnlCLfNY7ITaVmX49UtYoIY2XdJE8UrgykyPu2sQOCF2qCMYLY5waveLYrUWKzWEcl5IrKrRrFxHGGOAH4UnAyduc7u3QYus232XxvueS4ns9QBuFAXcSyAjC9NwPGNpHA9avaTqF3axPaxzfLDcmaN4ZdykOMYZB19Ae3r2rG2icTaOrakTfCbxno9p430W71yC9m0H7ckd7Nar5c0kMbgEHGRgIM474Pevoj/AIKBeIPhfb/HuwuPg2tvJ4fk0uN7gSJIyG5RCpeBn/ebgmNyv8pfOK+Y9EtFvbZ5GgS4n80szEbRKBh+T0IK8dMgr3zWj44h/szXNI1DS0nhsLiFYSIg3mWxwGc7h0Kqcc84/CsalFSrKfk15G1Os40nHzT8z2f4RLo+oaNpc2uXGpLb6hbmxkuEtvnGJCRtDDHzIFIyOMNg9a2tIf8A4RnxvbeIrIQya7p8+bp4I3jCMSEZ0C4wDzuKgLk4APNcH8NPEi22laPo8f26x/s+VjK8k4kWXcTtIUr8vyqu3qDu7Zr0ae1t28awyajd+Vo1molsVKMI4pWjOUJT+FmVjnAA3cAEg1wVPdm7nfT96CselfCbxFc2hh0HW9LjdcXMCXZX7QzrMWZ2Y9QRxgkDjcD2rIa7tYPFVjHNGNNj0yzSzUyN5cLLgqRKChJ3EDr8xbIxnFZNlrVjo8Nmbq5a4h+1j7HdG0cRNuwTCGG3zBsZkIbByOM8V2Z8cW/xK+z+H9P0DUo7G11KMzhI8TrFFklZExleW3cgHKKeRXM7t3S0OqO1mxdGhk8I6T5bfMscqW0VvLKWjtkDDrEwy8LRksV684yGAFRanqzaFrc1hNZnR7z7Wr75pTHePCzJsEXbYRuCpz0xtxW14WGm6pbardalb6mt/psT7hD/AKTDqEKlo3jK4xuEeCDGxKmI54NYfhy8g8aTXDSTQ6zNcIii4RopQQQxjZ0b5tpC5IXDKRk+tEdxS8jovEmhW+saLcWulKrG3vfMinubcK4jcu6ROmQCqryCcbTxnk1g614jXTNPabV7k3FuwWebZNtjkkjLbw54K4RlyBtDLnB+cZseJ7qx8ZzXschtLG7mu1ENxBKSWVen2g4/d5LbdmOOeSKyfD/hix8T6fo99qFvHcCzP2/UrFVZEuo4kQOy4z5jZOAg3AmNThcEUR0V2EtX7pJ4o0e+tPBGpapoFvokf9tNb38ujlHW40+OTLO0ag/u8oOxwPNBHJroZry41HS7W8XSbq38TBbiO4tZ9rRxeWueHRt67MEsWG48nccEVkahLZ6t4+8aXKGxjt1h+yaRL5c0jNGuHaMKCGBHy8YOMY45qxBrGk3Vjpun38NssN0ZI7GWVlaUsv7ncy/eLMzkjeM4THzEZN621Jv2Ou+Efj7UPhheTahofltq2pWTxmSeVpJbrzCHXySwAZiWHMZ5Kj5d3Tmdb1P+2Nb1aUXBuFjI0+aOdJFnjkL5SUANuJUMSWIIYZ7k1oeDPhJHp/w91XSV1K8tdS0axiu4Ldnd2nnhk3AKzEmOMjYcLuB6ggZFVdF1ebxV4wltNS0u8m1oXEl3fCONFkjMkIMkjdmVSYyGxgFT0yRWUbczaNZRaSizQ0CXR/D97DNrunHWtHvLRrG7n05hatBdyr5ayQnhTIqoFyyjIXhgQRTo7u4vdZWNvtV/q62K2sR2Dde24iXgKON5VkywThj2Ocpo/i6O08PXUeoQwya1HHG5acCKBrYoSVKINisVOV6KxHc9LvizWtF8UeHLFZPDNvDNbCSeyuooAn2yd33OpKsNjLHIjo4HtgZxQtZWM5JJcx5/bfCG6+zx7dWV12jDTxI0rD1Y7OW9feitRdT1SyXyY5NU8uH5FwxxgcDvRW3NIw9lA+Vv2lfCeta9a+HPFlpN5ln4r0iCUaneXQt7ae7tf9GbfAzD5njhhO1QQDJwcdaMkGj+Eb5dFvp4bRb6yjgvYbO6VmBi8tx50igmFDMmduTImD/C3HpfgHxRp/xr+DvizQ/Gl1aW83w+1qy1y31eeTyZ9Pt7kC2l8xoxteMTxWqudmGSTdwy8+d6V+zdqnhS+sdV8Xa5oug+FbW7M80sksUs+tXLZcQW6Jk3AfJYS4MaK5Od3yty02kvZzdmu3Xtbz+47KnNJ+0hqttX8nddgvNNm+IfifzNFkudEutEljuo0sUNvaaPIoLN5k2ViUne43bndyTww4rM8T/DPT5bG1EN1rUceu3TzpJplvuaYRuVkdXlMaQkO7hWwDw+0GorTxja+KfGGk6Pa3HiC6W0L3OnppEQEdgjLIZF33GXQiNGZpdvQnAUYFd2viaLUdc+HOvWXg3RV+z3h0jTry+uzdiArelpCEEiLlXmUFtjENu7AVpeUErLp/n3OWynfm7/ANbHPax8Urzw34ksdFvo21Bdcli0/RWQG5vraRsCMPcthpI2LAPG25T1G3aK8V+J/iOSxvtf+y6R4P8A7ObUJIDd26SrNdushT58SAkcZ9NvPFdhrn7RGq+OL+WG30DS7a5aV4IY4NOZnh3Fi2wqFJ3Ak43fdz1rivGOryabrl9bX0f2HVtojWxtlhEIdhy0kqKTgKCcAgnHWu/B4fkd5R19b/M4sVWc1pLTp/X6HofwKl1nUr/U9Xk8L6Ra6auiXiyajZQRhbjbblxFKAS43gHduxuArQ+Bvx5urDxIdHj0i5j8M+G7sX1l9jjllt9P81huSUkt5ccmTtViBvU7euKb+zfrFr4y8KeJPDdtJHp4k82ykvoogGnglhRLiQsTuIjcAn0V2Gayf2IbrUNN/aR1q60/Xp7GzvNMmGqQQnylvbfOPJlQ8FRIOAemwHjivIzCtTVLFutH4I7a6q2nfXdGX1xez9nHXV3fqtjsv2l/i1eH4/6cvhPWpvD+p6FZW2mJPbtxDHyxQDJDbd5YhgMlyDjFeY/G/wCPWq+P/HuvXlvDp9nqPhlYLfzobRoJ73yU2tPMrHlpGznGByRjHWTx74Otrr9p57/T11KzsbrVVvYvtbLJLOCVeTDqAH2Lk9BjAHvVjSfifcrYpqmuRzeKvDlze3nl2OoRK11DajB2wy/eP3zmLeM4BGCvHVl+HpU40nSipWgvW739dna7OOpF1YunJ8q79PmehfDr426P8X/gKg/sfT73XLCWMNp9/bm4trVgMifaCA6EFsKxwDwQ1XoviLrz/Y9MuLuV4Jphb2UEcKRW8HHDMkaqvqwQDC5A461wfg3xP4Lt59MtfD/im60vSdSCxtFe23l2djKW+ZGcZZ8cAbwTkZ6c19KeCv2M7fVdK8PzX/i+bUfInnksjY2wZbzcWfKzAsBkI4BYBcMc9AK83M+SE7VU4xbulZ3Kw+SYjE3hQSfd3W/6L5HOeDNe0iG+fQ7rVF1iS8ANzYPpwe3uXCsQ8gkDKsgVXAIwR0qa+8W6L4C+HttNp8mj+GI77mxsrhAt5cIeEkWAdEYqwDOQMAMquOKg+LPgbS/hj8XvBNvNfaJHrWsalHDI9tevNcCMxuGjaIDaUbfGyuQvUnqCa8jh+I2i/C345LdReDtN8Rf2Vepd38N/mWzucKFZEBbCBWbIGG+YdhkVx5fktCvXipyk4tJ67LWzdkkrL5sK2AWDlKnVXPKKvy33dtv+H0Nn4V6P8VvibPJeadoetapem881bj7MzWbwk/NEsrqAFYAAkDAG0dMrX1X8N/2HfF3iCNrvV7ZLOTUVja6AuPlJCeWPl7NsBBxwdzetdz4E/wCChNj4o8OWt1a2drbWrRAFIolXySD90jtjpiulsv20bGOZC06xbsZ39K/fsD4eYGNqnxrpayX3Lofi+aeJuYyvQpr2Vrr+8vm+vob3g39jOK2t7ddTu5LhmAXCMRtUdBuPJHH5V7p8OPh1Y+FNLjtbW1WOCEHA6j8PWvD9H/axtdRKlL6HcAQAWAzzXU2P7R4tQWa6hjwB1YFRX12HyNUYqFKKSWyR8TLNHXqOrVk5N7t7n0Do9ounTRlV2soyOf0/SnfGtb7UPhRc31jIyX2kul/tB/1yx8un4puFfHHxb/4Kv/DP9nrULhtY8Q2LardKGmtrGFrq8nKDChlThcA4G4gda7/9hr/goFqn7cFx4mt7Twc+h+D7HTJTFql9P/pV5ORgKsS5RUAySSxOeB3rGpR5aiUWm47q97LzPUi5OjeUWoy0TtZN+Xc+ofhNqEWveH7PWLXb5Gp2Ubnb03rlD/6DXYXM0kjL93d1yDXiH/BN/wAdL4+/Zt0fzGU3Fjd3VpMgP3CrkflkfrXvNzb+Wzf3ewrz8dTcK0onqYCXNh4yOS8exnxNo95ZR+cLi1jM0DRPsk3gHgHB6jIxjnpX44/8FL/2j5vGN3HpemX002pahIttFBCfmvhuLIrFTyBuwwABHJ6ZFfsojfYNZMy5B3csTX5l/tMfsJQ/CH9tvxb8Qr5rO+0vUrg3/hy1Y/8AHikyBpmbjkiYui+i8+gr47POHPruJpVlsvi9N0fW5NxX/Z2DrUp6/wAvq9P+CeY/sp/sk6Z8C/DKXV9CratqCrcXkjZ/eS4J49ANxA9uvWvTtZ8TmyvL68tYZJPsdv5MKqMjAyWk9MgHaD71jrr2rfGDxC2kWO5ZOAPLA2RKRycj6dD9O9dz8SPCtr4F8EWuiWjSYu7ZVad0+eQKo3Fu/UA819Pgqap2pwVkfmOa4ieIlKvWneXf/I7X/glH4Q/4Tjxrq3iy7ik863Q26F1XbGGGWwevPQ59K+WP+C65sfHP7dMOi6NDpMf2Hw/a/wDCSahc/Ja2Ry7CS4YfNlYTCAR8x+RACxAr7x/Yy+w/sr/sj6/4w8QSQ29qplvCZZBECirwNx4BY4H41+KPx2/aWb9oT4reKLmOaa8l8S6q+pX9z5bBtUui5EAVeuyNWWOKHrhd3LMceTxRWSiqEFdu3yt1+/RH3HAGElGn9anold+rey+5XfyG+MfEVvN8G5rLR7i9Og/2lHYXsasjap4j+WR1muGJIECOvyQDKpkE7n+auF0Lx3HaEW9vZSRrGxbzJJWDL/C0ec5wPUdcfhX158B/+CMHxV+JdhaTeKLfS/B+l6hbyyk6gPN1CXI+QiBT8gZhjMjKR1wcV6l+zv8A8EXPAXg7xkIfiRrviDXL2zhku5tKgT+z7GUICwAYEyOMkc7hkCvBwPCuNrws4WTfV2+9f8A+tzDizAQl787vbS7/AB2PzlfXrlbiaG4k85o4mRd0gkVmOSDz1IHAPGB9K+nf+CTv/BP6T9ovWLjx14kuFHgvQZ/3YlQ7b24Vhkc/fRMdBwW9cGvrTxn8F/gDe6itno/wj8HwXFrdmO0kFiwZjHkHILZkBPOHznvivobwfqfhv4PfD3StDurc6bp9nsD/AGW3RVNwyjogwNoYuTgd6+zyrhD6tVVWu1K3RLqfEZxxpTxFB0MMnG+7fby/zPTvhJBpt9Yw6DptxHZ20kkktyXfZPcsoX5FHQt05/hX3Ix6T4AdF+I1nCY/s7Qq4ji24EQVT09j1/Gvm3Wdd8K+MPhLa2vhrxTp95rWjs1wJYJgsxm3EsccEE8D8K5fwp+2ZfeKJbPRWnkh8UeeLLzkb5yp4Zs+y7vpX1M8I6l3HS99/wAz5CnmUaLipdLbfkfTXxz8Lr4W1WfV7WM7bqUGRVHCueM/jXBx61f6VF9q2yXBnG7CjcAPb/61e26xfW/jrwO1/b7ZJFjAmiPze9cRoWiwW15byXEeBN90KMqPcDtU4XE/uuWerWh2YqjepzQ2epzPw1+LOmt4ys3ukS1aItC2QAyZGAQfT2Neb/Hf4l6jqP7T/k29zcR2tvYHf5RIAQZI4z1LGtL4/wCjQ6bqs1/G0cbTM5BUY+76/wCNc7+z74Dk8R65d+JNYaaZYNqw+Yc5UfdGfzNepTp07e3Xax50qlRr2Hnc77wx4zsfAcEEuvalLDHdSKm5gGki3fd8w5yq/wAs16Hb/Et7S3N1C1vPZqMEr8wbnhlYHG3B6da+cPEvjDS/HXjDxFot9JHb3BkDWk2PvAAAA/3h6g8jtUfw/fU/h7rB0aaSSAXSHaiOXtrxP7yZ4/DgjvWdTCxnq9x08U4e6tj610v4s6dIiG4cW6sBtkzjOa7PwdYWtxetqUDRyC5iKGSJvlk+vvXzbrSbfC8cciqzRgYZfl6DritD9mT4yN4W8SNpt1J/oN1IeCfuE9x6VwYjL70nOl9x6mHx3vxjU+8+iNcuG0DXUuV/1c4xIPWrEthaavfLdRssd2ycTR8Ow/2+zLxjBB9iKk8UWS6jp21SCrDKsORXJ3l5JZaJaTLI0M6Bo1x/Fg9P1ryKceZK2569SfI2ntuflf8A8HDnwcXSPjv4P8XeclvJrmkPYSlG4Z7WQsrY+8VCzkNjHGM57fCejpH8R/iZHBfapJpC6y0aTX94rTQodjfOWU5VXcBMkEjdk9Ofpj/gtF8Yp/jL+29dabHPI0PgW2g0m0McvKzhGuLsBTwWZnVMdT5Y9gfle7s1BvE0+do7S8eOdWLDZEu9lJL4HylhkHA2kV+d5xyvFz5X1/4c/Uch5o4Gnzrp+HT8Cvo9iuiXbTXMsE50+WQSziTBklyAAo6EY7jK85xzVuz0uPStZjumswkrs7IxHJLkhA6njGCAcc9/em22nN4e0yO+s44720a28uS3kHnEbz+8YduNoPsG4q+19p+v+FvNt/M8ixdI48gl4kDng56uyYHIIAUeuR5MpN6nuRikrbDvEPh3UtW0WxWyuFj1LSV8+LzGBj2g7dqtw+5TxnGM+uak8N6Lq+s6dNJcWraTcQymKS5DbYQH+fYTuHcAjGOw61lxS20+lx6ks1xD5MRzFFI8YcZ38HnkHDAdTg4rorbxd/bT/wBoarJpuqTyWwkklBJLqAdsZUqvzLj72Dhs8nNZ++lobR5G7v8A4BjW9lJq3hvULiPfb/2aMid4T5ccmQwRyOjHDtz2XvU81pf6jo1hfNZRSLcSbAYZMfIRsBcZBQlnHUYYFSc4rQ+FHiS78Jiyns7HSrq40+5kvo7m8tvtMN0WQZguQx2tGeecDnnI4roP2gPiH4b+Jd5oGreG9BufCGoSWH2HXdOhhSSxkkBGGiwRhT05AIGeSeazlKXPyo0jGDp899exN4Y0bUfhZrtjcatpQ/s++jQWjyjej4kX98rcCQIcjbkYBwea9qudXFlqWp2l19mXz7dp5CEJV1jlAXau4jsCeo2seSa8H8O/EfXl0XTPCqTfabTRb6S/tGu41+0RFiDs3Et8mUBC8/MxHOcVpeFvizdaX450+4vp91vGXtNR8uKOTzYJOJF643KdxGMcjrjArkq0Zy1lv5HZTrU4u0L28/8AgHvei6NJ4g8F3OkeVpsVjfRLc6cdPmLW77lw5K5YblYYBbBAzjpW9+zVqeo/DfRrebUobO21ibfEZmm8xpWdhGpLbh8+4A/OSNh3eorA+HmvaXc+M7XQdEv7jwit9M39lajfSBbdYlOQspXJj8zIU7SQN7c9RV+exk8L+MIVhjSSOwF2CYpkbaykbsPtwfkAHAGNhOPmIrgl1Wx6FOdrNf1qenfD3wfpHj/4S+Ldas9UXQdU8H6k8s9q8h8q/heRkUxRkrtk3q4KP8pDjaRyDzWlajptqk8Vnb20y3pWdfs0fk3EXmov7nYcKrFmicgkdcBsEms3VvCVzoXinxNrmkw3F34dfThqt6beQtHbDftEBC5UIjFB8w53AZ+6Km8BuvxiS2s9Ps5G1rUGFnpiQSbJrxDgkIXO1mG0qnIKgDripjB2v0FKa5uXqafjm606KCO88P3mtLZasFbULTVbYtc3F0uC6mPBBRFz8pyWIXBJANZD/ERvAaaKVaG80rTQz6bNCdj3M8rkScsNwUbdwHQKAeCCD3Hj34g6v4a8d6bJb6bNDceFYWtb2yaAzPdbUxIrBgpBRdvHzEMfqBzvjFrvxJc3GrahZ/atMuSjbobiEQwMdyJsVWJSTknAG75iDnoKg777CkrbbmHqNvp+kySXkVmq3moY1CIXV7tt4p0TMockEHdgHYVx82O/EF/PDp7xzrp8+n3GqRSXts0koAggMaAxRyOx+4WLAAEAHqpHGzonjDTdR8Hf8I/q2j6hqsOm3Hk6JPZr5N7A7cDz1JyU2rnc4yx457aPjaa41P4eWNxdSaXqepeG7dp7O68kbbJgzQeSqhVHmbCOFUgMMsO9VJtBo0UvD3inUbm6tZL7S/Mk0+znvI5NOnmtZLVcEQRzgKVZtyZcMcEMCoOcVrTXWra5bTXXhbUobK6kSMfanPkz3Uc4bdH5wULyPMyCCQFU8EgCvZ+HLrxT4e0z7XLBDMlp5Ukse+O6kb5ByBlcAsoH94jJOK4nTvF2o+AbbRILnR9Qtbi6nEALDyo4oLePIkU/dMwUuFOeQMMRxWdtbRCOi5mei6OLzTdJ+wxrNb2d7dJDG80pc3KjbsjzjLRtGuEcZXJGduGpdS8EmPXNDhvIY7e419wVkubaRreWZJGYAuOUIX5Sq4A2AkEDJrXesato3jaz1bTdWka8hjhittUukXfdpIWEqrFggKjbxkghguAcjNaLeNI/E3hq/aPVJ5D/AGqWtll2srxAlz5QyPJcsXBL9Q7AEcLWeqRo0m7HK678Pr1dcvBqE2lfbhO/2nLQ58zcd/RgPvZ6ACim6v8ACrUbrVbqS1N39lkldocSW5+QklfvLu6Y68+vNFXd/wBIz5Y/0z5p/ZM0ex1PVtRudSvbWz0n4k/8UTfJu2TsJ1JMvluzBBDP9mbduPXjpWD8Nzoz3zfC3x1DfLb6TcGz03U7+eKH+zZzMyfYnYD5IZJUbaWXaj8kBWJX3v48fszXkcviS80HTf7EtdDfbC11p9vMl5K23Jgm2B12qxYvknKjaAM44H43eE9U+OV5osq2fh2PU/FGgNqV7dQRrHLc3VuNl6u4KMIXEcqq/wDz8qOKw51KfNLS/n8LS0/A29m4q0dbeW99/wATG8O+KfCXwW8JeNvFl3DMnjLWPEZ8O3Npe2vlpoGmRiM3NqQM/Z7m5OIQTuDJC+0kMTWTJYtc+H/Dc3he5hvLHw747fVdGNuvyxxXhilUlOWZf3ciMOe3oa7j9pTwRGvh+TUGgsWlhsdMBv7y4klj8Q2YgiZ47wRgubm1O9RJjmPDhsoGPlaXGh/CXwLa3g1W+tbXT/FwlC+S0xURIJI4t/Gdu0/OAAwY8ZJqqM41YqcG23p36eQVYum3ColZJu+3XzJ7nwHJ44t/FH/CN6pDpukjV59QvLlLUyX0zHasdqN3HnLK7rkcAc9CRXGfFzwVH4R0JtLkkt77xVqVwovvLIZo44wBAshwBuEhbe442oQOAao6r8SZPEOi28DatZ3F99od2eVLizactKz7T5YUgZIOVYZIGc5ql4o1XWNVS3h0+60ia8jXFzHZOvlyLkjylWQlmy2SSxLEseSa9OnTrKS5mtP61e55NSpSknyrV9f+BsdX8A/Ctj4k8QWsH9sWmkvpcEv2fUJY3d7p44/NkPlqMs8jNgDB+VsEHBrsPh18RIr7TVk0vSbODWLgvDqMcNuvnXsoaREbPDFXDYA4UMM9STXnvwr1ibT9Q/twWs0N/osvl2loB5UTzykec0m/5tixRhSOu5lAwen2N4r1z4aHXrW28Lw6XqzfY/tTSW0v2rZC+E/fR9H+/wAq/Q54zmvkuJq3spWqQcoy7bK29/J6P1Why1Yx9jeK1f3/ANaHz/f6nZeEfjZb+JGtTd2+i6ibfVraSOKGS3iltmaBikn3X3nyiQQCYuRzXnvw7+I2q/DG8j03TtBh1SfQPO1if7e4uJAZlCOUeMkDIjBBAI5Prz6N+2Dodn8OPFdxpNju1HWIPs9hcSX/AJJ3+YquEKjcJlGUPzjahHqK8n0L40awPh3r+h6be2pvNa+zG0u7JFtWs44mbzIcRoPvqQQ2TgZGelezl2HlVwivHSyVm2tO+nq30KlWUo8s7x+77vnZHcQ/Cvwf8ftPa+j8P6h8NdaucOrTFIrW6YYwfLYjcMkHO0d+a9M8HftAfEf9kzwdaaL4q0fw9rfgnXJhBaa9oWp4+yusZEUMsasyxbs42sqbuSCxHHyNNCmp3lrb6lcXkWoYMtvfJI8ig5Jw0h5445Pvmvpv9gH4sWvxV+K1r8M/HzTTeEdTb7LfXMLqrXRULhSxUpjeeoG4cEYPNdtPJMRWqQw1K1SMnblk/h84yev33PJlm0sqpyxUG0oq71/Sxx/wW0vxD+1B8btBbSYdU8TeMLO9QzwW8RnmMan5JN2OIxwpZ8bcDJxg19RftB/8EYvEXwh/Za8RfE7XNWub7xZpM39q3+gaZEsyW2mjd5u1wMyXC5ViR8qor4DHmv1O/Z5+Avgf4A+ERY+A/Dum6DYyAeY9vD+/uioChpZWzJKeOrE1veLPEkelo7TBHjZWDK4BWQEYKkHggjgg9q/R8JwnQhpU1la3kvT/ADPgcXxdXnV9tT0V766t69WfzZ/Cn9pHXNO+Ikdvoul3N9Y3REf2C3iaZUUDAPGSW9T3z9K+sPBPwy+I/iHQGum8H39no7ZaFNQ6pu5KgYLKOe+K9i+MPwS8FfAP4nak3gzRLPQtN1m5kvNlv8v2Ys25olPVUBztUcAEDtX0r/wTO+JMOk+J9f0F8S2OoRQTsj/N+8G8Z57kcV9zlWU1sDg1efMlqkfnueZph80x/NGmoc277vu0tD82fij4T+KHgiwmuNN8J6fII1BUG4kdzn04VT9Ca+ZviL+0F8StTmm0zWdW1TSWBxJYwIbMgenZiPxr+nXxN8JdE8Y2rRyWdm393dErAfUdxXxd+29/wTKb40o1nZ+DbO8tcYVkCx/Zs/xxuCGU/Trnmsa8Z42LjCq4Ps3o/uszuy+UMuknWw8ai/mS1Xyd1+Xqfhn8E/hRd/G34y+HvC9vuabxBqCQSSZyUjzulcn2RXPPpX7ufsPadp3wr8F65b21tDZWGk6XIdijG2NVwM/l+pr47/Yz/wCCTvjP9nT9t+wvNQiW+0e1sLkwGSLZcRyOAoBAJXgFvmB56YGa+3/jh8NYvhf8PdZt7O+mXUvEFp9kuoosbYULKzHPUMSMAehNdWQ5e6FGUKytOb/BF8SZhHGV6cqDvTgvxfl3Whjf8Ek/iE1l4U1iExmG3/tW4baT8p3Nu/Td+lfa3izxVHo+mLMmGmkOFUcgZ9a+O/8Agnn8NV8LeGrjTxumEWS7sPvuxJP+FfTGmCS3mW18xmG75Qw3ba1zSnTde73VrnHl9ecaPKtm9DN1vxnJ4d0j7dr0hhtri5W38xY8nLZIAXqQACSe2K8/+PPhvwb+0lJoOhrriS3kcFyxMRaOUJmLGQR8wBJOO3sMml/a6+INrYeMNC0WbdJFbJ50yK2CrScbvwAH/fVfOXxW1WS6+Ivh2bTb6fTZtHupLme6tx+9hgwAMDjLMeME46npTo5bGrTU3o39x52MzCVKcqXxLRO+/meyfC79hqH4PaVImktDeXkn3ru4Hzyc5GQMjisz4h/su+KvET2bfYUuvImLyG3dWyucnOcYx1PavdfAnxUsb7w9bXX21tTOAkkyxCKRuP4lyRu9xXnf7afxA8bRfDG80/wPZz2U2sWkyw6pcW5khgnAACT7SAq4YFVLYkIx0BFcdGjUhU5WjSvRwtSle7Pzj/4LxftxWepX2i/Bfwlcx3HhvwOY7jX5YJVaK8vgv7uBhn5liBLsOm5l/u17Z/wQm/4JqaP8Pfghp/xo+ImgQz+NfE8hvPDUWoR5/sTT8EJN5Z+UTTEs4dgWVNmCMmvjz4Cf8Eu/ECftN6DJ8Rte0vX/AAzNqDanqbxSuZ7+USZEMiSKCvmSlQ/X5S2O1fubZCT/AIQKNbnDNpoMU6KoUKF9B0wFx+AFeVh8urOvLFYqNm3ZJ9u59hWzTDwwkcFgZcyteTW1+39dEjlPG3ihZLhvLC5U7DJnqOgH0r5P/a+/adk0q4s/D+ltJb3EKcXhtwrBPusUcjO44OcGvprxVc2M6yyQrHJDCF6MRljnA46DFfJ37afgK4174c6lqmxlvLDa0RI+XcOiKcdGHB+tfX4WnFdD4nGSlLRPc89+BF1by/Y9dvvltrYSlJXGf99j9Xf6nbW98bNV1b9pbwl5XgPULeyure5dLiW9Zo1Kc5MYxlWI7tyPSvnbUPijf6N4DghtY5Le50W6S6uNNlRsTRYIZN3TPO5SOCdvvXX/ALM/xRkl8bQDT2eTTb2JmdiDiQMGOceoP5YrZy05VueS4Tpq72udL8Kv+CefxC8Xaxb2MGr+GrG6lQyB5L2QbVHJI2plj6Yru/2SfgBe/D79pLXx4sv7W8l8OxeXFJG7Mskp5b7wBJCgDH+1XWeE9R1G41WH7HdTW06yq8TxuR5Z9RXSWX7Ws37OPxavLjxD4b0vW7HUJfMl1iG0C38PAXMh6NwByADx3rGXtEnbXTYqnOnJrn0133R7RpI8W+BYH8ZWljcW+h+d5Ulrc5V7qLjLmM9EPIB68Zr2F9Dt5PD8Oo2qtJFqUQuI5COQrDIX6jOKwvDf7QvhX47eBW+w3K3ljqEJiZlwQQR39MH+Vdv4c1Wx0vw/Z6Sx8y1t4hDkn51wOteLXrVLXlGzv+B9Zg6FJaQneNvuZ8eftA6i/iL4oXmnIrJDYmIKBwCNoP6sT+Vd8+mHwN8NorWJfmMe5vriui+LP7MF3rfjh9b0jULTZdsm9JVOx9vowztOOoIrpPFXwsv5ooHitbG7tZEb7V57/dA27NnOBxvzkH+HGOa9iWMpezhFM85YOqpzbR8E+MZ9nxHIYt5dwd2c8oRnBBrtvBHjG61XQFhvC1xFHMrJu/5ZsDwykcqfce9Z/wC078MW8A+Mo7u3y2n3LFo16tACTx9M5xWX8Kr6YobSOSNtz/JuTKk+h5r1oyUoKSPHlzQlZn0L4g12ZtGEgaOSAxAkjh0OP4h/UflXnnhvVP8AiYfe2tvyjA+/apvG3ig6f4emZWbcsQxjt7/zrF1K3/spLbUbXaLe4RZZADwpIHzfQ46UUYpRsdLqXZ9tfAv4lL4q0GPT7yT/AEqGP5GP8QHFbnjSGLS/B097LhV01mupSeiqoy/4ADP4V88fBHxil1qdrNDJtBCrj+6Mc19C63pEXxL+H2raDdSPHbeILCbT5pYyN8ayxtGxXP8AFhjjPfFfL4+i6NTmh9x9NgayrU+Sf3n83nxX8Z3XxD+MGtatNLbSXGs61c63FKh3JMZ33lVPOHC8dMDnimR+F78up02a0XUL7zCqyYx5Y+dgpIOCCARjO765rqvjz8Cte/Zy+PF58PfFQe0m8M3zQ/bYwF+2RbsxTA/xCRGVh3IbA6VxI1ibTNeSZvOLW8kixxs21VQsxAIIJTavfHGT3r8hxHO5tS+LW5+4YX2apxcPh0t6Eh1290wR2d1HG99zJ5kG1EYuqncyjILDK9DgHIODkUmlRQusMskTW5uZxdvIFXaGjZtx2rzgAAceo47iKzR9HvnsryHzJlke4mbf5yyLnaXU5HygMWXHXAPOav8AhbxTqGmT6i2lysjarpVzYzNG4IktCUMvmcH5cnAbg44yDXPKLS0Wp1Rmm7yehWgddA8Uw3n2H+3NBnPnPpodkaZMAsuVGUIUducDPrRiKZJtQRYx/ZtuXimtVysjEn5myPmK4AJ6cEVH/aFxZa3G0LPcwTW+945XLM5A2bkf7xwCVBPYH2zYjuLBL+a1aOfyY02tChVZA5wCAx+ULnqDzzRK44tdS/4Nng0K/t5LJZRNHiF25SVZGLbWG3BwR/COuVNYWs2viDwp4ykm0a+jmLI1hcFBu2RLtL7m6K2MZPv1rq11V9IgaSJ9MuIbVpZJnu7SMXXJTy3LggsPkKj+7zgVmaTcN4Z+Kmk3k1q+r6P9rjvbywm+dipBMgAwfl7jIOcDIOKy5nzNpG8orlSZO2qTan4wmuLSE/bLZmdP9J3TbQV34J4JAGRn3OM9Euols4LqSPZJeGR71ymGVWztWJgvooBJxxxkdz0Hxa8S2PjjxndeItEt7W3ggj+yPaW8JhW4H3EZV+UbSq85wdvXkmua13UtX8Nm10m7ggl0nUJHfTZyxdLd34ZVccnng7wSAAOtRHW1jSVle/yPV/hRrl5oni7Q9KkaOX+z5IJYBcwmXZIzKzNEy8Kj4X5ScYJz6V7hpsl1o3jxtL0e+tBpelS3N/dw3NnmQpJtZnglTO9Y1ztGRg8Y458g/Zw+Kel+BfiBolxa20epW9r5dldrcwsq3sbjO1l6kHAIIwc7ucMRXscGryaulzqUEk1vDdwlU2OsbQZZmbycAfdUscrglSOPlrya/Nz6nrUHHk916/kTDRNHXVbiT+2JRpFr56RxshSWWJhGVkkcf6yMcZQFhiMcd6r+K7a30L4bSanocOmMgT7YheRlkkMUqyK1ugJ2Y3R56gFTjnFU5rP+zPCms3Jj0+6ub6cJEzNIbiGL7uEjDBjA2ADIchSuPSug12a30++uI7ELZq6W+23uDJN5MbOqyqr7eN0YUHIOPlOSM1mVu9jaa78L694Gk1y1vNYvPEl/vmlfUgWYRrGyGSVd2XXBYb1bGEGeQaz9Mg03w/HrsGsLZXGjWcTSxmOVpBNL8nyoRld5+X5hwT0IJJrNuPDVpoh1L7LeRR2srsI5bKMvPbMYk3wsuSgUFAx6HIYc85k0mdbG1slFvJc2d7DNJLiTzmuPLlAjYxH5doLYBySBt4Boe2gR0V7HQXtrffD/AOK11ZXmoaTeQyW9tKl5a3ItbnU1b94iOSzRhUAVNy4bB6Hk1jSy3Vhqn2PzoZW1eCa1nXi3uLlXVWRSdwUyKXZfMILEoAeoxiT+ItP8UXWnW9vcXT6tqaxKswi+WBAp3SSxsxZPLK7WKlg28lcHAPR+Nr+PwGtrrMTaRFp1u82n3EM9qwlM+10ErxyZJQyiQBlAwGXBP8Ry2smHMndx2LOteLf7Z0VYbfULXUbeO0tLd7e/jlM64G11L8fLGMMMg7sYYnAFR+K/FVxdyvoPiGS4+1WdwDYX8tsIphCAAWiEeCVddvyng9aqt4isbjWbW21K3kkuttq8S3N0sluSzLOF2qMuZIsDJIARRkZAIoatoV74rtbWKFVtfLWaS2vni2W8JCgxwln5aMKfky/HAB4FLl6MHPqj22T4OaJ8UdN0++8I+JNSivtHVorpEdA1lOuFMnluAyluGBBIBzjFeLX2i678C/GcOhyahb/2hotyhk122CzPD525iChYq7qUydwI6A/eGOuu/EUOmRxx3y6vH514sN1ALdIorbDFo5Bks3mGQvF94BRz0FZ+geBr7xzAqCOwk1Ka63RxyqWhv0/jkJGdzBBlgPmKxdcnJiN4qz2Kl7zutzudM8NeMLjTbeRbG8u1eJWE8NmzRzZA+dSDgqeoxxg0VwOo6h4og1CdNP0m6nsUkZbaSCTbHJGD8jKDyFK4IB7UVnZmnNA9M+NWl6ba/DS58O6fDJqFnbwNECo/01gHYorO3sCfm5wFxkKSfz+8UeMNesLTXPBWoeHLhPC26WUpDO32+UZXyrgT7gWZChO1tqEOy4GQR9X6P8PLu4sdDez1jW/+Jfn7FdQTfao7ptogMbldpwM78Fc/MQfQUfiH+x/4wvUkt7GxXWJmhKvYIjLNOyKuJGlkwsSgFtzE7AOpODXDQqRTvPX9D0q1B20dn+eh5j8XoLj9nnwd8HfFd9azeJrTxXoJGq6Wlu9tstI2CRSB2THnmN/MCEHHlkcgEnAufhfo8PwG8Vaxe6l4Xt/Duh66+r6ZrmszSRi9tJLeT7KbSIK3n3UuWjIAKxOrk8gEdD+0T+09Y+Hf2hNW1Y3yeMPEV7aWulReDrG4Fx4V0Owt0TbHPcsgN1INrMXhVIwZD87EAVxM/j3w747uZNat7PWvFmma9Mba40aeaOys9IcSGdYZoYYzgrgmKRTGr7DjawZaujTnBRdtN7rrrf8ALq9H5nLUqRqN2kr9n/WvoePw+DbWyvNavPDdk01iYY7tb7VZPKaRXi3tJt3MQUzsALFi+48YArg761PiTXbvS9HWzhZbpGuLqSz2MiYz5jbieSwGB1B/E17N8ctC8QfE34f2trHpt54ZtdNKvqli1tHpen5lXeJGMpDuISdjM7k7n4615nYaPNaaraaPHd6bdrcS7rs2mowtdz4ID7pADHHxtwcsFDZ9z9Bg6iac5vXtvt3Pm8dSqRSpUI6vr01NLUdPnbRY47OKfVE81LKO7dfOcSlSQG/iYAAn0UA9hipPhJ4Jk8I332yKW5uNdtnVxdQH/Wkn/V7gfucnpjdwDjgVxfjXxxrmn+Ojp/2H/hGbe1g+xwWcTbxHsYlX8z+JyS3zchsnOc19BQeFPCvgPRYfEvh24vo7PS7u1+122q/u5Hfyy9xM3zZkDsqou3aA2eAOmGZ15xo+zS+PbqvR+vzObC5e3NNNtx3vo7/5Gbf/ALP2qeII4/GUPimC+s7pTY+JY7iPzHsr6H5V8tu6NCF24PO1gRkV52/irSdK0CS6+Gumaa0djJtmmmQNcMqj5iUIzyRkZ4xjiuz174wal4svrrTfCMmsaZqWnLKf9FjQWuprud3kFuB+8JjKY3bj8m7jBNVvDXmfE3xANP1S40ldYS0kutS1mayWKC0VcMz3U0exgRnywUyzMygIzEUYf2iivrGtltskvNLfy/I9HFU4pN4Wyd9X1fkm9jxHV/FPibxPrUbadq+qXmp3DBFsifmw/OAmMYAOTgcDPpXe/CbxFH4V+LVtJYXLX32eMskisqxylCC5QDlmJDNu4BwAPU3dZhhW+vNN8GwwvC1obddYvAIbrW5DnOxgWENskYlYKWLNsUyEEbB5F4RhvPBGsWniC1kXbpVwskeZwUnUZyvPPK8fjX02W4iEa0Kvw8rR8pmuEqVsLUw7vLmT/q5/RZ+wt+0TB8V/hRYss3737MoBLdSB2712/wAV75riFpFDHI+7nAB/wNfmj+wT+0ND8HfiBpMa3G/w34kRbuycn5VEmCyfgcn8DX6VavqsPiHQI3Vg0brujPXiv1r2alJVF1PwiFSSpuhLeJ8e/tI+CLfxDpl6l0fIuMGS1nUHduH8P6nj3rz3/gmd8Um0X9qqbRNWlW3Y2+xjvyCyEckdRncOT9a+gv2hPAo1zTJhFu3oC6EjOT6CvivTdGufCP7Vfg/xLDDNFdQ3MljNKuRHcwyIylWH95W2sD7Ed69uMf3aUfR+h5NKUY1nGenVPzWv4n7XeE3k3ybpN0YwFIOcZrV1eWNYJFkbZG42sw6j3/CvOvhl8Rs/CfRdQ+z3VxJqFuJGZISyr25I+lOuvHN9dM/knUIx1yx28/T+lfPSwk/aPyPq44yEaaXcm1f7NoS3HlLFNqF2CzSRk4iQcmUjsPYdScV4h8dbNb3w/cXX3re3yxZ8bpD/AHj+Neq+JfFn9k6FceQwm1KQBC2BuiGN3P1znHpXB3HhuHxzoa6TM0kaTyK0pBBIG4Hb7ZPr0r1MLP2b52eJjKqk/ZxNn9kvwj/wjvgp7qTKtcPuwwIbPTJH516TpUKz+KQ3/LNRnPTbVdBHp6bLeNFijj8vaOoA6U/S1kXTb6WNPMuFtn2DPV8EBfzxXmVqkqk5TfU78PBU4Rh2PEv2ofhlZya63ju6a+vhHB5SwxPthtySQGkUDcccYOcdjXzv8Gc+Lj4s8RXkhktrY/Zrdn6fKDnH5n869k/a58fXWj+DPDax2266vJhZ3MEjFCOCpB2+/PpXleg6H9k8B2fg7w3beXAsrTXcpYvh3bLfMeuc4HsPavocLzqik/6SPmMfKLrNx/ps9Y/ZODahZszlvKkmxjHHpX1rp0MOj+H1W4jjkUxkPGVBWVcdCDwfpXyJrOtXX7PvwwaTR1ibVgn7gOoKRNjJkYd8enSvYv2UPjb4m/aJ+CUWpa5pNtY6pG5tnlhYeTcEdGC9UyOcEDvjNePmlCcv3y+G57eS14U70X8VjzP4+fsteGdZ8aPr2g3f/CP6xcKqyWExY2MwByu04JibPPdfp0P0B4NuZNU8F2NzdQtDeSIsF7HIP+WirtOccEEYwRwQRXn/AMS/BmpaHqv2i/hkuLWQbpJo1O1M9m9PY1zXhH9oCPwt4xj0+aT/AIkNwPsM24HdAwC4l98E8+o+laKnUr0Uovmtr/wB0asaOIlzx5eb+r/8MZfiWdvCvxg1XwpPuS01xo/sk5/5Zg8lD74Pyn6DtVD4ufAddZ+IM+oXF9qF9pv2dItP0x2JgjlK/NIR0JAGBnpknqa7L4n6ba+NfGPhfUIyt3Hf281rLJCwYRyQsrIQf7w3Hr1BrvLzQPseny3l0GkmhVUG3rK4RRx9T+tdvt3BQl1as1+BUcMpcy6dD43+NPhux0eZdDh0+2mkMAaaFbdX3AkhV5HC/KeO/XpXy14gu9C/Y81+51u403UptNvpljt9Os1EjQzPnekS9WB5bA6c1+hviz4fx291f6hJbl7qYGaRguXkIHQfQDAUelfmP+3d+3Xa6DqWsaF4WtUtdfsljtpG1GMeZayMA0ieVyVkj37W3FQGQj5qvHZhhaFDnrSt20vr6BgsprYut7GlHmXXW2i8+h7l8Hv21fhrZ6rbLrmvQ+D7q4gN2sGvYs5DGMnJOSo45AyCccA1D8ev2s/CnjWBv+Eaj/4SCO4Qlbwny7aQeq5G5h07CvyN8QX994h1KfUNRkmvrq7cmWaV9xkPT8gcHjgdK6T4Z/FjxB8IQptXF1p2/EtjPJ8hB/uHqjfTg9xXx9DixOracbR6Pr8z6TE8A2o3ozvLs9vk/wDM+1/g1+2F4m/Zx+KEepabIraXdTD7Xprn/RrlSfmHqrY6EfrX6k/D/wDaH0n4t+BobzSbqWO6RAPKmIMm3GRnHXg9R6V+KHh/xfYfF+5TbtttqFIrPcPtCOQMNg9V/wBoZ6dulfVH7K/xWvPC+jQ3CzZurBxFc25PzLjjJA5weecV9Bg8RTxTdn6M+VzDC1cCldW6Ndj9J7H4r3umtDNDcOI8jzVJDJIPcGvXdP8AFkfivw/vjkTc0eNoHTj0r4o8PfF5dVsD5LxRhiGAyDnP1r1L4Z/FyTRb2GKZlWPGQwPBrTE4NNXitUZ4PMrSs3oxn7WHw1k17wZNfxQyXEmk7zLAh5mhbGcDpuUgH8TXzl8F9P8AMvI5Y2V4pAZYWzgN1GCfUelfcmuG38U6LLJb7ZFuF2sox8wPBH618U3/AMPLjwb4hmt3dV09pXMOxhEqhc5BCngjOD0HAPfFb4PEWi4MjHUfeVRbHO/tB6ldad4ohtY7hvNmUKdp+Ur3GPYZrttC1qz8Q+H7e2WSKe3aBUdQ2ecY/DBxXA+LLv8A4Sf4x6M2weSzNCH/ALyquA3456VwfiW5vvhJ8Sr6xt5ii277lUHKsvUfzr04y91JnlSm1K6PqDwLqd18KvFsJbzX0icqq3BHyxMf4Sf6+9faXgrV1u/DUNz8ucK24fTrXxR8HvG0PjXw5HDNbrOt1Dtlhz1J9P8AGvqv4Pao3hXwHpNlcbvJkjP2e4k+ZSwJ/dN6EDA56ivJzSPNBX3ue7k9W0nrpY+Uf+C8v7J6/E34N6N8aPDcQXxF8P54IdYCLu+16a8m1ZCMctBIwIPZZG/uivyh0XSx4z8SrdBYrKNQI5DdTLukJj+YNk4LYAORxngV/Rrqmg6Z420DV/D2pQw3ei67avZXtu/zLLBKpWQD3wTg9jiv55v2qvgDr37Kn7SHjXwBqT3EI0dxBbSrjbqdowL29whbnDI3ODwSw7V+Z8QYHlmq0eu/qfr3C+ZKdN4eerWq9P8AgM5f4paXDpEwj8ndcXOXZoHLvtU8Nwc8MB09T7VmaSg8i3WNrllCNHKVkw0pJUtgd+dmRz1P1qeHxVeNPuhupPsFzGhhSJVEikE5ZSR69ef4c10eqaxJrmjaHpq6fpaR6fcPJcXkFusN8TI/7oyvn53DfKCAAEAwCcmvmfeirM+zXLJ3RW0aSKaeNWuIbSfTpmjilaNQMKofMpPLFipXoAcdc1m6/beTp1tcXHmW8l2YvtbMQyIXk4Ze44XGR0BGeaZeoraHZ3Qh+S4J3xg74Lcoefmz1LBiFYZHPUnjU1/wqreHby3jkmeWzQvE6tvW4tySVGRwy7jnB5wcjrWfup3LV2miXT9fbRvEMct5Zyz2MjJDc2sey3MrBCBgsrL7nK5yT0zW1fNa6uklnpei2Phe4sYWk89b2Sf7SquGKMznCHk4CLhsHpzWHrPiFvHli2rXF5/bN5dWiyXMly2ZoNqCNlIcfMw2ht4zkVn2t9b3NjbNbvDJHbzN5UyoP38YDmTnHyLtAIXoCc8ZrNxv7xrGpZcvT+upqaHosmiWFvPJGpt5pf3Ey8eaCWLKD0YDKk+hI9af8R59Uuv7Lu442gWxXzogEDCbcRj5M4YHB+vFP1XxTfaj9n0fVNTkvLOxYW9tAyJG9iA2VfjhgU2AEHPygdBUVzNdR6XaafHZmGS9vEsrX51dZZWkTcAfvIArKASMdfwn3uZSe5fu8ritjuv2aPiv4I8Eajq03j3QdQ8TaLfaWLa2ltbhbe60yZjhN6urLIVAb/dByCCpNe1fB/ULa20lrO2b+0tOitZRNGuJHnjDoruN3JILIzEAOgY4wprx20/Zv1rwf8T9K8LaxpGmR6ndRyKtleuY4ZJAocq4BAIAGQd4zuGe9VtPm8QeAXm0vMG1JpNtzAB+7jfG9ULHJQtGBgHqoGSOvDWjCbvF6nZQlOCtLY+hLLUE8Q+FreEw3huJ0Z3u0gIadwrDAJbC4ZA244VssSGp/jLR9W1C71fTr6ZorfWLSyt4IpJnjNqy7JMyMn/LRlj+Y8jIXjK1jeGvFlvp17p95JPeX2mwrHcssKMrJH54RtynIYoFPXCsVAJ6V03g3VNMste0m9t7e6vI1uDPeXURCySWpUsqeUON6biC4AUDr1IPHqju0e53Xwf8U6L4O8faVJrVxYeNtLCxaQ8CssrRXDiMq7wyjqmCpDFcMSQcZFR/G3TtF134jXjaTbS6Hody6qlqpRkiV3YJK4UHZGzb04Py8rnNedeKNV0X4dWmp3Gn/aPM1m9e30uGZUZnsT+9CuVY7gsgGOdw27gQuRW3q0ug6hoET6HeXC3jafLC9v5kkIXayhE+clSWVi+FA+8eQan2b+NFe2VuR2Lfwq8B2Wi634kbQ4V3XBExuHuAfJynyqDgMyttchMD7mckkYl8G6yvja7stPvVaz1q4vQArhvKM7IP3wRg37uTasjEHtnrVXR9aTR/F1xpNybebVW837U95eeXBqUCwAx+VKg2AxhtqhnOQWAxkEbWleGLrw74X8Ovoeu6be3zzPeyBMyXlp9nRWWM8B4wybzlGJZXzn7wI5JPXcmMXa0VocroF/Fb6p4ktdRuJbm80OZU0iaWAhgsgLRuGXBfaA5CEfMrD0rutK8R3GgeELfR5Psq2+pSNa2emT+VJbW92jKgjV1IIBcKCr5x1HFcl8Rdds/FfxS03xRa29xprfYtshtzi21FN7eXJASAFBHygkHDNjByK1fE+i32jeE4tmlpNDAZJI72YRxrLcTKC85Kk7kKKVUsBhwo461nUjeOptRlyydje+J1hb6bfar4Wa60HStU1yKRrkNIZltXjRZUMchBDRlwQd/PDAkc1zNvo9xdT6H/AGVHImo2920c8aFobaV5ARukaQsI0UAthT0zycDPoUHie+Kaktxp9hdabpskD6ZHqkSR3DKjoyStKx++MBWVvmIA/HB1Px1a694tvri/gstOm+3TxqgjnlhiWUAmSKZThtrJtEeMqBn5gQRMZSeli6lOC96L/wCAQy+OPFXmt9numeDJ8to3iZGXsQWIJGO5GaKz7S40eS1ja603W4LpkBmih1G28uN8fMq7l3bQcgZ5x1orS7/pHPp3/E9e+Gv7PFl8LrCxvfH2oahoOn+VFe6d4XnuDc6zclAQJJIeFhTaATJJyCoYjPXc+MWp38miQWcNrHpGh6kXEenSbpWJQEr9rlYk3TkDd8xEaBgAK+YfDnjfUPhd+1hqGteJJLyXxJqs0trfalqkM8/2uMKw3RBt3B3Yx0C7SOnH1brnjbT21Hz7Wz09Wu4EZvOvT+4UKwZWbBwq7TuZTklhwa8WpTdtXoe9GSb5nufOHxF+GUlrpWveIvDz2+i3H9lrbavHJZxPJexuzOMl0z5bYAbAPIx/CK+J/DGu+NNO+I2qWNneLcX2o2UsFjZPF5VpeWyPuYSLHtAWRVkhRhht2GBBUGvqz9o/40WPiTRRp62ckmtQ3bW1teW7vJJIBJtjt1+Yh8sQpB5JGcLuxXxLPBrHg3472v8AZ11Z6ze6PcxpPLeTblvngwzKHBBVN2VUAgEc5Oa9PL6KcJXS26+R5mYVnzx336C/EH4f2Vzqq+MvCWryXWmXMfk6o1wzXc+lyOMPbXabS0kZbgSMvlyAj7rgrXOx+E4/F/jKwtdJ12003WoUNzHbqjlPMO3KxSvwvy8hZSAB8pY9vQ7zSrP4LfFDUPFlxfa5p2n6zHJd6bCIgZ5UJYS2Vyh4wrYjJIYMHQnGSa3vB/xk8CaT4d0nTtN8N6TpK6lcPFdG20uRbloycO0TAl9yggGIPwCCp5xXZLF1qcL04uSto9LejvvY8StGLqcnLre71tb010uaGo/s+3fiT4a6jN4yubKNY9Oe5S8ggkS7t5VbnegBj3KqucJI2d44HNeNafpdno+tabpGl2n9vQ6tFbXFt9tsj/pisNoaNPMbDD5wxySr7ulfRvxA+DOg+HfAp8VeCbrx67W6br3TLu9ZIJ7Uk75liuU3qAAFKsDnJO8Ditr4X/D23h+FU3iPVNPtfD+q3EVxougWTApLbly++4P3WRxGJDCFJLMzuOFFeRgMe2p2bab0W3K+1t/PR2PSk6VT99J2st921t/V0ZP7P/7M+rfFC8a0WLXvDui6S6G3srb939o4yRKWJ3IQCQQoJ6cik+JH7DXxB0mW2j0Pwhp8dnDvnjj/ALadTqc7P81xMqIryTZb5QzAJ/Cq5NW/BHjbxl8GNa+06H8YNIksWO37FrfkXAVNxO0y+ark9RknP0r0jUvjR8XfiVpNqkc+l6lot3G8l3caLpssLQ2oAVik3muWmIKqhX5RIy43Vo442nU5oyjyv1/4FyXjcFiIcsE015Hxr8XfD+tfBDw6dPuLaOTUtQSWDzLdGkjt23kXUq7gx3PgQKc4KJI38Qrxl9Gn8SXPlWs11ftJDmbMJ3R9NwVeR1wu4cGvs7xXqPxa0r4V+LoZvBd9HourWMltawT6NdNdaZJtCBYxswOAgLkk7Ywd2C1eF63oVpD8PLSTQ7DWvDk1pYrFdyPHGnm4VfODXExQxsWyRsBwGI+n02ExDjTV7c17X/zR4NfDqU73fKtTtP2MdZufE2i6l4Dv/Ji1TSJHvtFdD8ke3Bktwe5H3uOzNX6ZfsV/tRL8Qfh7/YWrMItX0kGJ1YkuwHGfXI9BX5M+Av2nNI0XwnpMcWjw6fq2kXH2qO9t3+ZnUhUbI65UYYdDk+9fWvhXxwt1baP8RvCMiwWeoKGnjgb/AFMo4kVsdwQfwwe9frHCuZPEUXh6/wAcPxXR/I/EeOMnWDxKxmH+Cp+Euq+e/rc+8fEpbUYZFmjb5GKemMdPwrxrXvhbHq/iGO5ttrRwSNIF28CTpuA9a6Lwf8b4fiFo9nHPIYr28wGkH+rkOOh9CeP1rTtde8mxE9vGfJm+SRQeYXHBr7ijdaH53U5Ju503wj+KviL4PobWKZvscZP2i0mOY0fjICnp+GOte2eFPiroPxcRUt5I9N1gjIgmbEcx/wBh/wChrxtde8P+PJLObXLe4s9QhRIrmeDBS9VeFLL2bbgHr/Suo1y28I6pdCayv7eFdo2hDhlIqcRShN3aal3X9anqUa0oxsmmu39bHRfFvw5Joni37Vcx3VqLmOJdyxny2KqByw4Jznn0+lP0jQJX0lbyz8x1+0RsSAem4V2vwp+Kuk3Ph+z0W+1C2v8AaPKU3Q3b8k4Bzx3xXWDSNB0udrZIfsgk+cgElAfQA9Oa8apiJwXs5p6fidccvhUl7WElZ/gzy+316aLVVhmZoJLg70ck4B9DXV3esNZ6FdiO4t1vJAnlZcLk7hnHrxnipvH3wlXxVp7rYyMzbesD4OPp2r52+Imna58MdR8i7e48mQ4R5QfyJrfD06de1pWfYVT2mHvzK67mn8ZPCl98Wry3hm0+NYbWTzTctIqFmH3SoznPXml8L/DVfAlrDdMlnDZKzASSPtRpAM4yAa4W58X3pT5ZJI2BxuHIr2v9mfxfb/EbQL7wvqyLJMoaeEOOWHfH0r0MRzUaV+i3PNoQjWq2fxPb1OC8QfD28+JN5CtxrGmwx3UgSSSLdJ5SeijAzx0yR1r3TwZo2h/AT4YSWuixyeVEFeSSRv3tzISFBPv6AcCvLvF3gKT4f6zcW8MZ8sMJIyox3GK6fVfEv9raLp9urbmEqykFSQ7DIRTj/aIJ+lcuJTqxir+6deFfspSuve7naaj498VJemOGS31LR7hDsZY/OkmTHKsmABjoRz69K87k/Ymg8fyTaiL7UvDaTztcrBsWQLuxuCq2Cq56Ak4+ldx8LriSz1WRWElpPHGVnQNx7EHoR710eqeIZ/ENysULSDT1yZHJ5mI7ey8fjXFGpUou1Gy8/wCtD0o04VY89Zt9kebfDH4T2fgFbmSXXptU03Sbp5VvJoPs6zSbVUxouSGHHLdyRjpz6FqcDajJGJlC/YkLuoPymduWHvtzge+axfHXgz+34dLllldmh1CC4W1LfLOI23rGB1PzBWPbCjJrx/8A4KF/8FKPA/8AwTx+G1vb6gV8SfELVbYyab4etpMSSuck3Fyw/wBTAGz8x5booPbPF4pJKrOX/AOvB4WU37Kmji/+ClX7YNn+xV8A9W8QTTWlx4i1eRrHwxp7ptaW4KD53BJ3xxfNIzcDG1epyfwK8R6xfeJNavNQvbx7zUL25e4uLiQ7nuJGJZ5GPqzEn8a9R/aP+P8A45/bF+K154t8c6q+oamY2itLdF8u00+33A+VBH0RAep5LE5Yk150dKaCCOVoY/O1G3JK4P7vaQ24/UfXj3r4bNs2+tTSj8Mdv8z9EyTJfqdNuXxS3/yMaAtEseZIVVsB1B+nQ/z/ABoudJa+X93Ju+bcMHC8d8+1a1jo8a27eWVMkxCtErk7sHJyOOB2rQvNHS1uks/M3eTGPLj64AIOA3TnPTPY140qiT03PdjSbV2cjdm9m1WS4aaVbq2w6yCTbIMAY2fnnj3r1LwL+1XrWgfZzr6NerbkLHqUBMV0i++3G7sfX61ymr6PcatC14zNJ+7MSAj5lWPA4HUjqMVnXGmxahpe6SRdknyI5cbjnttH+zXThcyqUZJ0pep52Pyuhi48leN/zPr3w1+0bq6eGl1u38ZSf2Qrcyy3aFBx935xw3+z1rM1P/gq54k8COYdH1G515l5H2izSOEj/eGGI+gr5JtdORfMVgWTkhwR16ZPTpnr1qaPSxJbSSyZBUYALZ3H/wCtXvVOKMQ42ho/v+4+bocEYJS5qvvLotvvtqfc/wAIv+Dgrxx4JeNtd8D6fqFoGG42V68LFfYOpGfqagn/AOCt/g7QNa8SataWvjjXpPFF8+oDTbqOC3ttE35LwRYOCm4klhksTuJzkV8O3Fj9sCL5bLGuDtJ6/TufrVFdKWSZVdPLbryOGQ9/auePEGKvzSabXVr+vxOypwnl7XLGLSe6Tdvxv+B9qSf8FmbOXWbS4/4V9NGtmcI6Xy78Hn0xn3zXM+If+ClOgeI/GMmpTaLrSxyHdlgjMueq43dq+VZ9CCS7FztXPK/MPpn1xUOo6alrFkKS+cE4HU9Bn8q3XFGNv8S+5HPLgjK2rcjXzZ+nn7HP/BRX4Uy+PNLhvvEq6KssgUnUY2hhQHghnxhQPXoK/WD4a3mj+J/BIFrqVjrWiX6B4Li1mWZCMZV1ZTg9cgiv5dI7+bwrqTGGZVmUGJ3iIKupGDz75xkV9N/8Eyv+CmWufsY/EOx0rUr+7uvAOqyiC+tWk3jTiTgTIP7ozyAB3+lejh+IpYmSp4i0ezXfz/zPIxXCMcFTdXBtytvF728u/p+p+/Fulx4S1WO1mfzIvvQy5++p/rXy3/wVO/4J43X7cNjoXiLwr/Zf/CceH7aXTmS7uPIXU7JsyLGH6JPFIdyF/lKyOpI4r6C+F3xh0f4weDLeazvLe/tZkWS3nWTqGxtIP9PXiofiT8U9D+Anw217xT4ovPsOj+HbZ7y6mcgSEDhVX1ZmwqjuSBXrYzC061KVOv8A15njZfjKlGrGrht+n+R+DfxN+A/ir4MeL5vCni7QdS8Oas0RxZXsHlTQjafnQjIaJymA8bEZBHQ1m6MmneJ0tmub6bTbyGESyTzoXM8ny/u8rgxqct8/zEEc47d7+0N+1Hrv7W/x+8SeK/E2+Nr4iHTLZ5dyaVawqT5ELdvkw2Rwzsxzk8cFczrf6vDcSNMsNxCJpMZ3RPuCkAkH5Tk8nOQfxP5NiuVVZRpt26M/cMG5ulGVZLma1XYkg0ptKgurezke4024nVZYwG3TEldrD/aRskFuucd+G6XeXWp6pdabarDefZGjWdB+7aYg4AQdDgjJXr1OelTXmhqbmSaJV06OZc8NuMM+Mbh1yN2Oc55GagvPDs2NJkurpZ5L0vcSrGFTdIiBI2Yjg92HQjP580ZLqdkotaIZDp8F9p2oWNvqGk2V4qCULcu0PnjbgxxgqU3KAwILAnjGam+Gnh+TQNYls4f9Kt47dt1sEFxE+WB3xttypOASwx8uQeCahtIn8RWc39rRxxtE3nLcBWLodw3swzyobB4JxzVvS7a40W91KO3vTb30cTRIIsu0qOCRHkY6huQRzz70pS0auVGKupWMS01GbTdckS4SO3uGvPMnRkUxtuJBKDpsU9s9ah8QWf8AaZjjupOGdkgdT8vy5+52OD82M8bq6DVdPm13VoVjt7axuIojdrBFnucuVZiTgldxX3+tUmujdTNLt3LGissSkqu7IWQp7Njdkfxe1VFptdDOUeVPqep6H8XfF3iebSfEWpa3cX154TtFtLGSWRHeKJ4vKZSrclQrgZGcHHTqdr4QiXxD4vjt7SzkudYvrYvPDLE7QXjCUrJ5gXquePu5BYY5JxleCPClrrWrfZobeG1azlW3MBOzzY34Y7gxJMbBOuc4BPANewfAzwxaeHtVk1bUrbUL79z5trFZNCrQ7ZWV2kyR5gY5DKQCOGBHWvNrct2kelRTsmSRXmj+G55J18lrCxxBFcFyvmKxKyxmUD92y+YFXdgHaCQccW/GWpaH4Y1zxFqGl6a2rR6K8d1p93E5W1vlfYJs8YzgjepHUn5sVa8ZWun+LviZeG3vttrcz29usN7ZRwExRqUKiQMVbyyqsOp/hOTjGlpOnf8ACb6lpemTy28M8Ol3Ur+dELqPWGeYAqMKqpN5bbhhgI1B3MxGa4uVrU9BSTXL+JH4hTRdd0OOa6ttVVbhre9hZbZZptPym6JEdtpl+RJVwD02+tU7rRNSXTr7UJZ4766W1jaC6unW3vJWaTEZigx+8yfkcYG0knOTVe10gfE2wu7fR9W1N9JswtpFbXTtJao68TpCIyCUEhXk7S+0gFutZGr+ILvTNL8HXGsWs2rIswhjubqFvOniQsn3wQdpKhlBPy4X5hgA6KHRMylLqz1XXrG68QaVeT6Lb6XZ2OiWFsJLbTroSRwQGLCyLuCs5KoSd2WAJUliAKxLi803VNYWS3WW1haRHRYXSY3DSRnfBGqZSTLp1JOQW6NwH393Y+KbLUTbW+qaX4hs7XypI/ID3sil0lWPywAMbo2VwrMSGyOuDLb2mmXnxIk0tl01Fb/T4EhdYf38LKWjkUjG5mYuF+QYbPBOTl6muq2J7i2/tvw/aXrX11NdOzSCzSz+1W9s0fy7GPy7Y9rKisN6kgHoaseLpL69gXVLy3W70v8As9bb+zJZHWCONUIdmUMG2jdwCSWIXjBIqvPLe6bPp+68j0+HS7eX7Cs0CRzPEzBghRTgKXAbh1KKcjgbhrWiXHxE8RSSx6fpF42qSsbuyUrJ5CAkmUNJ/rHcgkbCSCoO05yEl3CXZEeu66LvwfJaY8Yx6v59qcyktBcQnMgimycE7snzAT/EOgFWPC3gywtfCEK2t/HJeaNLFLHcXCo0DtOzxi3XeCQ5Ac5ZmUbBjk7RVudX8O2Goahpmoa5p7fvFdIYG86S1lgjxGxlYbmXLZwB8oBzwuSeBrO10LXtFl02wSzWS5N9e6bPuMOsiRWHmDdw+0ErxuPzoR6VMu6/q5pF/Zb0Z1Ed34fu41m/4VXp915o3+c2p3qtLnncQHABPXGB16CiuTufhp40vbmSYHS4hMxcJHHIVTJzgYOMD2oosjP2f9WPo7wl8RbGTzNHuNmqX1m0NuUuDjFu6ELJkgnfswO+7b1zVH4t38Pi3wteNqUc0FutrPEq268rCVG9ZETJAyMMxJIByCKPioG8Lyf21p0fzQr8zj5GaJyVZDn+EgZC9mUGvOvHvxft7zQbPTZr6S8S/gSO+a2tFE08bDlgikZYAAEZI/HIrxfafZZ6+kLzZ8c+LPCw+Fnwqk1LwpD/AKZ4ruDFpz3Lbl8OzSeZBJdqMliLhVYQEjvIwO7YKt/Bb9gvxL8YI7DWPEOg+HItNjYWrTrbta3W5FU/KyEMGPByVJwwI45PZfHS+03R/i5pnibQbfU/D2n2saadML7SnuVu4hysDwKGBXkMHbBBVWG3Axy+rfGH4ifDj4T2fhubUPE3hjwRNeXckV+lpFb3JuJjvdrlol89s4B3MzMEAxwDXRVlWlRcaMlGT2b/AC0307HmVKzld0Vf8vXX9TvPif8AsveCfCXhpNH+JXiq11C3tZ3nsonHlXiKq9FWMmV28vhmAG4beMgGsDUPiV4P/Zn8Yx6D4d+Ft5YzOdn9oz23+udo96t8u52DfJ8xbnePQ18/eAfG3iv4YeNr6S1W9ivtQ0+W6/tKGPzJbsAMkfkXEib9sjHJKE54G49B0vwU/aB8M/E/Q/K8ZXOsafrHhEPLo2v2kUl3exWYJaZrhMiS6gRm3tFuZkUeYgPlur88MlqyX+0VJVI9ldK768q/4PocPsKdSSliZe9fytZdC78Kv2ovHnxm8Rax/wAJZDcW7aUjB7HS4/s0ARyUEE1sCJLhAcFlVtxUN24PoGgfCi7+BPhbxZdKbXxhdyQ2/iXRJLQHVLWG60+43WlpGoQHKNNvNuSmFVgQqgg+Z6j8H/EfgXV57fR7ia+03WtHfU/7a0ib7bZ+JRbqrjFzlSkIVHaRTtberqy8GtLSviHffCTVry9sbiOx8Vu3268eC9W1tNPk8s+VasON7wKJCpYZAYZH3M9fslCX+zJRWnurT+tbntUKNGlRVFra+vr2+VjN8d/s7J8Y/ign/CM+GdYvLPXJYNYha2kit7XTWmwxspZX/wCW0crSoduWJUYBPFeufCP9mGx+IcP/AAgmn2+n+ILi1YXPjfXLaxkuNPjIdvstlbRswa8u9yyFYyVRnzI2Y4Cw2P2aPjZ8QP2n9OTw34sRNYEGoztJf29qNO1SwsryD9xLE8QUeYLmIxOcMGWYEnG419CeMfj74D/YH8BW+g+DY/C+ma/DbefHFqbyyQaZ56KJrg+RG7S3BYHIYKZFRQPLiVFOksRP2ns5dNra/j+hlGjFQ54dd76fgfJ/7YPg+2+Ces6n4fe+/wCEdur7TUOiaNpN+wjs41R1JnkVlWZl2BpHCqpkk2ouAM/Gura3Df6THIZPtUsluIpI5Y2aRR935iTu3sB/49n0r2z9o7xDF8X/ABTqGpahqHh5H1q5Lm+gS6upZvKBY+YfKBRy5yV3FQAijAFefWVl8P7nz7W61zxVNqlzIpDWOjR+SwI/i8yYO3cYBHT2r1cDFKF5Xv6Hk4qTcrK1rd/61OU1XwJ4P0z4baXBJeXVl4g1IfargxI8kdtlmGwgn+4AcjqePWvS/wBhH4tw/DnxnfeCbu8+1eHfEDKbN3GBDcgYLc9FYZB91FY0ngLQZrCSTT7rXW+zKIDLdaaqlRnp8szKO/APrWPefDHZfSS2U+pedbNvSfyo42glz3IZu44zjNfTZRmssJiFWTej19D5rP8AIYY7ByoSS1Wj7NbP7z9EdOSbwHYLYXVhOkMb7o5QNzZJyMdvfivQre4uo9Nt763ZmjJHm/N+6ZT0YenbPpXz9+wl+1fp/wAWIofh746kWHWY0KaZdysAtyFHKZ/vADpX0FpvgjVvBFvJ/ZsbahpNw7PLatyUXkZTvz1xX7ngcdRxVJV6Lun/AFZ+Z/NeOy2vg68sPXjZr+r+jOm0JrhdWjjvLaaNeHwq53D2PRh0NdV4dsdP8Ta7qcMLfvLEI5AXHmgjk49iK4Xwl8Sm0aFdNuIZLi1hBFrKVy8I7xt9D0qG+8fDwl4it9e08SZEm26hz8s8R+9x613yTaOdSitT3X4c6FHfa6I5I1WK32yLgfeGa9p1K5bUbZf3bFoejg9R3rifhJoL6p4SsNSsbdprXUohPFNnKlG6c+o6H3Feh2ljDpg/fSbpAASiHpXzuMrKU79j38FRap+pmaTDdXEf+jyTxup4IJxiud+Osl5f+BdQ026mW4a6hMbb0B2qev6V3EuqyS7fIXy1x8wHBNcn8SfD82qaC95b/M0cbJLGxzvU+nvWdGSdRcxvWjam1E8Om+FvkaEr26tIFUbE6tXpv7OPgIWepPrk0Jiktw8MIIwdx4b8MZq9o3h1bLTo5LnbDNIoLr3B7Z/Cu58PMsemo1uYtqgkLn8/xrqxeKbg4R6nDg8Go1FN9Dnvi1LG2owySSFekY3dcnkkgdfbjisuCzj2fNuzGQ/PQY6H9Kx/iT46srLX0m1Joo4bMEqHYhkJB5HsAOa5PVPjU2tFhZ2862+CS4jOGH1rPDwm48th4ivTU3K565pdyms3siR/KrfJJtxlsc4PtXQW+kJFe2zGPzrpQVjgGS0oyCR9DtGSfSuR+Dk41fwxBcwI32uXLySOhWK2z1z6t7D8cV+bv/BZn/gqZ4i0zxrf/Bn4R6zc2EdvGE8Wa/aTbby9dsZsreQfcjCnDlcEk7cgKc+djsVDDxcqmy/E9nK8HVxc1GG71v0SPcP+ClP/AAWn0T9k7xHceD/h3a6d41+KkqPb3F9v83R/CgPHlnb/AK+cHkxqQAfvn+Gvxt8deO9e+I/izVNf8Va5c694k1e6e4vdSnPmTXUzHJBY9FVRgAAKBgAACjwjaK9tJJEs8kaAu5wAIwSOM8/Nu6dyRTF0PdBHfbJEkIdFYy9Vz8xwerHd0/8Ar18Bj8zqYmdp6JbLofqGW5TSwkPc1k92MsLeSOCb7Qxkhjb727jbkEqMfeyM84/pUKwE6NDcwxhYdQmYRkfMEKnHl4HQYwSfp61Jrca2MMNujLcXVyVidyuxIh1yOnQcHsOfTibTLebw1M0NvMtulxEqtGcqSSSSQuP9nk+2cmvO1ep63Wxnw2si3UdxGu64Z1VTgFVxjGccYPTkVoaVHHrd/eXi2t7J9l8qBXjRTFCrE/M5wevIA479aoX8kawQtawqTE6xkB/mUnglR36kflyK39LjuLSy1AWoujp80cd5MUXcJ1UnbuXttYsvX0ODSqSKpx1sTLp0mk6eyvHHHGiYM3zbXBY7s5ON2Ou2ub1DSLqS7WyZY4rWbdcyGNFLRAdXJHOPlzjnkdOtdHd+L21bTfImkkntzIX3EYMWGwxIAAOBge2T1IrKbwvfa34xs4bbyo7qO3aWIyMuDGpZiuDwucHA79cHGK5V+7i5S0CtGNvdM/XIYdPS3lYxlcA7UTEjZHHUYOcg4Ge2eawkhZZjJMXW037WJ4ZTn72O3BPBrsfFWjtHfSWUfmzfY4TcOCuFwwGOB/EE+UsDg4GOlYujwQvNb/KsnkJycjcvzcDPQDvnvkcVthprkUu5iqbJl0O4sLKMjyZFdnChSGxjGOc8KRg1m32mMZ/s+GLTEE5HOD2H5VuwS/ar/wAxfmS6ZVuEY7fOznBB6KQex9OtWb+yknuvJs/LkWP75zsKt93GMnIyCCRjqK2VR31NvZprQ5q8sQlu2PMw7EptGCqquD/n3qg9tG0br5e5olAYOMlsnH4ECumksUFptkDRxqGYssgL4ycg9wORg98e/FK5sprmyXfDL5KuUa42EqoHHP8ALHXkVUKlzOVO2xzF1bAchT5bHr/dAqxY+HI7q1W48qT7rO0QXdjHGQf15roNe8ONY6fH5y+SoOM5yWAPOD37VqR6Cpn8u3VidwtjuG7apIO4465HXjgkVUqytoKNF3dz6b/4Jxft86x+zHe2On61cXFz4dYBsE4e2VvQH7y8Zx24r0X/AIKhf8FL7H9rLxRpXg/wres3w90GBL+8uipjTWr2SMjkMpPlwbgqkgguznjCmvjzQjbT69ClzJI0BiW3ZU48yPOFVGJI+9nk/wB7kdqs2PhaSbQppNPmVLu2Z9iO+xrhNp35QnJzkYwOcHjrXdWz7EVMN9VnttfrbseRheGcLSxjxtLd626J90a093/anhe1s3mbdaQyNHdNgMqvktjGARtB4B9MetFtayab4ej07bJM1vBLG8yq3zYkBRhzhhjPA6j3FU5L42mmfK15JJe3BeS3Rw21SFG7J9RxgjBx05rYhW88NXeptasDFHEshWVMI67egI99vK9D6gV4EtEz6mOr1JLG9jvYJo7BfO2wugKqS8Y4YBdpOSWyOPUfjFoXia10mRNQ+zLeR2EjStbXn7xLiQgqvYZVXxkZx+7444Gd4ej+w3USzTSRyKw3spKyQO3PysOMOH5Oepx0Fb8nhi102O7jkL3011blriLyvJCBzyoGcb1bAOMZB6emcuRaMunzNXXQm1uabSLa6vUsriT7Q3zM7ELfxKFYxgqM7jnf1x0GMZJ5DTGWy8KTyKlytxNICjxnczIGwD6nCnp3weuKs3N7IvhyyjkvLq3+woYI5DHut5oQ5CqzZBB3HByPfNXbTR9T8R6b9ntUs7m6uHW9BUpuwq7WTDcbRgsen3smlG0Y2fcqV5O67EmkXn9u6rbXP2cyW7AMyxyGPyWb5XbP8IJAJHPXHvTZ7xrm+tT9l8u1szJHcbZQRcQFQBweOGbAHrjB9LWoWmr6ButZrA2txsaOdTGonkLqoY4/u4CkHGMEn6dj8GdG8NX3i6XR7gTajDHYsySRxbJJQhaVHZCeQCCCBnd8w54FTOaS5rGlOm37rZ3fwV0G68Y302vWmn6XpvhwSHTms3kcGF5Itkflszl/nKsSTwpx1r1aKJ9I0KSS+0WaTULQfabpI41CX6AHndj5iRuDgElhIPl3YJfBdW2k3kOm2M32D7bdwXYnEO24lDL8rFgCnG47dxXk9dwxR4o/4lWt3X2eaztbqC3ke0nhQmZAxZcrHhedoBBj5C9j1ryakuZ+R61OPKiouk/2d4jtYGhvdHkmne58i4DSLp8MuXEuVBXypJFzsYDaY2JYDppaf4f1LTvDq3itJZNZxPJdQWrg2RBR0laMqRIVKIcIpwMjGQQTFrupTaRo0V5ezXDyeUkVpLE8zTMJ0dVKKQS+1Q4BI27ieecGfRYLzxH41v8ARLdPMkVYJheQK6qsbiGN5HXPMGMgYX5S556VKTa0KlZb9TPvodT8JeF7C4hax/se1tzLG0SrDI/mMSATkFnVz93aAMEgDANbXxN8a6d8QPDfw/0vS9Ln0mLR3jvrv7XEk8N1KFVZFK4zteRMMSMndn7pzUcOo2Unwx1bXtl8x0e5FvaOqi4juriR5E2tH8xbbuJAIB+Y9s1ymoalp+lmNL/R7nQbMMVhuZYTLGw4HyM3RdoYqrBfmJBPIojq7hLReT/r5HXJrsnjbxdeX3lNp1wyS3MkwP2hIYSWzlBkZVjt3uBgsBg4BFSzhbxZrF3HNcabtt1WCzQwxyCESBQkby4SQFFkIYnIfbjPAFMufhfcJoura9YSNNbMrNPZRph9Qsy5MmW4PI2DHJOCPl611nhfU9G1aWPU7241aOx1TR59PmxKIlsbyFgiK8iAfvCBCybslh5ZxgUpTV7I0jTk43ZnX+rxa5p9npaxX2p2VvClvbyx/vBEIx5aSxlucN5jqwGR5YHJxkXNEi1CwGsS3kIvoLMLa2lwLj9zrRJAyzKVMUnDgheFO44Pd3ifw1Nc+E9PYzRSTT2scc8F9c72jliGBOIQN6q6rlXABAyOowXRX9vLrRtWuLyLR7FjKYoVEieUcgOoIHzhlwCpGVCgkFshc3u6BytO7K/jHxfY+M/F3h3So7DT9Hsvsc0kiwx/aYmVZMK7SgBmyqjapxg88Fq6TWZ7bxDpjfaL+G3mm3zzWMjxzFHhYLuUyEiPMO3LqwDHHLdqM+oWtt4waz03Wr7VNPuNPCR3dxD5YBidsBom37WZo2ZkVyN2N3IzVu68LnR/FUN1a3Gmtdag8lobSW33Ipj3ligCnMKsVG07sGVgfeJ20sVTfc73wr4z+LMfhfTVsYdJNitrELcyo0jmPYNu5t/zHGMnvRXD2vxDuLO1jhafUoWiUI0axOFQgYwBu7dKKy5X2K5l3PbfjN8OILy2UXF0NQ3PG/lgFIUADBPkU5cL79OpwM15F4aun+ENtFZtpcMdq921ra3kuJlsyxDku3VUdznC55PXmvoe+gi1nxJIsnk23mkyS4bcS/UqrHA2kfwnPTryK8+8dfDyTxZoV1p0Zhu7ezQSPJITtCr8smWx2XIyOmMdMmvH5Y7Pc9iXNJeSNbwP4R0v4tafHq19eJHqc1zIslkCGvFWJiuFXHUjjOBkbe2AfFf2wPhLHolnqE1nfX9vFa3b2kifNGY/Myx6Ho0hOQeVJUjb0rpLLwj4y+Gmnahong+61BrC4smitpriKKa60dsfLcwO/wAvmHnbE/7vGfuk5O98PNYm8e+G7iFfEVv4i1iZDBqc01oI7i2n2p888Zz5OWBIySuCcEjBq5RWkhU7tuNz8uIvEemaN4y/4mq69a6lJqi6c2WW+S2i3K3yoqhtrNu4DHAY4AIAqC4+FFr8BPAOn+LtH15NYjtNVm/su/a1kUyXHkow8tGwzFScMXAU+YAykE59e/aE+Eum/Bz4xRtY2dxcXUd0JzcWt4Ga7lRJHbBc4ymC/GAV+YNng8F8V/FtrdWMHgG6tJm0rSoYPsl+rlbq3vZoLbzAx27sLHGsbjufm5xXuxqP3eS9tOb0Xb+u540qUbT57cyvy+rOx+EGj6x4IsLHxxo95fL4d1yMr4l0mWQyx6LfLHL5Zj2jakEo3hNwAXc8bAlQT6B+zJ4K8RfHTx1LofhTV/D+ra5rVvuSSw0H7JLofnyH7Tc3E6wHNxgKQN6kgt3xjuv2J/2WNTtPg3p82s68uk6Tqz/YUjlb7QuvQkHMUNsvzz5OSHA2KV3FlI49uuo4PhR4QfwF8JbdvD/hya7P9t6xHIW1PVGYhXWObqqZDK0qkFim1NqDLefOcJVJcurfVdjtipxgk9LdPPrYj0PTfAHwH8Y/Dj4YaNfXHjzxBNfG18Ta40guXWW2xcrFOTIZFMXlny1ZgqKMku3FeHaF8IdBk0u9vNUhmv5tamLhnVZnunk+bfIWbICbhkg4AHAIrq9G+DHhzwJ8TdN1PTbPUNN1STzZC1tM6lFEUgR84I8wBw3z/eDHHUZv23hu31PU5r7Upms5LWRmBnTbEHJA42ICCQoyEzyeQAAKxtySbRrvC0v6R8eeNPgC2iePY9BXTbe00GVzHFM0zu1pId27cGxtDEnkABQCcnFcR4c+B154V8dpdXFjcNY2glljaeMp5hwVKbf4gBxk8YPTk19w+INIj1bxBePHHZpJLlwY49pZTJmMg7fmYgFTtyBuHXPFjVfAmn+JrK1lntWudkLbMxF5oCJPmTP3WAAI6denau+OPnFWSOGngaUpLn2R8xeFfgjqlxBGyZs7KaMFjMuI2AbksfQAZAPXOK2V/Z3P9ltNHIytPIPNiLFIFX5sfL1bGCePXqa+h4/DFvK6t9qWFWZbSSzZfMVOcFggyGTaQ38JGOeoFVNY8M3F7pwW3jhf7GpDlT5ksoBClkG7LAhjkDqML3rL6xUb1ZtUpwtZL7z4q+Inwsm8O6v9s01hDc2sgmgni4kt2Tndn0BxzxkHFfXf7J37auk/FTwbcR6xM+m+MPDNsPtNvCrt9tVAB50Cjls5+ZBkgn0xVPxf4VtriCGC5hiS4eB8iQeZJIoITcQx5VWAG0/3j7mvD/GH7OGoaP4oF1o8lxo+sWUgubOaIbHEvXacnj5eCpGDyMHivtuF+LJ5dVtU1g91+q8z894s4Pp5nT5qelRbP9H5P8D9AtesIdY0UXnliO5ulBIiTaMkcY9z3rgb+KW4Fwkm1bhDt25+ZcdvfmvN/wBnn9sNXu4/DviZY9N16HCGCUEWt9kD97CW7NjJT7yZOMg17ZfW2g/ENzdWGo2ceobB5sIkA344BxX73gcdQxVJVqEuaL7H865ll9fCVXQxMeWS6P8ATudt+zx+0Frnwv8ACn9mRmO+0mNzKtuxJe3J67O+D3X15r0qX9qJ/OZpNPEcjDgqScn618/+BNOuLW48mZVkuIcxgpwJFJ4rq7vw9NrDbJvOh2/KNxycY5xSqYak5czWpjTxVWMVFPQ9Mvf2mZlUssXl+oB71xl/+1Jeaxqzxx3a2q2ztbzMUJ2sQpHp0znIB64yMGq+i/DuzWRFkkkuA/3dxPPr+NdBf/ATQ/EulBPL+xXCsGjmVuhB/wA/nWcoUYK9jT2lefU5xvjBr15DLNE1vfQCVk8+F90bMMZUHg7hnp71Z0jU/EPiZj5WoXVpH/Eqsw288/0pPBujzfDzV77QdSt5L61z5tuEGTknP4A+teZfGL/gq/8ABv8AZ98T3nhu61B9Q1LThslsdJPnRwSn/lnNOucEcZCBiM4JzxWdevToxvNpLu9DTC4WtiJ8tO7fZXf5Hu2j/s/6beCG31OabxJMG3TtNNliR8yljwoAOODgY7Hv6V4c8NWcVtbrfzw3KK4gW2syJB7B2HJPsK/Kz4p/8FndH8dI8f2TUIrO1mF1aWGn2Zt4omXcDulchnZs9SO3avDv2iP+CrnxD+Jfh+Tw/wCD5P8AhFdL1pgbo2FyZL+6UoNyGQcxAjIbbgnB+bFeHis5wdOF/aXl2Wv47I+iwHDuNqVEvY8se8tPw3Z90f8ABVH/AIKpWvhn4UeJPB/wf8UaJb6hpmpR6BrGoW02+6gkYZlis1XjMa5DTZIByq/MMj8q49IvNGhmuJIz9ltS8quZAzhn6gnJJUsWznPUk1hvaWtneW7WU32ORo0uPMR91um1jJgkAknGCM8k9eldtZ66t9pFu1zukMOLgRRoMTEMdsjsOjDIznqAQelfneMxdbESc6jur3S7Lt5+p+sYHAUMLBU6UbOyTfVvu/8AI1rPR/JuGsbK2FveXFwlulmjqshy2EPJwygjO73GOOa4/Ynhy8vciRreGYefCAd0W0sAwP8ACdxA7j8q1vFAmtdcF9bxW7RyWxLMDs8xEAPlBc/KpHf19uKhs9YXUvGcepMqi4vk8rbLHtj2iLI3L1Izkdug+leXy297oerdbdTHtrFbxbXZMDIzl0Mcf7qIk/QY7DPTiptXeS+dZ/MFvNs8wEP+8mj/AIsjo2eMjHX6VXhghhupLu6n8toYVRUJ+UkrnI4yFDEDuOtTPfW+p21nl2fkxQCFipmI25KnqAe/fgepNVy3d0RzdGWPEWgx6P8AZZI2gvIbmEykRj97ER8iozDgfKAfoeuTiqtlfCyvLyzaS4t47jJE0LtxGwUheu1gcn5T6D61ZsrNtklusnlxtu2AkCRmOT/FzxyDx0PPNJJYQ3K3j77Vpo3iARSVVFDfK4yAfmUE+oBHvUVNVZm0Y2d4ovWfhSNNNgt7LUIGmmuFMZuQY+AR8xUDIX/ZPOAeK1LbRv8AhW+o3cl5JJb3ks5t2M2NsrKpUogxyrDa4JGeD7Z8/uLG8TxpHYTTTLNK6vGEkcly2PmXsRz7ZHQ569XeyXRuobK4WS8uIf3ZklcybHcZVjIVBUgKByT8o6VwYiEpTVOTvF797epVT2U6ajFNSW/b7tzPutXbUNU1e7k3eZfKm6Yb2khZEx5JHIC/d5I+Ud8Vn6TY3F3efbPK2/aoTHKxAZcc4I4PUY6elT2WoXl543kms3WOIeYyPk7UYABiCMZzuIB9DiugvWWxkt5dlvcQtFGs3lIW+ztvGMbcfMQCCB2HUEiu2KUFZbaERinoYttZXX2CaOK1uIUuJRCpkA2s6YJIIB6EnkHHIqtdQx3GgxMqrDJ0fcR8yg7sMRyDu+nWtHXI20eHzI5Zmt1zHDuTlQFwQAeRkN7Y9sGs3R9Sk8UJfSyKUuJJ41IUdFxksCBhQMAc9/Sru2ri0TsVn06RtKjkjt2+wFxC8jRHBcDcylv7wzkD+mDWrbaesVrN9nls4/NYr5DH5rV1baCysOCRt6cZ69KdYWQjhih+2TEJGZB5S5CsDy5X+JRj73oOuKuQvNqIW3uZ4GurRTPHgfO+ArO7A43Kw/76OAOciiUtCoxM0gXXh6MywxlzG0YMhLFWAwA3+0cZ5xwfxOt4Ss/KuLfzI7llk8uIyRNySRhxtHLZ24xxg461RDN4hb7NazxRi2DSCNlxucBVGD3O37uDkniuu8PalFaFYzdR262oEjSQndHInysyq23K5IALHkEY56VE3aOhUFeWpn6jpUlhqTNC0d5p9rErz2p4ZsYyAx5DY68cFsccmt/UdHs9S8DXklnNHNPMyiDzUKSwSMx2oecoq/MMjGAAT2qhdXx0251CS3kMkcyhJmCqSzE7vl3ZARgp2jOc8dDgta2KReXdNJDdWtulwscX74uu1dyFeODjGDnv9ayd7HRG19ClftHrHhtJme4tZ7F2C3DQ/dUKFKlx/DnjaffFXfC2p31/My3Ud1C19bvbEwDJunL/ACuOSBk44AwCo4zRpepzW2kQtf26us15JLsR8YQAokmM8KpJypwQcdOTVXRNPXRtTV1uI7uO3t5PJPnENbyAttGccnGTwT1BzxR0s0EdGh2uWEiXMkny5t2K28kCgM4UDcT2ZFOPvDPbitoXceq+HrONre4k1LerTNJOEmYt84BbkfMOnHODx3OXe6cn2KGaZVX7CUlDDJlhj+XnP3Sr7weORg+4qaa2Gk6hpstrbxz3U0kyah9qO1WjYH93kdNoGUb72eOmKnSyUh6q7Q+WC61zTrWTTTMkdvFLukVgjA7XMgO7hgoByp6BRgUuo3LReBPCkdvYtH5SPFcyoRIHnV2JJwBtBVsYJJ+XPSoSk0jx2fltcW+pfukuFwqOQDtO1uMq684xnHYg1X8Oa5qGireaaJWg8m6aVCrBW3qoG7aeowxBwOQ3FL9B9b/0i5AqwXX2qG6uIwbj9wUnP74MDu+bAHl4OM9VxXunwJ+DVhPplr4g1CSZdZsWi+y2pEZw0b8TJInLDPGUJyFLY2muFtvG03xOsLi41SHT/M0OGPMMZWBZI9vls8cfR2ICMykhiqlgetfTGnaVLpthb3VhY2ujnw/Cmo6RazXbo5tNioYVkbIYlXYqrZyoGG+U1wYis0uR6Ho4fDxfvp3LnhfVbaWK3jvLrUIZI7lLN7dFScWtqjKTdK3dTMV+7lQCCFODmSDRbm20V49MaO4mkkkt3VokS4iUyFQT0UqysVBOMNnBxwOR8Ayap4A0e4srLT9X1i4t7rz4BdTx3UKR5I8lHZSdySFSMZ+6OASK9ARrrxf4muFRtQul+ytNeRwsiRCfC4VcnejyMgZRxncflJYVxSVjui76PcZ4M1HSNbuo47iGe1aOGW4jkMflyacIYlHmGMIBubau7JAPXPAzzmu21nrt6sVvJpc2t6fapawHSpRtWcszcdGEZYozKC2ST1ICjc064XwZ43vlmV9QhtYEt7SxnnEWoSIxBaRFwykou1CPusNvAwcc/YeEV8RaZcNoZ1H+1PME9zLqG5YYEjkYLhVV8/L0CksHzwF5pxSvcJXasR+BWt4b2+xdalqVkuoNeeVLajzIZVJUuXIEhXc5Ugrg8A4HNegeO/G3hH9oT4Z31nDaWWj6lpd3JZTWUbNtjt12lfKkc9drAqvKsGYAkDNcPoWueH9Vnvm0+3+1ap5v2q4S3kaRrgKUURuzkNKjSE5UfMhCEc5FaHjPwLr3hCy0291DS4bNrmyn11IljMQuIXCqEVtxLgRh3ZQOnQAgkkrN3FG8Y2Lnw90XUvD/AIajuRdSXmj28y2LBZVW4aNt5CyFsna+QB1Ifbg4NZej+Gm0Px1q2g28l1e2txKJHsmMssFzLsyhI3AhlUqCWPYc4GKfbX8mq6A1xpc2keKNSuhb2q6Pd3kke223o0Nwkp6lBkKh2nheTivQvC95Lp3xQ1Jo4U1bT9QSbSA/mLDbRTMI3V3C7V/dvHgFeQCevQqTktS6ajLRswLd/wC1PAzR2Oq2qxXOoSW1xYz7DNbQIdxnCY5ibzZCHXJRn4wc1YtdX/4RKDQZNNGpzR/2rc205eYL5kMcabWLE5H3mXaQoy2QDjJveHvCq6LodvafaXt7S4gMMUzSfa4LUvH+8jYkAJuYlgTyFYdiSc/R5LjxN4wazj1H7VLZyKl4uUSSU5VRKx+6Q6IB5gBKjbkcmojK+i2KkrWb3NeDRkGn6p5dpp8lxDqyQRTlUngghl84HGGBGxwTujHL9MYIqT4V6bdar4surWCGyvI7OFLqyu7qZhDbvIqru87cTG2T/tM2RwcVBpY/4S3VrjSbA2ttNqCfb44UPyNIxXfAxfAcvsyoTAUxtyMAVgvdCLwfax/Z7zSVuo4GFqpKraXMXmMkuODgkFc/3tpweQZvoxvdM1Nf+HV4uu3ovLG3vLwXEnnztasxnk3Hc5P2gZycnOB16CivVdF/agtYtGtFuLWS8uFhQSz+RGfObaMvkDHJ549aKx9pU/lFyx7o9W8XaVcQ6ML2Sa6e7j8tpScgFC2H/dqMgncAowQdoqppOlyXksOjWkd0qwwFUmYJLEQ65UbWwxbBbtgMF9K880H9vGx8Y/Fi18CeEbE+IIrcSvqOtzL9mjiiDbGEUJVi5Uj5Mkghhgdq6n4j/HOw+EtjcalNql1p9x9nGnor2puHndPnVVbBXo5DEkcjIyRXlxw/JK7WrPalWm7RZm+OPhhJc3cEljfXdvdee7wS+YZHimDE5K5CuGIK4JAHXnmquofDTTZtamuJlXTdUtbeOOK+to2triCcYZpC4KlmYYUAnG07cHgC74F+L3hH4o+P7XS9NvNblbW4547CRh5KXzQsjyuFUfJgsAOBuwT068B+1d42sNE1PVbFdfupvDtrE7hYLd3WG/hOJfNx87JGMtkgKMkZ6GuqztyM5OVqXO9D5b/ae8V+HfEPxWkg+K3hDX4ZtNh+zQarp9yv2e2Z1chprbIimzhmYo6NtXkZINZ3w9isP2j/AI86auk6Tol5o8cw1GytdNjuYRe3hyhlljuuFZFXzNu51jRi3ygkDxj4t+P7q/1jTZodY/tXTtWtjetqZnUJFfSu3m/uyFLfIiR7sEYQDjk11X7PMG28uLLwrqRj1CadZbmZzuHLAmDHVgowdvAY8nIIA7I0nGipPdaLyOeUoyrNLZ6+v+Z97aTbjTFvo4Wk1K9uLdNPuNVjm83zYdvywQs20rb7gwJAHmbTjCcNYuU1KzeG2s/s800aps/fIyEOQQ2zrjqeAMbh6nGP4T16CbwZoN3NcSbIccMrrGsgYhELFdoABY9QcOMnjFXr3WbfVdThnuWEMsiyRqtwxWG55IxtOVLKAQGXrvJ6HA442R1Su2Oi0ltN8Q2+oy6jNDFII7OTefMS4lJYiQcLiQr1BOMLg4NUNQ8OQwWsK3Vx9q8yQKZ/MKCdinzFFYDczbV53Y+U45xno9Utl0ISfY22skyOIWeNriRFQkqC3ygMcqMdj1rj9S1TVNY8Mn7Zb/2bL58Elm7SRzRwHczbQu7YJSuYzknJPBFVo9TNt33M/wA3VLVp9TtbWVpImMck8b+eqs2AGGR8i4ABXB5OOTg1a8O6LcMiXELbmtYluDHu2u4O7kRnh2+UnaMZJ5wOutqnhxrYtNdQv9q3RIkSzgRzRnayQuu7ZuG7IxgnH+ziqOiaRDp2p6lrNzqGpMt8628qpcefDD94KixtgpnJVjyffms+VPcHKSd4lXV5refR9sEa2sOIrsI8RRl+VlHQbtpDFWyc/KBztrNu9Gjn1u8soYbi3gXdcIZGyy4G1ihAG5Axxt+8cDOc4rpLjS7c3i3F1p88q3jQtscExhyPmKuASqnIAI5I3E9eXXdnA94lvLDCbmzO2O43yxySxn7u3JAYqSeQDyvGc1WodTg5b641I6U1xazLdSBp7yUy/wCmNOeVU7AVaM/OScgrgcZq1b+G727nj1mG1s10uaWSGW2fIeNV6yKefm3cg4IDe4Fdva2VrD4fkt7W+s7q81K4dktfs0kjFQUZ/LDKB0Xdhv4gOADk17XV47W9vbXybdDJvjtnUIv7vDGRfLY7gCzJgZxx04xW26uzB+R4V8WfgvpPjdGvPlmd5D5xjl+0XCYOFkUEAEY+8oz1zmvNdf8A2c9cltr6TSdV1jTpdNTzIZILyQQyLtwoQHOWPBIHPXHv9Da3ZWcmv291NZyXrQyy2833pLd52fvH99QGZVYc4GMkZr1KPQobX4WWtstvDHDbt5rnzeJhwAQByyl8cHPOD3wO7D5hXw2lGTj6O35HnYrLcNiNa0FL1Sf5n5zp+2J8YP2VfEatealb+ILNXysOogMdo/uyrg9Omc+te6fDH/gvF4Nu9Pt4/GPh3WtHuFbY1zaot1FuzyRghtv4V80/8FE/GMifG1/DtvO0kFncFAGtwqQkt8wVcZIGB1Az6DmvI/iP4J0myis7jRYVt3t8R31rGPOgikJYq2fmKq4AwD91iRkjFfoWU8WZhClH2kua+19fx3PzbNuCstrVZezhy2/l0/DZ/cfrb8N/+Chnws+L+sWZ0Hxlo9vcXkiQiK9f7I6qT3Eu08E9unNWf2zvjb4b+DHiVV8cfEtvDWh2ECTyW2m3KtqXiBiCyw28MYL+SgIJlJAJYjOAa/IGLwsPEmmR4S1uPOiaWOHb5csLHsTjAOR1I5zjgV6D8Ev2Y9A1r4feKvEHjzxdZeA4bfy7LSJtR02W+utWk2b7gW0SZ3BVKASsdozwCeR7NTjiaheVNKX9dNzxIeHNNz92o3G2t0rr57fgd3+1h/wVl8TfGDw7qXh3wDa33gHwfkwtOLjdquqpg4Dy/wDLMHuqEnB+92r5p8C+GvL037Y0LSWsjDMjL95hjP1GT1/HPas3xLbaTpdlDa6ZNeX26djNcTxiPemcLsUE4+Xk5x1Fdh4K1WR9KstNt1V2lleEpIRthiPJIycA8k56/wAq8LHZjWxP7yq27/h8j6TL8rw+DXsaMUl5a3fm+o37HINXt7XaVtLgFbhipOwEE7ifYfrUmveD7CGOCXSryaOWNcSyEHhc44/2cDJJ7nFWvEUjPqC6bZyf6Hp52rLjDybccbujZ3Y9MKKhsIbyLwVJcSQ2klqyGRpDtWRWZgCqrk71wpOMfLk15vNLSV/ketyr4bXM+6upRqDXEQjkt7hliaMIMjIAOD7Y69Pm98V03hzUjoWq2lvdN9stpEFuu0nzIHCg7DnkY3HP6cVg2u3ULCa1m2BYAZbcqQylcYwWAydxAxjHTntU11eS30OnsyRpeSQ+Qx3Zkm2H7+c5zj5TnkADHAq5SuuUiMUnc62+8UWcllGk0cN0087RukkbxxmNflIJB+8M8E8E49cVlahJJqOpXUluo85rQAwmT7sRICYJxjGOnTn6U1r+x1PTvtl3NcQ3mGiSS3QJbxKpEaLsGSNzZ9OT9TUOuTDww0McPkrdQ2sg8xRlJDw2D6lTng8jIPNcyjr1ub7LyI9BvFv9Smt5zcJiNIxC8BmYSZChQwOR0wG9gT61TuNOkhu5/LZZIbOcJEYZAJAx+6wGORggd+5rQ+Hpj8SWk1vNMYtUWMiJWZ/M3glgVJHcHGPUCiC3uNO1dZIXWaG8ws6OvSRT8uW6qcMRkY684rbaTTM/iirFizmkl1LzAsk0kkiQiNUxIzEbSyAnrz65OfrVrxXczWOr+UYjdWdxDHbSXAURl2BDDd1IPzDIyw4HJ7XLjRYdOaQ26ss6WhmMU8DN5MyZwqnJ3A/KQB1xjjODjXMMNwJJYZJJrVmPnvE21d7cKFTjDEYO0H1ziuD2vNU7JHRySjFo0Lzw7J478fSSRw/breCIQNLJ+5kRduTIoU4G3Bxz1A4rI8X6vfR+LWkmupkE1y6xvE+YyXUq2MAgYORwOg4Irc0W3l0bwFfLZySTrdQ+TI8kqsqhDuG3/dXClwflJI54qq2mfatR8N3VpI1tOjr5cFxER9piw26ZTkjg7hjuTms8PJyqOcrW2RVSi0k76vUdfaDZadptnZ6bul8tUVpZ0AlCMDuTIHzKWbqOn4Zrc0XQ5IvDi6jG/mwQw5ZE/wBZxlRgZzgE5BHpVDxXD9mimaSaGGTTwYpbSNSxWNiuN23gA5yDnPOPetnRLCRdMksbZzH9ljMVwiTbsxtlggJ6EBuRwMEgV0yl7pUKfv6mR4rt4I/CbGz8y4nWPlS4JilfG7B6f069KxvAx866Rbe3txJKjfM5Ks6/xMB0bDHA5x2rUF0lnoDzalDE8MakTwbiJAQoMbL22kLx1we/OKdoejE3VjpsayNrEyuytJyuwoz8HP3ecjHcHrkUQfuu4pRvJNBcWixjTxLfxfa7iOZEmjiO+PaxVEOQFKNnJA57HGMVn/EPSpPCGqWbTWv2iFQAZobg7iqnlWPXkZPcd+lbmseZrf2qK9hZpmnbF7BJ0l2gPGq4AXdwRgZ6g96u+INEGpeG7NpprSxZ4ZJreSaUqZAh2bUwDsZgSxU8EE/MDxSjJppsuUU0zlG1Wyt9Nln3tcXEsazSD5Y1EhYkFQpJ+4wXHqxyMAV0FzbRPpFm0waQzhrZjIihpgnIQkdAOMluSTz6VR8I6L5WoiyvrGzmkERt1jHOyRAyh8dgcqQeeR6cVXu9K1C4XTLiTcbeRC6O4YjJOwsMD5ipBBJHIBHOKuVm7EK6jc0NEePSJriOWO1huL5DFbNM4ZIlBB2lO77sgMScKSMGoNU1CG91NhqFrNDqT27sLkMRs5AQ8YwnyqV64AGM81BcJcXduMwtOump8ohyWUBWZhz1DEA5HPB9MEhu7m81+ZY5NyzQojReZvVNoL+VkjgBl+7gDnB9aPMFtZmjo0CwWLfdvW02JnhFyW+Ybg5Xg85weOB16k1f0SCS70hoY1AaO3S4kjV1aSK3BCs0ZPOcELtGDjB6ZpNNfT4PDslncRzTRxq8bSW+1reIlP3cgdSWDg7gynghR15xjXsbWDWa3Uaxr5YeWZd7LKARhX64ByORxk9Ky3ZovdWpv6dN9p0K6aCxs7hLi2uHtlmBSUnglOu3kIWAHOTjnIq74pt9N1CzsTpFxquofZ7ECe8uotimbALRhByqBW2kkknGTjNUdJ1uHS57O8vpvMsWzdW0Uf7lQpJDBgPu7SxwDnq2PSqNq8nhPU47WK3vJrNklMuIy6xxnBD7sArjd04JyB35zd73RrF+7Zkb6hZ2XhaGaW3gZsjMkVw/m87uq/cChizBhyd2DxxS3tvb2ei6bcM11crI8jQgxKrZPyvtYcnGV4zxk8dKt30Gk6vpM11ps1y9xbuxkRoTDlGZdpHpkMTgdORnpTb3wxcWltHC326R7WRbsXMJ8uW12HlioB+65AJGehzVuzXmRZ+qPZPG3ws/4UNH4M1i31jTbu8vpEW7tL/Cbic7nmixtKJll5wRz0zXt2j2d18QLu21NLzSIbOXTLWK9M9y32XBDIInGF2KFHUjGB3PNfPfj/4zeJP2j7nRbbVvJjm0eE2GnrBZRW6SBo1Zi4wd8jYBLE84J4yQfZPANxFpyadF4Zk8yS6tYhEJpVXzppI40+yurZRizqQWfG04wdteTUjLlXO9dT2KMo8z5F7uhs+JrbVNRk1G1uLOzt7fQ7dprA2Fwws/MTKwuXydu44ViG2Mc55ya9F+PHxV1zy9CW88LQ+HLrfHazyxrAs2v2+xiJWCZQSKybA3RMx8AbTWHdwaV4Z1X7HqektPDJptxCZI3dprWUhdrSgDZIgZygBBwH6qwGcPTdNOq61oy3N9dXEflrDpTEFZIEuoywjQNlSBh8rxyBywIrnVt2dOuqRrfEDxLNra6Jb6kmktqtw/2eW7hcW1xOZGZlSSNmAjVEK7j8qtzgbsGtKA+KvhD5esW8Ed/pGpRLJZQxxm4aTeXjhEkWBnI3AYJYbx9Kw9ZWxsPCV1rXn2du1jZJlrpYo7i8kdWhRGQodmN4LMy7cspVuQRs6D4mGneFLPS7lrFNStYYr2CaW6ZWLrIfNZMMY329dg5IweSBU6KOmxVm5WZlDw1pdvJb6w5tbG41u4TUpb94jDJbTlJFZBzzGWj3DaCcMCc9Kta3capqHh6x/tLUnlsZEt4F88GZYJ02KzYywXzVIwcqcyDGODUfi7w1baPfrJbbbfYscENt9qS4jnQOSzxICC6KHZxs+YAtnjOOg8O+G7nSfCGtCx1JdW8PrLLHZSW7KZIHjQD5F67dwb7y8dwVHB0uHXlZzfwz8ETeEdXgaHSftFxfef9rMbZkuLWMdOeVIcjLMAAY+cZyb11bxQ+ffWs8KtqVzGIV/tFd8UaffSQEnBAfyy4PO18jOKseFBdWfwmu4bHUPs93qkVvbs7ygtcwid2kiRt+dpbLchQo45xmtDw/qM2ieIvMMX9raVYSGN5BAxl+0Ywm9Hycb8klTgPtycGiU7u4RgU7Xwppt74I8RLZQz6fBqpK3d7Z/u95RgiyHYSSQco525G0EntWV8Cfh5qP8AbVlca/LYWFnpVzFZGSWXeNUETjyz5alg3mY2scjkE4HGPR/CN4vh2wurFrP/AISCzvJkmWKBdtwCh2MysylTIPMYvEW+ce+TWt8avDsPw11GO30W3vIfD8diLRoRGIoHuR+8kjZ1yVDlA21QeFJXkGpjVcW4x6mk6Klac+h57eafc+JNY1K+/s1ltLm9cWNxbsyKJo2UBU2ncu0bhgcA+WwB5xn+B1m0bVJIriZZrqPTXub20gDXAMEiM0UzBlwXA/iRs7t3PIFdXqUtnZrdTN82mrETif8A0nzZiVJlIBUvtVG5AVyMnjJFS/EXwvNp1vceFG1aFby80b+045rWP7RatanYSDcZLEmUpIsbk4zjPXJzdCLaXINL/Z/utQ023uF8Q+FWE8SyAi4MecgH7u75fp2orzyGXxZFCqx+NLFY1UBRHasqAdsDdwPQUVpyw/m/D/gGXtKn8v4/8E9v+AP7BuofB3w22vahJDNqn2URHyo3DsF4YR7SCcOQdxGSAcYBrY+L/wAH7H46eZpOlzataz6aVgu5p4WjjmypWRx1JCHGWDYXeB3r6N8bWN5eJPDZyT280iBRFknyshhuQ5wA3GePc9qj0Ytc2VxpJkn8xsPZi7Vo0k27PM3SAksrbvkz6jrjNeTKT5uY9j2rlds8X8KeGdC/Zs0DULjwr9nNxZ6a6Ipg3PLKcRwoqZyzyMwyOp/AE/Bf7f3xI1LQL7UPDOpeLdVFxrbm6vdDWaNrm0Eyxl/trxnb9oZYyqwZZ1jO59pwp/RS1/Zxt9O+NuqeOIr5vMu9MeK3026csEuY8B7hAxwxXylwCAc4YelflZ+3x+zrpHwv+IWoWFjPaq1xrt14jkWFA8lq4S1hFsABhtsslwx7YK9CTXZgUqlZOTt/mcePbhRfJr3Z458PvDsmsfbli0/U7zT1lFtBeWwIiDSgmKGQNhN5G58Z3YRsdCa9n+Hv7OPxD1rT5LeW1t9Mgup4wt0yEL9wEMu0b+p9Oqntmvpn9jL4P3eu/AHwfqHjG3tbdbdm1HTdLis0tYSkzGRbyaNR89xIMLuJyI1UKoxz7M2mSf2g0enzWjTQ2nnm3up8rLhhsAABbDAsoYdGCds1viMbJycUl+Zjh8LFRTu/yMrwZoEngvwxa6TJc3DW9rBDCm1ty3LPuVlZWPQ7iccEEgVZs/D1pHJIkkK3Vrby+fHCyqfsyB1UcFQBtbsDkBQSegrtobiSWeHyfsePMCuC4ZpC6jCh0XKyKwHQEcZwKp61bW+s2CrazRxeWFdCh2/vpAPMTf1diyHofm54znHmPRHoKTeo3zZ7mezt0glFwJY7fzQu1kG7cqKSMHOc4JHzA9AKxdS0qxu4Y/JWQIryX28QbY54yGGNqgq2x1LDO0rkHFdBbWN1Z6ZJfNY7ZgxluJIxs+zysgbIjzvxhTwOrZ5HArA8WeLLr5I1u2V75onfe2Dbuu4MnH3i4VjnlhnBzk0KWoctlYztb8QWen6FaRpHDDeOfss7pKZXwZC7ySMwPC42hRk/KD3zXN2tzG9zujaa6uvLkjJeIKrbvm/eIPncKx4yD8rtjpiry3txfXupXnleZb2doUnSBFWS1HEW6MsecEZwegBGcZqZIV0yQN9lktZDMkbIZi7TRkl5MOMYBwCQo4PGDtqnoTGNkUrq0tbHUbOJrS5hjtboPPNLKFgfkPlWBIKr1y2cDcOPu0+18br4uvIz4dlPiJtNV7ifUn3fIEkG8/KACAxxkYDDoB0qHxRZPBrscMd5DqctnbrcKI5FkVYWcgSLnjeFI+UJycD0xJ4cgu/hrdwtot5Fb2d+rz3UdphvOj5+/GqHC8MAxwRtY9Mmoqc/L7iV9N9ioeys+e/ysXvhn8P9U8YeI/7QsNUmTTNNf7Lbam1r5awS8ySys2AVCKSWI67QGI5qz4l0i00fxIqwvpPiq4nTbJeWUrQy3K+W2VROm9vvsRncBlARxVbSPiDqOm+Epo0t4NO0rVnMD3SwsZLgBw5QFshctlsgEdOnerHZ3+t2UDQ2sOoLoV4Xa+g3KHj3rGqbuiMoYZHy/KT2JzjR+s+2bqO0dktPvfW/kFRUPZpU9ZdX+i6F7wb4Q1Syls9QmtLfT49akd3Rh5iTqACFcITsQ4X5gxLcZ5OBveOvGMMct/Jb3MkYt7KNEs2iBkt327mRc/N0yMZyByOeK1Ne1ceMLSPUNL+22bW8LWawyXRjic8nzPLMZwoXIK85yGHGa81+Neq6t4Q+C82oeZZW82r2DPdtdK0c13IBs81d2OQ3BBA4IOT0rWvU5Vczp07xuz827i00/wCJv7XOqaDqF1CLrW/tFlpN/etmOy1AuHtmY8YRmCxsf4RIT2NYuq6Vq3h1bi4vbO8t9Y8020ttLakpeyrhHhJQYkIkB+oUgHNcj8QdAk8U+OtRv4riA2tjdGJplmCtKzltxwckjaOGHGQOTVa78Wah4eub7VNQn1C88RX1mk8VxDch47dty7rryxxvddoIYZG52xkgj7SjQajFp6WWnn/wep8bKteUl5vU6XwlfX2qeI7DQbJlXxD4gvBYATwsoikciLzG3H5VTnkY4XJzivdP+CrfjhrHx3ZeCdLuBq3gv4Y6LZaJpeoiBRJLPsjiuXcjG92kQLkDA2kDuT4z8H7OPxL49i+JEyRzQ+FSupXwST7NadBHEhxkqGldMgHAAk4x04/xxoeu6h4h1DxB4hWa8jk1CQzYm2xtJ8zkj1LMS3HZhzyKcacZYlTl9lfi+3ovzKlUnHDOP8z/AAXf5/kcpP4W1BNKs53tZFS6berSNtUIRgg84XsfTp1rq9M0Q6O+nTCSGaaSBZI2jG42r84z64XbkH165FO8O3CLc3F1cXFzcacICsaGTcsaBchQrehbpyM5Har+uXUmtabbpEFe8ukfy5I1ZDJHhUVAemRsb5SOpPU813VK0nozzI01fmJbdsSK0keZrOIQ+YpZtoZNm0f3SAxPPQD8A82y22iWNvqMMdx9hWQ2nksEaSSTAXdjIYN7Y5xU8Wgh/Clxr2n3Nst1pp8m7s7gMnlyAEqyZ+8Ocknvxgdam0+xXWbuSRI1gubK3Q3kEo3oV4BCAfxE84GOOhFc3NfXsdKi0ZGkR27M7CNZBESbhZD5ZDcbRtPGAx4xwW9uK0rbSJdXtrZvIj+0WId1f5C08aY3tjIYsFIwMHJzxxmsvRdHk0Nry72xyWizJJFOo82Ebvuq3TbnGQfWul0Pw5JrXiPV7zdJDb6SzXW+MgFQ7FANuepKryOgOSOx0nKz5mTCN9LGTb22m65CzWt1NHdLb5ngkhyk7KOFA9eAQT3INVfEGmNrVrBqG92VY0tUBPzQYO4k9AfQnnHeqttpjanNDNHb3TbZUMisg+dAC3mIDyyqoJY+w6V0Wv69/YKaeLNpTFH892siALGQcZII5yOobPY5q+Z3stydGtdhunwyYVrrzYzJM5jnWPHkgDj5lPCsR2wSRitS806Tw5oiXEiyXcl9F5kETQjNt8oEfzfxKMEgkdG9aj1XWo2sobqGO6s7KS0MrKNsil/MUZWPsw5B9QSecYp3xB0KYeFrq8fzm811jlZZVEYQkAhUzuyQG24HciuaUnf3tLnRGKt7uuhl6VrTatrUsdjIwXS/s7j7apaPYx3FweSpJxhTkdfatrxZrWp+KYZtNslurcfZ28yONDvRSVk8yQ/xO+0HIwQcDtVWBLPw34QsQqnzpJxKz+ZtBlAwi7R0AG0Zb5cKTxyajm/4povqAuB/aUxEr3AUCMx7iBtYnoeVLYwT16g1xVqiUueC12QSk4x5L6vcxYvE72/hqO0t52866zbyxs28EsxDSIc9xgcgVc1hZvD+pwaf5VwbufckLYDSLjHyE9chvzBxgcVV8RS2nir4pOrRPos0YgMIUKxuHCIu0kYXJBLD6Y71Lc+NRq2r3C36vI1vL5aXIkEc0UjMQzLxkbgCCOCMHkZBrtw8Xyptb6szqSb3e2hbiFtr4aTzJbJooFMoRd6XbIWZRtbBz14Pp6Va0bWpJXj1CzurK6kaUQuiK+/exwQzHoSQDg+pGcVT1OWyhsRInmRXkyCSVI8KLdf4Tgj7pyTgdAxHPBqKx0Ce7huPsr2+24uoxLEr+SzKjAl4sdj79CfrWztbUFdept6666/rzLHIVt5gAxC7oYSozt4HAYkDHqyiqK4hWZo5vJt7fItp1bdM+x8bcE/KwU8Y9COpNasEkLQIrR4a8RmUjOdzSKEZ1PLD75HrnjNM0zT7nS7WO1jhivTazrdyOR90AEOOOQuD1HB4zyRWV0tDazfvEfhzW9PtZrw3AaT7QVdZV3K6hid25eCQDt4zwckU2ezbVddt7i2knuNp8pGkBKJHIAF3KOqnke2O/bn7iTULVLpvImjnuHENuJD5kkiH52xnr+n4Guzm8WX2t6TDaMItOt9Hji/0eyt0jeXexd9245eQEdCclTjsabTWqFF3VmLp2tq06W91CtlfXSRxNf8AzPNbKicqqggEOdvG09FweTWPfWkNpFJIziaGKMlZIjgsmSUcg8ht4zn1xmtLVLqG6vJEVbr+1mjZr5SdqIVj2x+SMZKlclzxtwCMVVupll0KyZZFlt5lIeJ2GWKhSM8lvbnhsAmopxuXUdlYs6bqP2j7ZdXUccN7eHDu43RYOV+UqPlcfMct14P1pavY3Gna3a69ZKsm5VMkKOBLMoypdSBgnOcjvjvU1jNY6bfXltLZtJFqFjLNbK8xVYQ3zBtv8eEBO1vw9tq4tG8X6ZC1nHPP9liNvtjk8uVcD5W5OA3OME4x7mlKXJK6CMeeNmZfiK30+RtP121upNNkvk2XUaxER5J2/MMYYqGbOBnnpVUzSWuoxzRy3VxaTZhlEgLbG7E4A+RwQwY9O1aV9bzLprSRLmaxuIy8csXmQ5kboSQQM7TknGNuehpt3PNfzSb2im2xeZ5jyHzNqKEjtxngjaQMDgL09KmMu5UorYNJ0eHXbaW3W8s9LdppnsLi4mCKfK2b03dHYhjwOpB9as+LbiGbQIdQj1COG6iufIlhj3brgfJlmUAcZC8jjHOOKreH/Cl14rubrS/DtnfXlxNaG8NqCGeQbtrbVwGRsDB2nnHTJNRy+GWjSbTtQWUQyBY4nkjaK4hMYJAJwMfMNpHUdDxRpfcr3raL5mn8IfDsvxCS+023kty2mKFuZJIjKrsWCqUOM87up4G1elX7/wAH2Pg/xmbG3uFmkeA2Ewvo28syKhdoMMpYO20qCuSScDIPGD8P9euPhpcy6tNYWuoaff7rVpLdwjwu6BcsuOQCoYEgr19RV7xFa6x4/urlh+81BpluFU5aWWcMWBDZ3NkdxjaMdqmp8Wj0Ko3taS1PZfgZ4L0/W9QXUIZrGe5hs4tRD2ly+LdIssUkxyJEz97Iw+AVIFdvaaGvhLxpo7RPb3mitewXj2kybp5Hl3eYnAXMizEHJAIUAcDBr51+Hnjm5XXYJpL6+sZb9gmo3EcPmJzkMzqoyVJOxwMZyDzgZ9u8Ga5qmv29vJdrZ615d4lxayE+X5AlyocbcCVdqAknJwF54NefiKbUtT08NU928dz0fx3purX11b6jHFdahJYSSxXMCgD5n2SsCjZdgUBAPIBUcg/NWdPFDe6ZobyWN1JO96SI4XCxi2OU/dNkASxM+QmADgbScinaVrUuueMvtE+qXF1qOivHM0scTRS27yQFjsbcoAAUnDZwcYwDz0E+nXPjTSX8IfYbqfxZbwPqMcyybvtIDmQ70UD5ceU2BhkY5GeQefVWudO+xS8SayvxNi8NeHdKtZLgaXfsH1CJ9zak4ikdVdJCPNwyqvynJ3Z25GKf4A+IFmtpp6Q6Hb3863L6cumFwLdcBmDfOMRzecFBA2OwGOp5wo/EN34L1az1dWmWxkge3nScK0rSopYRIWBY7SvzYySF6jis74YeDbPSdV17ULe0muLW8uYLu+8mVpXtGkkVXKxSAvuxuwzdCoycHiuS8bEuVpeZ7rq2k+HBdaXq3h1hfX2mo09/Z3Nm8NtEWCrKxQ5zIo3CQKxVQcgkEisiw8c3ml/aFWy0680uF0lsJmhZ202TawkWDoB5ikSKxwPm6ispYtJ8L+HG1bSXhTSlgFzcT6lL5IQtGwZQwfIHzCMx8biD24K6pe3nhTSLOTSrSTVIZLc2t7bxws1wLKdCsYibJMkK52qMnAZsbsDHOotabm3NfYS41ybQLI6gtrp7XDWrTJbxxOil1dixkDEMwKMOGUDPG7JFP16Rr3wbqWraZeBrczWn2nSPt7SSgGSPZuZ/3iBdh2ZyuQAw652NRubObw1cRNo91qGsaekcFlfyBv8AiWRuQ03mb8DpJEdxA2+WOoBFYvirRBDAstilvqkjW6+aEti0tqVY/OzxkAFSVYkBgSCDx1qMUTKTOm8Da60otdQbzJpHhnjga8BziTAWUKMgmPoSrbgB1xkVP4p+MF1rka6drEUf+tiv1lLNDHJN5AVyuSSjEOCM5XLA5ODmroN9ceFWt9WWXQ7jT9QiaP7EkakB5ocLK0L/ACj5nY7gu4sB0OQJ9M8WQ6rZ28N8unztaxNZXAubVpY7lfLMfmAkfJInDbSSpK88EVnb7W5vGTfu7FPTZYTDaxWd5Z4W7WDypHmUSJ+7xI2/IV1JZccFugOCRVrw/wCJ18XeL4rXWlWBLS3jyxgVDKvmMkgcrtUlXCkMuTkjPAybHgIeHPFcU8pjaSTTYNsN/cXW2S4iXbIJJ42ALnOQAGx83HJNYMWipd2c2rEXmjxyQ5R4kW5W3bJIJKnO5f4hgHCccgUK2pElszide+ITS67etD4N0GSJp3KOunth13HBGDjn2or1C28V+Kb22jm+x3k3nKH3rY2zK+RnIJiyQfU0Uc0e35hef9f8OfXXhrxJ4g12yhTWNNsbCG6s2lhCODM5Vx+7dB0YcfNkYAGQKo+J7C+13XrO+jvmga3uUEW5M+bEqnIU/e3ghQxIJ2DpjFcXfajMviX7PqOrw6ba38Mt1FaxXHl3SpziRF+8BEFzvIw3TBFd54D1nT/Hd3LbW91qskdk32W5e6jMK3GFG+UHHzcEHCjBz3rzKX7z3Wd0/wB2+eJ418d/2l9R/Z8+Plz4ej0+G6lmsU8RWF7qusbbeRZmZWCAxl1aKZuUDdzyBXw/+zvpXiD9sH9ozU7O8k1TUpdJuby88VajuX7Cswvd8UcTrwyyknack7Y8kYXNfYH/AAUr+EPw70n4QXfjjx1ax61caLplxDosKMyIuTwN3q0nlkE/Nz3Ar4s/4JzfGfwv8Mvhb4+1CxtNQufFOvPa295k5s4FDybQmORtC7i5HPAA4rvpU0qM5WfRX8zjrVG6sI8y1/JH2lrk+g+FLe3XVtVt9HjmhS2t4YpCrMwGxEjUD5jjA4B6nPrXQaRHpmq68l1ajSb3UYYvs0YhlU/ZgpHyiRc5AD5K8rlu2RXjnhD9nbXPGEtn4o8TXyyahZus2n28cTpb6fByOP4nd1ILBjnKnHSvR/gF8Erv4M2F3BHq8zWbubyKxQJ9l04uWaYxDbuVZCAcEnaQBxkVxJrozs5XY7DXNNtb2yuBDHbwwzXAB8ojdEiMRkheQCATv788EGo7y0gS5W3P2ia13MJSriaSPDHDDPAA3A5xwRxgnNN1O8hhVbqGNpJBKsvmyFo1MY3hDtOPlXDHccKNvfgVivbyyx+dJcXJmjmXMSw/vVmXK7SQQDlsNtXsAPu1LkEY23NyWzmbTXkt2ju7xJVaSdAFiyvCMqEblU7yTuGfudMHPH6zY3niWBTYwPIUdPJMuJI4bhYxtXIIJyzFtuc9RngA30TVLTVJNQ/tWEx/ZhNbW8EbCWNSDuLMpO7OF+XBxjFXfhcZLbxx4ZkihW8eSfZOtxH5P2YMvEkeRtDAqxCYJPQHvWGIrexpSq78qvY6KFP2lRU293a5meHvhRrOm6bc77OwtdbANwltJcEyTxFyW+UglV5AJIO7IJOSayfEOr6z4Y8QXi3tlIt4xzNE8IHkjptj28BCvzHbjI565r6KtfBy+GNQWQm51G6nVlluXxvUFiQqr0Uc8j2968w/ay1Cyg8Y20flw/aLS0RpnkJV1mdjsXdnGBGD8uOuByTgfK5JxFWxmMdGSTjZu66W/T16nv5tk1LDYVVYtp32fX/gnl/iXwopkaSxZrbWLKzR4IXVox5bsvmxB+rDy1AjXsxxxzUHhi0hS4+zzW4maGIy7UZY5HTLAk7TngrjZxwMkgHNWLOeS4uDqyW93CwkDX7W5XbKFjaOM4b7qM3LBQB8oz2rR8P6VfeHLCz0XS7qGHW9Ps5Dbx3abbe6ibczHzDyrp91SQRgk4O6vtIyvofKy01Oe8UyPZ+FdtvBM2m6JsVXtpQyxSFQxMUfO5jkEkgDI/i212/gXxHcazeol1a2c15ZwoskNqV33RXCN5sa7d3OCVHzAqvBO0nNsfC/9lpHdxah5O2JGdmJ8uNWAJTI4UqxY/LnJ6AYrc8A/DSG7vNU1aO1QapCUP2WJGX7Cx3EOvH7yWRyzBj02kcdtHK6M+VLc3PBM8l3b6tdPFYzKxjWG6VTmSLAXzGB5SRWTa/yg8AkkAY+ff8Agoh4yk8Xtpfh3RbW41m/a2kuGsrJfOuJCqnaQucthmX7vByDzjNfSUmtwDStSm1Bv7N8mNZ2JCieNiAowxypAUICGXg7scEY/KT/AIKH+N401U/d+1zyrsuA5jlMKsccr/q8hjyuD+QrGjCVfFRoLrqRiaipUJVGfPXi/wABeJ/C02n6fr2jX2i5uBHcXDWrx3GMZcEMRyq5+U7Q20Hng16Fpdv8KfCB1G81fwx8QPFWn2/lxJPb6zDaSEOoBUqISq8Bf4uNpG4kivMfH+ptq3i631aC+utQ0/Uo0l3XV7JdTWwcYKTsQD8nI6n5SvJ5qb+0PPGmaTpn9oanbxxrFNaRsRJdOCWJiOMYAOQTuCluhr76dN1KceZ29G0fFQrezqOyT9bM9MjGg/Fe+tfDfwv8O6p4f8KaldQ6lr0usXovrqCSESKsp2gJHCPNfbGxYtJz2AGr+1Pex+Krmy0fw3oa+HtE8G6Y9tYQRXPnS6lBgH7Zcsfmlupn+d2I2gBFGAorE8XeM9Og+H3h/wAM/D/7fpDXkbzeK5ZHQT6vI4wsW5DgRQxqEDKoLMzscDArHvNGu49OZV1K5hh0m4ieaCcmRV/dkKyHOSqr8pAOcAcVwxi1UU+i2Tu32u/PovI9OVWk6PsrXk92rJeiXZbvzOFkWONY7KG4ZolhTzUa3K7mHJJXtzu59smuu8MXs+lePrGzgePSY43ZBcA5jgkZOpOSFJJC9enetzUPEUy+FGh1GSKR9NEcMh2eZJIsmD5wfGfKKqDtJzk9utcnquix3PjRrDT5hceeCcOywrdD7yspP8fTA6nGOvJ7Pae0i4tHmypKnJSi7nbeOdHHgjUbyC4DvBb7YbiEwhmjYjdu4OB6/NyRgkVR0K1cRXE9jewrDeB7ZJ3kHnTgKpZ3B6dQFYgBiCB0OJtNvmvtPlF99seGb5Zxdg5yUIMmT911z0yc7qztM0+Q6fcRx3sK6XHcGC6dYjGd4DOm/aOVdUyg45BHB64U5KKs38zaXvNSRB4j1eLTtHv5ILpoJPtEO2RYtqOV5IOTnOGPUEEZ+gXwZrMviOYWcs1ra26uxluSrYO77uQoJ68YwRyM1DeaeurtA0e2az2SAIRkyyISQrAdWAYcHn69q2jo1zpMTQyeZNBJtdPuSqwZQNwHOFxx1yB35rq5YtWRz8z5k2a2oWK63cratGrrGhIBUIUG77sYJwQeDnv+VVZrHVILa6kvlEklydsaLKoDxjg71HTPXrnAqx4I1WGK3n1G4t/MsVKpASRIkT9Mshz94nucAj0o1G6+2XOoxzN9umaUi5CDy5FCxlQenBOBjbj37UldOwaNXNTRjptvDZ27QsJpMCWPe03mYfb029MYIBzkE9dxrrtUv1u/BN1Ncaa3lTQLFaXDXAE0LE8Oy4KMFIGQAp4IJ454Pw14mhvri13TeX5bFx5vIwACOmMEjBJyDXq3we8S+GPB/wAUdL1DXo7zWfDkN1JcX9gZDJNKHgPKjPOWILfmOlcOO5oq6TbWp3YOKlLluknpfseRtqsK3d1p95HaxtDmTT5JZvLVpW5DfJ2BDYU44xnOaoeLJYtIt47ZHjvD8n2gIjIsqKAWB9QuB8wJHaszxNdLd6mqzTyWWoNdIsc5bAt4+QQRnDAL2yOcHPJroL2azunm0K1kN7p2lxvFYXjru+1h1XDKODgMDgf7TVcqDjKLl2/rU4eVTbd0YbaPMnji1bSYZ2s5Nzwo0YSR5MhmG0nO5Qw54+UA46imXV+s+vx3M0cVlc+XNu8g7gW5Bdc5xuGRwcZzjHSqn9oXwure8t2dpLtxOiuSG3j5OFJ69h9MYGKuXmks+l2Bj3N5yN5e9fnx2JAyc5OOO+a66fw2bMlqtDf8PW63etw27apBZx6hlg1whe1ieMlRl1Pyhl+XdjByDx1pPD+2yNxJNIm1GzPj94pckBstyCoBI46FT3rHvI5rh7GbTY2s9ShUQyWs5J3+h3Nw2c8Yyen4bmmWFvdzNeReZbWzRM1wsRxHGwPPfj1znHTPU1UrI1jd77oktkm0e9jVJo7yOb9yZYwVlKlPlU7hgLkKQwwQTWppmr6lbm8huJIYjo4UFN3Uyj7igfKWBA653Ywc4qp4cuftelastwIrdbmEz2xZiIWRzjCL/Bux3J6jpUAvG8VDelu9rqNpbrB5UR+ZBGGYsV75GTyDwKxtfRmkXZcxD4rD67DBfS7I7qNomt4Q/wAyodoJJ7NwxA5J9a2/BfiKbQY9UhktNPuZp7dLaM3kTLOT5m9jFkEeYVGCx5IJA5JqIaRZaTZeW11DJNPEkxlgfzEXABwCOpO/AAIwVYVn+Kb6S81aL7RtjWSRAqlv3iKvGF9egzn0B6HFGklyrYrWL52bFtbSXuootr5k8bOXfy2aK4By+VYZJKkFVYjgjHenTXdxqCsFhjmH+pWySYOU25znsxwHORwOKijf7ZpTPDcXwbynSFoXZPNDuTs4/h5ySc+hzip9Q0yPVraG6eGRLqSJ45Yw5EcboCQQQBtY8/N0JbuDU3s9SuVtaFrVINPey86zj1B7WC6LW2oXMYWS9WOMBQy7iu8Df8g4wcHcOkdrpE2lyT2qyRjV7qXa0SSKYJk3ZHQlWO30OOD1xViw1yXSNch02R49V0rSVa6tbe63D7OzDheNrcMe3BxzkVnWWq22reJYnuLGRo5A4U2qmYQvk/IqA7huJAUdhUa2NNL3QzSrG4ImuGZYUkHlXLNMWUy5YhdgxuUkfLjoD6Gt7xBZ6foui2MkwhjOqQtDNGFP+hSBR8xY8lXIUA+uc5xzzs+lXmq388ccUiwyMGZkK7QQpZMqejBV+mRitGDXYPFMztdwsXmfzUBHynHEiMpwVJUhjjPXpjmiUb2bHGXQ6X4AfFOL4P8AxmbVFa6mhuLVYHZ4hJIFzxjptIbbg9Dg+9XP2j/ifpfxj+Ktnq1jY3CaPqkipc2zSeXKjJtWRwcNs4yOAcZzg8g8Da3p8ITteXGmxNHZiBdn2g/PHIcj5uc5Uj5lJAJbgYqSZo7i4/c28lrHYzYBSfAi8xuQd3Ybhl1xlcH1rJUY+19qt7WNXWl7L2L7mhY6HHHpf2S1N5cWcTBJEkx51umd2zsDlABk8Er+NZfgiGa/1O3sWZPluGhhW4mW1jRtwwGlJATJJ+bPGOcda3L/AFFtUupZpmt5Jon3RwyoT5kcaBPlZcBlKgEegFcjb3F5oetRrrX9oQ2d0jC3liQNlguYyM43AscbjkjJrWnzO9zOpZWdjU8RpdeHPEE15aXS3NhP5aTBpmO9umGY8Fs8h8kHpxmvbvhF8atN07w1Mtxezp9ihNxbwTRGMF1KrJbh1B+doyWBYBSA3O7BPg8mi3WpWV5p6m3mjcm6STytnloQArMR0UjO5cY3DPuei8O6JqWsahY6VpmmzXV3dYmt0sy07QOsbZiKKp3oVVm3dgG9Dma1OMl7xVGpKEvd2Ppjw98aNNg0jXLiGzs7izaGG+vLa8D7l8o7URBGCnlh2Z8OMgnbkrkV0jkfEWPS/EFncR/2lHas9pqFg0McSlJTIyttYuyKp27SSwORzkV81+B/FupaGLzU5vDcd1Yy3k9vII2Kw7pLcExA4/1Y2k7c52gEciuh/ZV8VXHgvxPbtZ2o1KG+vZBZ2bSPJteUABFIOSpBdecg8c5IFcFSiopuJ6NOtzSUZ6XPd/EOrtH8Or3TtYtbWS41ON2urvyybmKOQ/Mx2ng8FscnqDzkVa8LWUXhTTGvdKW08xFi+3S3MRBt7cNsEiqpDDAJyh+vIHNXU7bRbD4sNcX1jqun3xeS+SMulzHDc+SY1xuyWX5SrAjhhuwM4rW1zxJpejWlhqGnm/mYWVvbXcr2jRXdkqD5gYlZlljVSBuXGAowDkrXL5LqdOzu+hrfHvRLfx54um1BrSK0sbm0s2+x29qEt1bJlaNoxgDAKSbhjcQw4GK0L260jx3NHMqyWertNHGk9tN8ywxmMsQAVRYwr42qGIzjgnjKs7yM6nNbM0Frb3Us4kJlUwsjxYhjUFd3lOzDGG5UJgAk1naj4WgOhR/aDbldQImEbzoPOVWQS2/cqwJiLbiy+UBkErkpLSxpKV3dF69m1qPx1LpIRoLiYNFLZynDRMF8zJU8lmTYVOShIxzipP7Ft/E9ppki602k390yRzRWkT3BbcRnzB8rRqWKlpMEg9TtBNGreMdQ1C+utWW11i4trEx27wRygSWMAVYQweTk7WGDEdwAVHGSBmbR4vDvjP4sjXbO0vm1r7B59gpnJCopEk5lbcFfcRjaFKkjpwamV1qUtdGWfiDpcfg7RtFj1m8hvIbW6is7+4vNsfkFpXZMumccBQrIM4Bz61o6E1x8K7uPUpJbI3SSCW8TzV2w277mT5GABWXa2XA4Y5JwDlfiVcX1pdW7xQw3CsiXCRXFm0JuLczMEMkZOBIEx8ynIIPIyGrPeWa4h0+7bS5rq3MXmSQo7SSRKkQUtHFnLqoLEqeCepHNRe6DqaPjPVNP8VeKobi10Zvs8chd/wB3i3O+OTJZsjJQnnZ0DEZBwaxp7LTdF8WLD4cj1a80PWBHHqFrqjAWqTMgDiErxt3n5Tv5BBIBLUeFYNQNlcXmkwTyNdhri5t3WL7NMu0AJsBBWYhdu5ey5Iz1nHgW++w6DNC2p2s2ivJqIlMJkjuFnYD7Pt+UBUc789AFOCQck0joGstRmoeKPCNhfzQST+INLkhkaN7O2ktvJtCDgxJmInav3Rk5wBRSyeH/AADqMjXGqalaxanOfMu0EAGyY8uMK2OGz04opXD3PL7j7e8W6HfXXh1reWz0+SbVna1iQQBbiK32bRC7ZOSELDjA+UZqXx54k/4QnwMdfmmktdG0G223oVwpYouxV2MPlAJ+9kY2jtW/qui3J1DdJ8zArJDcmQ7Z5CSAjICPlwW6nGccHFfPP7a3xPHw0+DvjW7km/4lOtLPHdfbInEcY8kBVQhsln8vC4+U4ORkjPz2BU+S7vqe9jnB1LRtZHxb/wAFEP2lbH9qnxbpOieHZoNFsdOhC6jcF2vWaVSfL3EZKlBy4UEfMBzmt79gv4a+HtC+JF14Rt/De0aPbrrN/q8i7LXVb/HGxDy0MSFsMQfmJxyCa+KvhF4ij8Rajaxwtd3C+KleEaTbxGWfzXuBmMA8FS/3ckDOPQ1+nP7Mn7IV98GvBNx/wldxfSa/rFj5AntL8xtZh23bVn5y0aqEJHygL6NXuY2h7KKg3ounn597dnoeFhayry57a/oepXOoHS7Oa8W3Myq8pihW4DLdMD5aY+7gyDDBTgjGCc5okhvpLKGaCYySXRZCYxuaGTuTjCjcVB5BH4ZqjrMb6To6mxS61S8s8GK1e42yTwHCqykHLFM/eOCeepJq9Dbx2tpEttLJ5QaG3mDbWjbLqq7wRt5K8A4Geh7HzPNHqtdyvF4jXUEbS5ZpLe4SBBLIq7XLkgBYz1VsknAPvxzmtOX0i+ZbjaqogZZIpd6sGwcBgNzbNr4xzg9+lJpF1/ad60MsFrua7junJRy0UoI9gd2QMMOCMjHNO1iCRtc02aRU8u+VY7EQg/wqNsjbRyu4njPTGc8in6EeRLfXk2t6fDJAtrHdNDlLq1cPuXcAGU4AyAWIAz90jg8VQ03dDYSqsjXUnnKCLg7oyOSMqTkZbnPT044rW1DQptE0FbxJrVLGOB7hoRu8xk+YnaoHXeclQOAOR0qnZau2n6AqRzrHqV5HGk0uQyFipIB6kfMV6HqPTNW43epEZW1Q6z8SeI4NEmtX1TVppLiFnighuNzJ1VF3cElcE43AEY59PPn8FR6j4luI7ia+vPtUk8s6sdrSwkc8liA4dCf9okAdOexv72SKeCe7LLcWkflTSvKn75B92LyxkrtY8HnI9RWOl7F4N1tpbWHT9qB7gowLCRCCzAdc5YFcfw9e9Y0cPSp60opX7JFVq1SppUk3buzSkgtZLZri4mtpBEI3jLqpE6EKzPIVxl12FSoADHuAa5241GHxDEklxZ+daaK5d2ciFykigAIBlj1JAOeVB5xWjdfbtUvbG6kkjksbNibhoY0aeX5iBk4+4ocHHXjoTS6Z4gtdI1WKaaazvLPU5Gia1Zo0+1CLbt8wkAt1KjPIBA5GK3lZaoxjfqXvD1/uuDZwRTrZwpBfwQzW6MsyRsGzuIz8rL1GD87EjHX1GO5j8GxfbGZrO0hkeYJIjSna+0mNRg88hiyjPPtXFadoUnguax1K4mke+3RwzIXBmZFJAMYQgJkOV3c52KGB6jnPj58cIvhvoF1cLcWNwqxnyWdN6KyngHacbmbHJ444+UmqlLlWoRjc8C/bv/a/jvtGv9B02xS3+zmadpPtDH7QAp3ZIwCQvAHQ4PGea+E/2kfBmoeNIdDvLe5t201reExRJdpLNLuIyX5OxumUPIx716X+034shvbG++1XS2114iuE1CW4umZvPAbJ2AKQM8KM/wB70Jauav449F062t44IZFwZvLaP5Vc/MrRrznkggYz0x0r0snpyo/v7atvfseDmdT2knTvpY8f1PQVh8JSWdiFtYdSlKrJKvzBASpw3ZAd5zznPtUMmvNqnjdjJcXl0trbpHC6ynEhUBQ2cfLu64xg9K7n4qeHWi065drzT5o44jPbJawjeVBIfJ6Y3jgDIUEmvPYY7yTxRNEzsqywhWiZirOuBtGVHB4BA7jH0r6fD1I1Y868z56tGzVtjqdGgt7LTVmhWQSuyXE8ak/u2D5AUEZCkAZHPI9OK0fFXiS8tdTurq++1XNpfWii48yX95OCFIfHfCkD3B9cmqWl2d/ceELtpbaLzIRHFFcISWICk5PBwuc5BxgCtbTdJWaaO1+2QwpLCpGq3Em6G2iXJ3vjOQpXA2444wT0TlHm941jGVtC/psM2n6jFJpoXUrJ7NmlS4XbuXpFGQT8ykqBjOMnjB62dM0zT4tL1IXEe++0aeZhIsoXKuAwAOAxGSGQjJ9AOcYfhjVbc6PJosF3p+oah5Si3uY/m82IsSpL87SCwyhwQFz1Ax1ngjwlefEqS8+y6Xa3l4tpNdSxJIGZbW1UEzxlsHC7cZHPPI4NeLUhU9o5PRL8bG9OMqkkvwOLudNvvC92ml3UUlzDcXDOTIpyV6AjPzKuMHDAAhefSui8L63/AMItHeubWFdK1SaO1vsLjbGBuByozuU4YMOjKByCRV/4landa3Gt7bLZ/wBpNvcR2xEckOFywCNxsCZwOucjccitPSWs1m0yw1xdHR9asWni8m68qBiFLKwI4UOQQc/LnbjOcVdXEJRXNu+3l5GsYqFTlbOG8YfCi/8ACPia+toZIz5N8FuLeMMpcFVeN0LAKVZZFcYOcOOSM1yt/eorx3e77PeKVdVVT/pGdwO4Dg4YDj1z0r6G1W8h8X/DHw7qcVnPJceFZDo908A3NcwbJH09m3ZGFPmW7HrsiQDBIx4N42lhvb9bho5LFlt0nYRMDtL58zIPfJOR049ea7cHiHN2kZ4rDqHvRZYnsYI7DUrizSRZFVHMEOOFdgzb89SMHjsGHpUWqatpMw/tCxuGjEd5AJ5k4WItg7QpOSBhhkk5xwcVoxeH44vFcbWt000etRKxmcbY146gAHLALyvXBrH0rwbB4xs5LOGOG3ZSpUibDXCKWLKC2AGXHIPTPHWu+PLvdnLJStax0Ph7S7fVbR7FrxNPtdYmkeK4Yu0MBV0UlyOi7QTxkfL2IxWlNPeeH/CNteWJjaeN3gmbYGxDuKZHcM23I28FWJ6HFVtIsbiLwXeQ3f2iPy4vOji3bXkXO5QF6tuG44HXPerfgu6ur6MR6hZXNvaylhiAhvtGwgqqA9COuAByG6VyVpNu62R009Fbq0U/i54atYND03WkttNTSo7WSa7s9gbYWbJ+bOSewPGN2Olcx4c0TSdc05bjTbb+z1s/9IsoxJJ+/YBS0bddu4swxuGMZ479J4pvpNMuILU3jRrJfLcXMtyp2AB2BRhjCtkZYAc8egNdto3wh8UeMfFmh63oPmaPDqNu8rS3YFtYQwxqQ37s8mNupkOAWkI44rJzlycsf+B6fMfJGUm7X2/E8N03Vxc6nDdXjyLdKzNLgghGJ3ZXrtJOTgZHXpW94d0gpLb3F5u/s+GaSSKQOVkldgCqLgE4LHn0zmud8b64b/xB9pmtls7hbl/tCW/yoGDkNtXsMY4GBg1teFvEkNrrV1YQz3XyqJLaMoCwcEHcCf5D0ru5ZOOiOWLhGTUixd2LXyRXUTR74HWNV8wlWLE7CDxtBIPPYg8CnX9tJ4Je+s5I7W6umxKZ4WDxCR4wCpwxDZ54/wDrVqWNhpl3fw/aI47SSd3VxIxQKwXepbHBPzcds/jnM1T7fdaf/Zr2bTXGnwBJJQAwlJ3BGZlHUErgH0PtSje9jV2tdb/10LPhnjzLPNxNbzQuk6GTE0UaoOowRySD746irmnNNd38moWNxJLHG3kXG4+XPGCNo5GGzzkqOCGIOQKljTS10/R77RbW+mvIbJvtFtdFNsYUsGdSpyQxPII6nA4FM0JkuNSt4o1ZhcTwxqyYRmO0qquCcfeyu7oQKlyuriUGtC9punxXOmtftayzMs0iSpGhWSRcKEkTPynJbJwM8HpWRq9z/Ylksjx/apVkkSBlPlsPkCqFbrheePdh9Or8WXEnhi8sdLVXt5bSSWWwLR42sCEKH23byRngDPNYOraVP4huINWa6tWkhdrbyynyzMrlXVMZ5G4Nnvn1AzEZNu72NqkbLTcsarZm1t9N8y3l0/8AtALKjAYVoWDI7BTgEgqR2zk1en1ZvDDTWv2hm0+UeWJpN0jQxqoAZ19geCPXb24y7ya4vbjzlkEn9lwrFBKoUhs5IibdgnAPJbJxjH3cDS0+O3v9ZGmw3Rgt5DDJbyzYbEbZYl1GRIDk/dPTbmh7a/MI76fIseHtEuINTls2vGhu2uka0nkO9Hi2ECRjgtgOMEdCODxmsPUY7ie11RVWCG4hdiGsk3KMP8roQfXI3ZxyB9dLU5I9QvpLiFo7UzRMYHKhUZuhfA+6RjG0Y6+maq6dfrpDLNcNImbcQlWbcHOQCuQOjYJx/eAzS8w0bsWk8SQ6HqazSafHqlnbxRqTs8t5UKDAcMecAlRkY461X8YeHVuI7XVrcSabbvEZmhIL+QC5RicjqwwRnHQ9am8W6JdxaLJcLLaQvDiCRoyQzIUzu2n0XG7oAWHA61NJrkU+j3Wm3VpK0y7IyqSMHSMc8AnpknOegNPZqUQcrpxlsZOuWf8Aa3hOPzry286DdEojLNMzxsjeYRjGWDDBBz+7I7AmxqV0z6N5czCe8079y6giHz4HXgHHoNrZPf0zVXSbxtEhurWaOZYbiKTfNHwh42rgHvgjj0BIJq62jwWWu27JNZxzTW3l71G+C73Ha2BgjIUqxDY6HvxV6LQi1zqvDWkW9vp0dteQwzNsLxz42R+VJHyFIBJABPU9SRjkVz3imwm+0f6Hq1wj6ZFKLS1uI0m8hQd20eYDjruGPfGO+rb6h/Ys8f8AalyjR3EWfLcnKKqnYox2+8cdyDycCsLxNdzJq8HmNHcpdIt1NMZNzTM0I2MAf4VKsM56/TFYRi3M6ZSShaxH4NtptT8O295bmGOS5UygshyVQkO2cgKTwCp6jkCukW/j0fwBe3kN9fR3PnxWlndwSGFIQUc3CPs+bByAu04J3AgZFV9G0EK1vMn+nG6GWhizGbSZgQd4K5P3ScplSrYPIqOTTvKuJmghuLe0S1dp4SV3iMRLl/l++ASATx6/RStJhG8Vb+vUueHvEcOjeHbq2W4mvIrpjLcQO7BYpCADtAAzlAcdOe9dZ8INL0u28Q6enk/2latZN9hFq0lqfOSUuqEkHLMBkrgYK8EGuEuNcuNM1ey1QXsbSMyR+ajDMsqLtwNwPIQRgg8H0713vwA+J9n4D127vtctPtM37pJmkiGYSzcTIy/cdXA55IBPBBxWdaD5W0bUai50mfRngHxQmha7ps17ZzG6jES3GqXGR/pYGVlVuVVRwODu+Xkdjt6drMDWmp3Gtf2rrk9opD39sqI0CFWfysggMzyDlsZbI44AOd4L0nT/ABBqV3Na+KreTUpm3yW0bmSO4O7fJtThS4wGGcjkdMCsfxZqV1ovjKzZFs5NX1GKFJTbr/ouoojlVWWJf4jvJ3YDL8pxjkeXypux6mqVzrm0UTeHNJ/4mV1q1rq8NvcTvMklsbKS1lR13F1TcSuF646bSSDjUmtx4W03XpLGCxka3sUnhkmk8xk8y4IkYI4+4UYEkAjIGTg8SQeFZdUiu7CCa4h1VoUe1sDc/KkvlhsOOAzK3yK+ec565rD1md/ihf28V7DD52Dc3UkcH+qlCeUyy7fmB2qVKqpUuwPBAzC1NXZepJ4D0a4tZLtNQ1KSyvCqW5VoVgjlVWjZZML+6ZjvEeQBlSMetO1O+j8J+FC32L+0L23W6RJYLdoYreUKziVlzk7QzADABLd1PHTJFCui6nLJ/ZehX7TRWVjHeWRlCFZGEW2VRyoCnGeduSScAjB8faT4h8CfDV9V1B7VrXR8TSwQW5EkPmOUdWljYrIREVIGcgAg5Ipc15XHy2jY6TUNYe38C6G3iSS61K+03SonvL6Fg7Wgkcoyx7cgEsIScfd4IGMVy9tr91qpawkv1XXBdRS212WFv9sEpYJIWyBGpjXnIw4x8vGa6jwXZ32laVdap4fjZbxbjbJDcFWivysfO1QApyG3qQvGE44yMW9SHxRqWl6bHa2sNnG62SiSBWkmjch1iBY4fZsO303kYPApRa1Q5X0Z0Fnq3n3K3Nu1rBcXVxBc2hjhC/ZJmhIYksMo2csB1wwAHQ1j+G/E/i29+KKyQPDvj0+RrrR7idkEYhYqpiYj/WcFmGMHdg4yKkhb+0LPWrizt4JG1TJtJVKxHzLfKrGhBDKkifeyDhox6ZqOee18RarpszzNplxNIIfPkt3UxOEOYHPK5WRMMRw6jsABWUoxndM2pVp0mp03qd9JoGnySM1zo+n3FwxzLLE+Ekfuy8dCckUVwtr4T8UG2j8nw7pVxFtGyVbW5IkXHDDBxz144orP2C7/AIi+s+S+5H2J4V8dT+M9BWS4869TUI1FyI7rYtvI+Qrh1PGQp+RDkdepr4j/AOC0fxzi0r4M3HhfTZ5k+13duGM0itJK65LOZRypPzLsPJG0npX1L4k1q6+DfwR1qGS88P6Tqmm6amt2d98rRNcRHa6hOAu/JwOqhhmvgeb4V+IP2uvHvwv0u8vo7ubV9SvfEupJAvmLbWKyG0hnkyNm1hDdPknkyZHFc2FjGMo8z0T1+Wp1YmTmpcq1lt+p6L/wSx/Ya03wN4Jh+N/j+zvNBj0m3UeH7Kdj+5ikkyb1yV2yeYZCqZ+5weSePri+sreVlhJkkazVjGYH2NbHewON3J3buxx1GMYr2bXdTj0b4fCxSzs7bTrSFIbVbhdsKwgAZKYwxztAUDB44GK+evGniCVbCa5s4b2a4ZBNbqIzbmbhiQGzj+E54xjHXJqsRWlVfNNmOHpRh7sELr3iKTw5dyJD5S3Vp5UiyTHMzuSAvzYwyhSCRn5i2OaybDS7Xw34JurVZbXTftB865tFtw0QJYyLIGU5UFnzuyckgDFRW3iG1tvEN1p9rHdq9zB9pP7zdb2oHIB3Y8tvbpg8c0yxmvNd1eaSVbOz02K3KTLHIJjdAleCAMqV2j5V3dW6AEVyROq/Us6Hf2lp4ktFtbi4m+wybf3hUb3UHIJO7ozKCTnnjvWr4gvmFmUhhmdZyEc23/LNXyY5MZG3Ozll74ODWHaeGYbTxBN9ng3rKzvDujMLFjjBAPPDZ6dx+S+KtStdKvoGtba6uHtn2s8kwji2CM547/e+7k4K1ZJFc/E+abw5qDtpV00Nq4iZMb0MZJ+cAHLZ3d8dvTFSeC7e98SWUUK2MmopG26NS5kEqEdDjgFVBG0dyx7YrD0LT5PFDLYxqx02RlSVIZi8l5vyzbiRlSOQAM9AR1q1b6yNLnFjpMl5bW1vOI/NWUDhCwKP0bdu4xnHHPBOX01M9b6B/wAI1cah4sW+jnf7bCjQpayKnG3IQc4woXcQBjr14FZ907Dxhotveecml3ivbQpHGx2kHKkH0JVRjI7nNb0mszT6m3+hxTedDtkkMasoK5+aMN8yl2JIGOe3Wo7fwofFcMLSSNp8U2FZpNyxQblGRjgKCec/wnPXikAP4cvPD66bLJBcLJpv72ONkYNqOHIWMEA7gE2HDZ6YPrWjceDft15dLZ/YbX7cGENpIom8xZELmVUkGUlBx/GM7cDcOK17jWtSu59U02b/AEmHTxFaxSNK0cs37v5mMuA3DEDg5+vNULKyg1vX4Nea8s1e3gj2CVWxu3eW0ICjA+XOSwODgVrfTQzXmX9B8H6d4/kgEt5NHqujyQC4LgGaZFOdsgPzBQuVBOR1IzyK+Sf289Pj03xbpNjbtdGzeR5P3sm5W28dgAcckY4zX154saLVNeg17m1u7iFIriGA+W08SvgLjqG35I54HPAJr4I/bT8cSf8AC6pGultZ7xttpawuzLFbyKpydnIWMbVbgHnA5yK53L2leMIhOPLTbZ85eNfFEGs+PtWXVPKudC0fZYxQtxNsdCPMHUE7myeQRjkHPFHxx4aWHwto1l5jSXHmlTdRLvW2jLFh8obd8noP7o4zxXZav8MYvC1jJ4XjaKfxdfS29xcPq8n2WKzYuHwrFhhdhZpHbICnt0PC63v0XxtHqF1GdR0iYpBcS2zDy2jcjPXjhsDgg49K+souLSUNl+Oh85XjaT593v5f8MT65c6b4v8ACd1e2twDrUkSw30IQqoOfmKrjjey+ZuUjAfHGK88+H/hm28VeILeO4ljhMl2rPyUUx5O5mPUBQN3c8cc10XjK5urjxVeX1qFj3SGbMKeXnZgKgBx79R04xWXfaXp8GuTNcw3VrHGzzSQMoWT5VyIj2AY9yMAn1rsw6cIuCe+vmvI86raU02uppSXMfhTVPEz6LfLqljDqhistSO62klhUk+YYpFHDdeeQGxg9lSxm8V3sNxBDJ/Y9rc7CiMrSwu5AVDhgzKzZAxkcYqLxg17PoVrLE/kNIDemyAD+VsZm2SDGSBvADZBIzntVr4T2/hHxZ4Qu21bUrjQ/FELqtsxQiwkg67ZCFLeYx6H0XHNVyNrn67f1/mS7c3L0/r+rFey01QzY/cybfLVwOSRkgErxwc4I7jrXbeDp7G8mwyzSXFqs8lrciQxrMGx5hxkAuMqCg+9hiayPh54hufh54lkazXSda0u6iO86rYmSOAsw5jYYaNtwG3B4K4PBqXRjb6hf3UYkZbVpcwAH5ZJQQx2rwS7Bl4HXHfJFTXbd4+W5tRiotS9dCHxF4OvNO13T5luYrjy0K210x2/amLZZTxjJBAwMbSp7HNWPF/iO117w1DfSeX5kIeKaGNQpiCkK/AP3dw4Q+ucAHnN1rWNQ0xI4Zbb7RHHIZsQxgtBIoOxVPB3HvnnjBrY8PnR9T0M3VgqHVFjN4YJl3Ru0b7pBIrggqTzjGOMHrxzOmuZVJrYu0XJ8u5X+B3xLuPAvjmGPVkRvDmrQ/YdTdi6qkLFNlwBkKWgkWN+M4CN610PxW8A2MninUdQkvreHUIZpobpY7f/AEeWVWCNvy3yEbsgAYOfeuU0aSTQLm4e4jXUtO1VhOLWRfmEkoVWSNemB8wUnAOc7egrW8QTXPjC1tdZuIZJI7KFdM1QR5lVsKRDcMVAOHjBDM2fnjYHlhXJUp1PrPtYe6tvJ/8AB/4Aoxm48kun5HK2X9oeGIPtNnKsljpxMqxn/WHHUg98dMDryMdc9dp+iJqVhdQSyLG90ItRgRIFcYYYY8dN/TH3sD7veufvfCkemabDcQte2pDKFE5/dojsDvUjPUgcHnB717N8L/COrXfgO4eeGSGHTVSX7TbMN08kbKcIx/iQEuR244x19SrUXLeO4Uab5rS2OB8OeClngvJpp932W34SSZV8wxkFRHzk7dyjA527jxg1R0q0uVube9mhhm0vUyb8h5CskLbcNsAwWR9pA4Bzk8c10njW+/tDVDdW8ca3MYdI51tFy7lXYbhnHzqQeh+8TwCawfCHgQ6haatZXfiKPSdNtdFm1O8muLR5QixK3lRxqcMJpHMcK5IUbtxJUEDkqVJvSO7CtpJKJwHxP1aSbSreeOOZrVZxJJDPnczjBbcDzuOOvuea9l8aftReHbP4KltGju/7cubI215JesojhwFAROp2DA2qAOrZ5xXE6J8O5Nd8AatdXQk/4ktj9uZC25ZAjLIx3j7xVGZsHsjdAMg+Fum6RofhS18SQ28Ulq650HT7hvMa6uQzCS5ZWz+5idhgA7WkG3BCPjplUhyWa2dvUqnh5xn7r+JX9LdTk/HGgp4e8MWralDu8cap5cl7BMx/4lcLLvXevVp5FKswPCKAMBmIXnNH0iY6hcXcJy0MwETjG4OMkLj04PqCcVr+NzqHifW2vry4kuryaeUq01x5lwrj5tzP1753EAE554OKPhCC6vL62spvJVppRHDJjHmSs65Ykc5yw6H+dd2H5o07yevX/geR59Vc1RKK06f13N7Q7618QxBWmWO+aQ+bvG7CBicBTnB759OK3NBj1C18SXFwkVmtxcHyUh2nbOGBAQjscKcE8YI5zio/i18OLz4TeNV03UrUjWtOdop2SPdE7rxkbhnbtwwJ65Fang+6j23GoXU02y4AuBHOm9yS2xWZ8547YwSWNZyqJx5o/wBeh0RpyU+WZgyaHN4Zsp/LhmjtpCY1diFCRu2T2yGzlfYZPNWfA2s3hhuNNW8u1tbm6jlaNoldWwQSylhkKU684JArZ1bxLDrksd1c20l9Yx28cV0EGWlZgQGYnH93BbA5U9+a5nUrWKwv4opL+4ij3bXVG3tEhUCN1weyjHPUZpRvJWkVL3JXiamqa/52m3LSBdQtY79h5si7Z0yMh1GfumPOCfSo/CN/eeEdSg1LSbiO1uNMZpXQoC1wOcq0fKsrLuDA8EEe1Taf4dlurhtPjvbabb5M4l2qqHg7WJxzk4GG5HNZ8Ia41eSGe8jjMJLSNGPK427XY5HfJ5HcdOaI8rTQS5k1I2L/AECO/wBHlFnd6fcNdJ5kAixtUFjmPPGSAzZOMcYGQBXO2Xn6TLCr28dzpcnCIreXJDLGp+cHk44zj0A6Vc8PXSrPPLDHvWS2YxSBWVoJE5VxtHUxhvlPB5z0Fal5qSR3tvcSWtvFYzqZLeJSxj3Myq+AxJRiM57bgc8U43iTdTXYInOsadc3H+jstvB9qllx0TcRlh/eO7JI4wao6xY/2j4ft50+zyNPL9miyQI5XXDH1wx4bOOSxFa2l6xaw6iLJ7QRoY3toTIfnFt99UkBGBnaTuByC2OnXP04w2lva3EayrFYxSu8ShWaSYE7GKMANqhlUgEkkMQcjFTHmRpLlta5oQzWXlxw+e8klnbSQMrR/LcOx8sEk9Pl+bB67fWsuy059TEOn3lwsl3byG0ZpGHlCLcACsvbhicnHqMYrf1uS31u4eeCSO2Mgt45owQy304Db3UHsoOQe+TXPTQRxzWrXUuIZnMokjGRkHaTtOCGXJGO3BwM0Rva5MrRfkXNd0ibS1tLG7uEebzktYpo+XZBwG7ZAJ4Y8/KfYHWurfSrvRZZmm8xtJ2w3MTNskYgEgqD1Vsg88/jVPXLmXWLCJYoZrib7SkEV20WCUD7jGc4G7pjnoTmp/GN3aXyyL5sis0bu73UexmXkKGUAgndkYHoOeanV2RWiuY2qaVNq0i3lrMsMdwgupLJ0OJWA2lVPdTg5O7uO9bVvZR6/LNpt1ELObeZY7mI72QAAHPTOG/mapaZrsbaPY2TWsK3mgtJhVZ2mvfMxsLHnCgEL/d+UZ9adHa3NjBHdSLcfbrhVkELv5bCDdjKseC+STgggjPUAVUk9u2woSW667mzHezaB4nzLHa3FwyEyO4xCy7QQWA6D5sg46A5rH09YL+41LUG8y88uGWCRA+6Pccbchf4V6+4Dd8VNq5WykR4buaeZYZBOZV3KgbhCVGQRy3TAPSsnRNAurSK/u9PtooVaEyTwu4jwWXAZevyk8Y689qiKXxMuV37qOi0PVJtKs4Z9OW0iG+GUSCNXfzYwWSZfMUju6EDhsr6VY8G63bR+Ibq81S/SCO4ulhmiu4QSsfnIobrj5d5OB2Xoa9M+HvwC0HVPhTL458P+I4dRsvD6QR65pctj5eoaccbWZYy2yQCRgAVZdyk8ZGK811fRZNY8OzTyWkbW140m6SUbmBHAkAX7i5zhckcL161zU8RTqtqHR2ff8Trq4erSjFz7XXp8j6Y+DXg1fBVqVjm0280+xurizTUQ+9Wiki+QybMuGjdeNwyVZecCu01bTbwQaBperx6amltcC6t9TQmIQLKFt8K4+4qqGDA/dySB2rxz4C+NbTRPC0MujqIb6SGNZ7Z9wmE2TGipjIbAY8MMYZs84rqdW8PQ6xdS6Z4gvIdLj0y+SS8vLZXZ4ATueGQDKOpcDDK2OTjpiuGpH3md9OT5Ee0aX4Y0e38T6DdXn/EytGt2Md/ay4nnQDYoDDdvGY884HCk9TVfxV4Q/t6C+NnpP2jz1zJFqJS3uNvzFvs3mMNrZG0gP12nvzm634M1PSNGTT5plm0+zuPttnLLA8Uc8YwpK5Yfd3AoOQw8zuQRq+GNX1a10Dw/pLeIbJ20OWb7Vet+7nlldywkCMp2nYF5Jb7oxk4xittGbO6laSsYdj4qXRfE11c6hp80mheILP7LLG9m4/swoSGkd2GWB3HEiAjAwMYNbGkeNLHw2lr4Ds7eaZfExE83mtJNcXcMCsr7UbIEOQwwGJOCc5INW/iPrPiPxL4j0PX47PT7iWCzktJ7G2cTrcRyxkvc5TIdXwSMD5QTXGyaXpeh/ELQ9cZo9OutNJfS5rt3O2KEugKbcctyiqMqWUFgDupxV1r/TE3b4TqI9VgtLm/bS5ZJrqQW8RiBPlRpG7ApsfLZG0J8uCFHUEYqrFcwwa1cQzKl9cXSK9lHLC0pikIDGR5MY2N8mFB3cDHXJk8T6pdTPDI2n3F/o0FrFNcSQLIbqSQoS5IbYMIrKN5+YkcE8Zo+F1n07XotT0CO/hhuLVBeM86qt0rLGzDdyhVN/CnDNg8cmotZGm7NiPwnZ3okm037GdPQ2zy2r4e5kW4Vt7IFBXyuCDyHAVTzk1D8SLK8a9tZkjV4b63kKeS3miUQkMyvhNwdNpBJ+Y55Y8g6tkkPhnWrSO6t/Eljo92REt80Sbg/P8ArFTAKgHjPBC5PJNV10qbTdKaax1BbqOa/XybRkbKRzKFcocEHzNuTuDYyRnrWfNZ3NOVaoh0/wCJqrYQiPVLu0jEahYItSWOOEY4RVDYUDoAOABiio7jxB4KguJI5PDtz5iMVbMZY5HXndzRRdGXLI7H/gpz8TtUf4R2fhfw3plncSeLtbg0mG4Mvyz3F1NhUKKd/I2kkjHHU9a5n9gLxBGPEXjyx0aa0bw9pGq2+h6fm6Mb3On2EP2eKQDrsZonb5fvFzmvO/jP8cf+Fk/HrVNasdQhh0n4Y6bdX1mBA0UVzqMoNlYuWyeFuZg6LjpAfSvVP2YfgpZfA7wHo+k2SSWutR2ojupbghxIi9yOCN+WPJ5Jrzqcl7J82/8AX6L8T0a0Wqlo7I9h+K3xieSPS9N1TWJpGurgCztWj8zcyYXkA5xgjAJwCeDXNa7YXniLRrhbqezuJISVjt5JjAWjL4iQgcqdvzEcgH24N6fT7nxD4jhVNLs7dk8yVbphvZWJKbh3VSoJ9c1l+PPB1x8PdTkh0u1W6MZiknmkmzDM0zZITJJ3qEIIxgZGPWsnJ3uzT3UrR36kmmS2/iGV44fJWaNpIoG8x5Gm2/d3EEgDjkdR04qtfaHZw6vBG1wranY27M5tZzIpk+XczLwVPA4BOcktSLpc66nBqFxIzXKxtc29qk3lwo4DbWcAAk8cnua1NN1GNlS7ulVizqy7IskswIXIAz8pyQeei5ouhavYqyySXmiyIt1HaWzSqFExLMzFt3LAZMYOBjIzk8ely7in0a7kkkiW4ubeAv5EaCWKVzg7VJI2kdWIHO7mquoeJ4fE2tX0N5p7OlvKWQyH5WAUAFWwATlQc9MknirOraveSiUSKwjikJuJll3+SCVkUZAyVQfLySAPXii/cLMzdCuBZKrXHl/arcMsL28o8szlWI2n+JlBdcHpjjnBrG0bUb6a9ury6kOoTTHyo3ZBuiG5iQSeA55PT+Ljvjcvmt9UvrqGymaymhtzNZvJZ7YruRinQKfmUHjJ7sT3qEWP2IrNFJ5clp5v2vD/ALve4G35VG5WTPGODls0bk6bmTrmr+dcHQf7PnSG+QXnnLn9xG/ygPztwSuCQRjceh5rX0zW2j8MeXYx2dtp65ldJmcRzW4TdHICccqQQR7DOcV0HhWz1Cw0uNHjttRtZlC27qzmNEkB3CRD0znHA6qp47ng3RU0+yuLq71RUW2hY/ZhH+7MJ3BgQMncOhU8Hn8adnayJ76kPhO7nePzZJLTUNP+0oqTWZ8sXG5cnarbgAueWDEE9OpxsxXzaprL2c1vcabNFCrWlxbMu26nJRyJnwPlZApKsM55PrVW1l0+D4drDprTLD5wntYtwAiIYIxAIyF7KCccHjipNau1+HnhjUlhvJr5kuWWGDy9wtwgxjcMbg6tznPJwOAKzrTUY8xVOLb5TzL9o74t6L8L7GfbqE2o3FzCRboiAtCMH5WXP3tpxx0Ocda/MD9pHxleax8VLG4+0XC3dnJHcsPvC1Lsp+9nhlO3rkjHrXvn7Tvxc87xP5dxDHFqC+bb2lvEfLRnUllUZ7ck888d818/fDmO38XM1lea1HpHiG3vJZY7bUdytds4BUB8Ycg5+VjyCOhFehklKzeKkun59fQ8fNKzm/q8Hr/X4l3UvEmseKfE+pX2p27SaxcXAhjmkui6MhjP38glwykqScetZN3ptj4e1nT9FsmnW31YO+oWEsm6EGP+EHAO08kZGeR1rY0/xS3h25Y3htbPU7NirL12MilHDsODlyT16Eg8Vl+PpbwSySvo+bWO3SQXUUgmjto02Ryv5ig7D5j8gnGHXknr71Obc+XZPoeNN+7fqYkeqRyw3lpEjbft5kkupMlvK2gBOTjrk+vyg9KXStTbxBf2OqyBbe3sybeFM72cKOEfqShY4JPJJz2qLwzo9za4WZjHazXS281ywzCH2sVVmxxuUDDcdPXozwR4ch1K+hsZry10+DVJd13c3Kv5dhsOS+Fy23dtAIHJY9q7vZxjdnJHmbXmahM1x4zvrtYJmhsZyqtFcMj3EDYEiBwPm3YK8jgVJDaQ2OhXF1b2J8vyY0vyCrYkLkq3XjKk/NwAQe3FWIbO/sde/wBOjvLW5u3WazmdjEk9q6/6xD3HykhhwRmoZNSitL5W+x+dZ2wha6s3H/HzImzuuCEYDcR15HINLdaFaKWo2f7PClxHG1wtnNIVLxyMJLYHJJwT8oyfvcc1qeGdVl0iz1W6RrC6k1RPJdTbrNKI1K7JADjy5FZQhYYbqRkVk67c3F5r20RzeXqEhiM7r5eQvJRuo7jB5PA982lgji0e6vLW1VZZZIopC6lROGclmBX0x25Ht2JRTiEW76dDTsof7SS4lZnj3OI3jc72QKfl56k5zyTggn2xq+KfDTancQSW7wxXSxPMLjaESTdglGUHPGcEEYbI+tcX4W1K8hVkQNGGlZTsbKbmc4wSMj5QR6duvTqv7L/tHVxqDtI1rcWDuwM53GWIhnKqf90ZIznnPArmrQcJc19DoozUo2ZX8IWFtceKbXR47NbSC8ikkW0nYyK7duo4XJyAMFRyOOK1Pgj45ufhz8WIdJjm1Jxe79Kltra2DShHPzlUYYkA4cAjnABGGNc7q3iiw03xhoWoXjX1xb+TJ9lmtJRHNIqgooycqAJsEkclRgHOKx/FHj+H/hO7NpriSxvLqRftl1JlFZRn8mOcdBwM9sVMcPKd9NGvx7h7aNNpp6p/gfQvxD8K2ts82n6pYx6Te2mGJtiWsdXgJZoru1JP3GUjdESQhUgHBKrDpfimOX4OwtOulwtM8se6xZ2ure4BKj7QMYAfYTxncoHK4OZ/hLp8fx3+GF/8M4tQgmv7SR28C+ILhGjtobp8tJpV0T/qYbl/9TITtjmbBIWQ4wbeDxrbfBPVdPup7rS9chxpt3pdwJLe50iS1Vx5DRMP7pyW65LDnrXDhac4vkm1v+DO6pLea2a/Hscja6BefEbxFYaPb3+nr4huImuYoru4it/tjRDascjsdjEo3y425XJJJAFcXbXV9rHg+8fUNFnS8WZbOEwO0sd+GYRwwIvJbaxPOSAVOBnFRfED4Xax48tdJvJLz+ytVSyadlm+UyDeA7Z4AOOoOThfrW38NfgPqUvgFLW4uLmxWBvObUUuiI1H3kW3jUb5JjgkBeOcggAmvSfs6UeaTX9fmefGDqS5VF+v9bF7wdFav8NbzTZtR8u38wwzTzTGBmkiSRTGF6iR8umDkBQWYBeD5nqfjLWvFHjCO5MMLwWSjT47SyQBbK3XBSOMjgov1zncTksSbusmw1X4qTaTocken6X4fjkS0tJitws9wflnllOPneQZ6HI+UDhRV+z8EN4D0e5+yw3irePEDvA2b8bgq4PGUIJzjk47CuimlGTlLeWyfS/6kVJOceWGye/9eZzup3txKJpmiaFpSViidT8sYzk56kEnPfoa2F0BbXTJvNj3qiMWeM7lYjBG1vQHv1BAP0t+J7KbUbjTbWaGG7VfLTzo3O6QyD5j3AwR37k/gWD6hpVytkqtdWt1E0k27e21SCO3Axyx/A1tGXu2RgoWdzR1Pxdfa1rTSarceSfLjXZhtquOIypYkhtgPVuQuKk8Q3bamyw2R+z3jRZVFJK7S5PzAkjqWGO3HTqYX0eTXNNuFihF/a+T5suxSxkJYqqy8fJgMADx9c8Vlwxxx62LdnmjuLIRpiYGTf0zk9SPvc4zx0qKfKzWXOte/c7TwT4p0/SrK3juobe6hvv9EkHzJJDIQu0OM8qrDIODycZrnbvQk1zxPd3drHb7YQUt7hFIiulRjmQgdOAQcj0rqLDTNLk8N6f9smSG4iuHnhlKOzIiMqu27aC3OGCrk/L2NZfwttLg67rV5bw6fJHYQLdzvdSrETF5m0uqkg7ySBgZ4J96yjJXckayi2oxkSfDjV28RR6jaw3Hh+1j0R0uUhvJlSS8ZizbFyA0hU5CgcDdjqQSvivwjNNreofZ5BC1rb7ruN2VcJwZFAJ5YEqME57/AE5iLw3p95rl2257mVpdkEATHmhjlXjcdQGbGMEnHtU0ssOn6zZ3NzZzah/ZcTQahbpEyMkm75NynBYBhsbnkH2rRRXNdGftPcs0V9Xs5LHVY/Lhka3uGPllgyowB7EduNmfX8a2nvLG31i8kt7WSaz3hvstywkZYC3zBSvfaASe/PvTvFOorBrr6hZeda2rIZYIXYSxk4AU4I5U7z+K+tZ+naVdNrMd3bzQ2xtbYQE+WZY2ZgzIAOoYnjJ7mrTursiSs7RRra9p62usi7jWP96BPFHJx/ozKcc9MkDaPbHrVeG3kayt5FXfCsTwuhYqZo1X93IG7/eHHRiOgpuo/bria1unmhX7OfsMmAGEMu8kH1A4xyCMYNaGjeFNU8V+KLPS9OspbzVZHjtIbG2dS985YCPaOBksD0HDYpXVtWirNu8UySx0+WBVureay8xbYo1uQGYSlFb5I26lm3Ac5zkccUavN/b1sFmgsxJeKrRpbsSsk3Vsrk7JDg7lBUDb27msaPqHhr4ianomraT9hvLW6ME9pPEQ1pKOcblyBjnOPXrjFO8mz0bxxaLLo7X2lxsx8uC8eNUlK9Glx/DyeACenrU81tUaKL2G+ItSm8Ga1dWt7ZRxyTxRwSxb/mjAyMqf4SRwCefl/NllZTLZ3DG8W9CzRQorIFkEeVCyBwPmwSuUwGOCa09Q17T9bso9TbTZmt7S3FrcS3LDzAS/ysCM7hsIxnoQTXO3UM2nXVjeaeYb6a4nTZbP/rHZT86Db1APY9uhOBSjqtdxzVno9DrobxPs7QyXsUMd4CZLiOJTIBvZBnpuTCKCAcjcW5xim+KNZvZvDtvDqD2ci6fK6WTTKy3sNtgFA4xzGPvKwzggg1yc+nSTPDeyLttY1eAR+Yd4cvuJIxlTg4HqO/Wug8UeKLHWNJ+yzxsuoeWyWsjkFpHxgRkgDjthsDOMdM1HJZ3RXtG009DMaW317xDJaWcuWuLGO2AVgsc8juG4znB57d/TpTfCs9xpyySNZXUkaSKj2YxsfBYGNhwcjk56Hb61WitF0q50trW1KyFPLmEw2o5fC4wOhXAO7n73cVe0rXo9G16S6s5tzWsbhkmJDHBDEPj+FBjnHcirls0jNXupNk91eyWt/crbm60+S/MZu7SOdoWmKOCqsOhwBkEjOfQiul+D2g6DqSa5N4i1DVLbTba2m/s+KMO013OCVCE+q7lckjBHPtVPxto9vMljr2n/ANrSQa06qZJUX7HcTIVMsUMgyrbN4GDhhketZ/iPWftWnJpUjX0lvZTSrEBbiNsSLkbmDZyMHhuDjPSuazceWOl9zo5rS5pa+v8AXzO00qxtY9P8Ox/aLpWt5oFe7juM7UZtyEsmfLdVCkE/3iCOw+lXvW1Dwpf2Ux0vUL/VI2Etzcxtb3Nq6n95MhX5WwxDEHllGAK+RNP1y7s7q3e1kjlla6T7RZyRNGksBUglto28H23fhXvHwY/aEhshb/btMW386+SCFBPFN9m2SLjzgfnwx2nOFyD1ODXJiIS3R3YepG1me8ajr+k+Hdbt9Ne1WXdbQ7rGG4WSFsgqREG5ER5K4Ixkk54FY/wv0+2bV9Uh0+1+y3jXVxZ2MN7vDx2wOPKkkAKFldlYEHA3bs8gU1PAtv4t1TWtVk15rHZFJLDeW9kFtbeaFHZY1HLKmUZexKsvrmqegeLrz4aWlj4it5Wvlup1uYJLR9uY/LXfE8WdokJwSCMHOByeObTl5YnXKUnLmkN8LeLrV/FmpOlm+myS3MNvd/aW4iYMyNiRFB4yACSA2GB+8DXp3i34baD4++FMtvdJaNNdKsGnXsTNuiCBCfMBIwrvuPynO498153pNnpvjL4l6nqT20l1b64jpewrMUhdsoyTBHYMrYyoUA7WXncGqR9Sk0zXfEUMOpXWkx6efsKpdxbiGUmWOM7cqSJQORj5QM4zms5Ru9NC4uyd9TW+H2tXnhvXWjsbORtF8RwCC3tJYWvJbZlUq0meiuAuACP4wGzwRV1bw7b6/b6Zpemf2hZT3sjafLZ+X5cRXJyGJGAygEAqME/MQCtYmsmHTEh08zX1jeLpSXVyZJH2xXRJLeUcFWGxlY4I5BwwPXo/C015pmoT3NrqFreLpKwyIjhgJzzhwrZO5dxBZem4AgjJJJaXHCXQ1tRv49e0pbe3sbq2k0yCS1u3mkJt70RbjvZcgrIrKGU5wxX0yKx/h5eRap4LiKW95LCn+hBCF+0SIZGKTKoJKdGA2+nA5rptN8JaP8U/DeoXx1K78Nu1zcLcW8MRnivWUkCWFwx8olmbgcZPAHSsPwANQ8PR3l409t9s0m2MVnDCjeRdyYHlBZAOW+98oOSOeDxWOiVjSV2+Y52//aJ02C+mjXQ7N1SRlDNOdzAHqfm60V0V9ctqt7NdTeHrbzrh2lf/AEWVfmY5PGOOvSiquu34mevf8D8a9E/4KC/F7w9LePa+LFQ6heQahch9JsZFnmgEgiZg0JBC+bIdv3SWyQSAR2dv/wAFiP2jrVXWP4jMvmKEb/iRaYdygYA/496KK+6/s/C/8+4/+Ar/ACPh/r+J/wCfkvvf+Yi/8Fhf2jEnEi/ETaw5+XQdMAPG3kfZsHj1qOL/AIK+ftFRGU/8LEZzMMOZND01z36Frc46nGOnaiij+z8L/wA+o/8AgK/yD+0MUtqkvvf+ZJH/AMFh/wBo2OHy/wDhYm5f9vQNMYgc8Am2yByeOnNOP/BYv9o5oPLb4iBo8YIPh/SzkdcH/Rueneiij+zsJ/z6j/4Cv8g/tDFf8/Jfe/8AMpy/8Fbf2hJpo5G+IHzxfcI0PTRs69MW/HWpl/4K+/tFIysvxFkUqSeNE00ZJ7n/AEfnpjntRRR/Z+F/59R/8BX+QfX8T/z8l97/AMxt7/wV1/aH1G2t4pviGzLaymaL/iSaaGjY+hFvnHfGcZ5xmnf8Pff2ivtbT/8ACxGEjnL40PTQsn+8v2fDD2IIooo/s/C/8+o/+Ar/ACF9fxP/AD8l97/zJY/+CxH7RsTqy/ERRtGAP+Ef0vA6c4+zYzwOevFJB/wWG/aMtmZo/iLtZgVJ/sHTCSCu3/n27Dp6dsUUUf2fhf8An3H/AMBX+QfXsT/z8l97Ff8A4LD/ALRklokB+Ii+VHGY1UeH9LGAev8Ay7dT3PU+tL4h/wCCxX7R3ikIL34jM4jXYBHoOmQ5GAOdlsM9B1ooolluEas6Uf8AwFf5AsdiVtUl97/zPMfEP7YnxG8V+Il1bUfEX2q+j5V20+12r06II9vb0rPsP2mvG2meLY9ch1eH+1IX81Jn0+2kCtzzsaMr3Paiirp4PDwVoQitLaJbdvQylXqyfNKTv6sif9ozxlLZTW76skkc6CN99lbs20HIwxTI6dQQaqD45eKRpk1n/an+i3EbQvEbaIqVYqT/AA8ElVORzwKKKtYaindRX3IXtZ3vdklr8e/FllYQ2serbYLcYRfs0Jx9TsyfxzUdr8cfFFlJuj1TawGAfs0JwPb5OP60UVXsoLZL7ifaS7k0v7QPjCbbu1qRhHH5MYMEWIk5O1Bt+Ucnhcdad/w0L4wFr5A1jEOANotYQDjOD9zryeetFFHsae3KvuH7Sd73ZYuf2mfHF3pEdjJrjNZxMzpEbSDCMwwxHycE4GSPQelMb9pLxqzSk60f3z+Y/wDokHLdM/c798daKKXsKf8AKvuH7Sb6sWH9pPxrbxSJHrQjWUFXCWduu8FdpBwnIx/j1qOT9onxlNAsTaxujV/MC/ZYMBu5+537+tFFDo03vFfcL2k1s2R6h+0D4t1S1hhuNUjkW3bdGfsVuHX23BN2D3GcHAyDgVV1D4y+JNUlke41BZHmOXY20WW/8doopqlBbJfcJ1JPdm54d/aw+IHhOaSTT/EL2skyojMtnbklUGFHMZ4x1x175re+KP7fnxa+NHjFvEHibxYupa1Jp6aXLd/2VZQyTwKuxRJ5cK+Y+0BfMbLkADdgCiio+q0XLmcFfvZGixFVR5VJ27XZzGpftMeONYt4orrXGnjhjESB7WA4UDbj7nccH1GM5wKt6v8Ata/ETW9HTT5vEtwtjGYzHBBbQW6R7OV2iNF2jJJwMAk5OTRRTeHpPVxWnkhKvUSspP7zHtfjv4qsbpLiHVFjuIwwEy2kPmtk5JZ9m5jnuSSO1aK/tReO1jVP7ebZGrKqm0gIUMSTgbOM5PT1ooqnRpvVxX3CVaotE395VtP2iPGVhGyw6wYwyeWcWsOSuMYzsz0p9v8AtI+NLSFI49a2rGpUD7JAeDnOfk56nr60UUexp/yr7g9tPu/vJ9O/aj8faRoFzpdr4kurfT7y4+1TwJFEEmkChQzfLzgDgdB161X1r9ozxl4hl33esCR96yFls4IyWHQ5VBRRS9hTWqivuD21Rqzk/vLOp/tTePdY0y0s7rxBJNa6fGIraNrWDFuozwnyfL1PTrWY3x08VM0bf2s26NCin7PFkAnJH3fWiin7GC2S+4XtJvdst2X7R3jTToIY4daaNbdi0RFrDujJOTtbZkc88Goo/wBoTxjHqNxdLrUn2i6OZmMER80+rDbgn360UUexp3vyr7h+0na12PX9onxghOzVo48kHEdlboBg5HAQDqKYv7QXjBVwusbcNuBFrCDn67M0UUeyh2X3C9pPuxf+GhvGH2fyf7WXyydzAWcHznjk/Jz079KtL+1B46jvvtSa55d3nIuI7O3SZTnIIcJuBB5BByDyKKKHRpveK+4arTWzf3hL+0/46m1Y3za9I122N0v2WDc3AGT8nJIHJPU8nJqzN+1r8QLjwzd6O+uRtpt9efb5Yf7OteZcEZVvK3KvJ+RSFzzjIBooqfq9L+Vfch+3qfzP7ypa/tL+NrKTdFrKp87SbRZW+0kjafl8vGMcYxipE/ah8cxXazrrUazIrKrrYWwKhuDj93x9R0oop+xpv7K+4SrVFtJ/eNb9p/x0+px3h10/aYQAj/Y4OMcdNmP0qtdftEeMr6686XWC8mzZk2sOMduNmMj16iiin7GHZfcHtJ92St+0p42doy2uM3ktvTdawHaf++KZH+0Z4yilaRdYCuylGYWcGXB6g/JznHeiij2NP+VfcL2k+7Lb/tU+PJPC1lora6p0zT5ZZoIfsNt8ryFS5LeXub7q43E7ccY5qrF+0f40hv5LpdZ/fTDEhNpAQ/1GzB/Kiij2NP8AlX3D9tU7v7wT9pDxpHqC3Sa00c6kMrR2sCbSOmAEwOlXpv2tfiBcXEc0mvK00LB1c6fa7gRjBz5fOMDrRRSdCk94r7kCrVFtJ/eegeFP+Cq3x78Ey27ad488v7NMtwiy6Jp1whdQACyyW7K3TowIPes0f8FKPjUv28J4xjij1OXz7iGLRNPjhaTJO4RrAFVuTyoHpRRUfVKH8i+5Gn1qv/O/vZHb/wDBSD4020MMa+NpGS2kMsQfTLJ9jHHTMJ/ujjpxVi4/4Ka/HG6ubuaTx1Iz3zK9z/xKrHbOy4Csy+TgsNo5IzwKKKPqlD+Rfcg+t1/5397JtW/4Kg/HTXYYo7zxwJ4YD+7ibRdP8qPPJATyNoHsBipIf+Cpfx2t7aOFPG8arDKJ0I0LTdwcd932fP4E4oopfU8P/JH7kH1yv/O/vZXl/wCCnHxwkikjXxv5KSStOVh0ewiG8nJYbYBg55GOh6YqeD/gqX8ebaytrePx9LHDZv5kCrpNgPKb+8P3H3j3PU0UUfU8P/JH7kH1yv8Azv72X/8Ah7l+0R/0Ue5/DSdP/wDjFFFFL6jh/wDn3H7kP65iP55fez//2Q==;imageBackground=none;imageBorder=default;direction=south;" vertex="1" parent="1">
          <mxGeometry x="-54" y="313.77" width="64.46" height="96.23" as="geometry" />
        </mxCell>
        <mxCell id="hOGsSKHKUl2PJO7qdBfS-50" value="" style="shape=flexArrow;endArrow=classic;html=1;rounded=0;fillColor=#cdeb8b;strokeColor=#36393d;" edge="1" parent="1">
          <mxGeometry width="50" height="50" relative="1" as="geometry">
            <mxPoint x="10" y="360.86" as="sourcePoint" />
            <mxPoint x="40" y="362.91999999999996" as="targetPoint" />
          </mxGeometry>
        </mxCell>
        <mxCell id="hOGsSKHKUl2PJO7qdBfS-51" value="" style="shape=flexArrow;endArrow=classic;html=1;rounded=0;fillColor=#cdeb8b;strokeColor=#36393d;entryX=0.5;entryY=0;entryDx=0;entryDy=0;" edge="1" parent="1">
          <mxGeometry width="50" height="50" relative="1" as="geometry">
            <mxPoint x="128.66499999999996" y="488.44000000000005" as="sourcePoint" />
            <mxPoint x="97" y="487.94000000000005" as="targetPoint" />
          </mxGeometry>
        </mxCell>
        <mxCell id="hOGsSKHKUl2PJO7qdBfS-52" value="Output label" style="text;html=1;strokeColor=none;fillColor=none;align=center;verticalAlign=middle;whiteSpace=wrap;rounded=0;" vertex="1" parent="1">
          <mxGeometry x="37.61" y="473.44" width="60" height="30" as="geometry" />
        </mxCell>
        <mxCell id="hOGsSKHKUl2PJO7qdBfS-54" value="x6" style="text;html=1;strokeColor=none;fillColor=none;align=center;verticalAlign=middle;whiteSpace=wrap;rounded=0;" vertex="1" parent="1">
          <mxGeometry x="202.20999999999998" y="390" width="40" height="20" as="geometry" />
        </mxCell>
        <mxCell id="hOGsSKHKUl2PJO7qdBfS-55" value="x12" style="text;html=1;strokeColor=none;fillColor=none;align=center;verticalAlign=middle;whiteSpace=wrap;rounded=0;" vertex="1" parent="1">
          <mxGeometry x="382.68999999999994" y="390" width="40" height="20" as="geometry" />
        </mxCell>
        <mxCell id="hOGsSKHKUl2PJO7qdBfS-56" value="x32" style="text;html=1;strokeColor=none;fillColor=none;align=center;verticalAlign=middle;whiteSpace=wrap;rounded=0;" vertex="1" parent="1">
          <mxGeometry x="470" y="520" width="40" height="20" as="geometry" />
        </mxCell>
        <mxCell id="hOGsSKHKUl2PJO7qdBfS-57" value="x32" style="text;html=1;strokeColor=none;fillColor=none;align=center;verticalAlign=middle;whiteSpace=wrap;rounded=0;" vertex="1" parent="1">
          <mxGeometry x="295" y="520" width="40" height="20" as="geometry" />
        </mxCell>
      </root>
    </mxGraphModel>
  </diagram>
</mxfile>
